<ttFont>
<head>
    <!-- Most of this table will be recalculated by the compiler -->
    <tableVersion value="1.0"/>
    <fontRevision value="1.0"/>
    <checkSumAdjustment value="0x249be61f"/>
    <magicNumber value="0x5f0f3cf5"/>
    <flags value="00000000 00001001"/>
    <unitsPerEm value="1000"/>
    <created value="Mon May 29 04:24:54 2006"/>
    <modified value="Mon May 29 04:25:27 2006"/>
    <xMin value="10"/>
    <yMin value="-184"/>
    <xMax value="1204"/>
    <yMax value="801"/>
    <macStyle value="00000000 00000000"/>
    <lowestRecPPEM value="0"/>
    <fontDirectionHint value="0"/>
    <indexToLocFormat value="0"/>
    <glyphDataFormat value="0"/>
  </head>
    <TTGlyph name=".notdef" xMin="10" yMin="0" xMax="726" yMax="731">
      <contour>
        <pt x="169" y="8" on="1"/>
        <pt x="168" y="9" on="0"/>
        <pt x="167" y="14" on="0"/>
        <pt x="167" y="16" on="1"/>
        <pt x="153" y="16" on="1"/>
        <pt x="152" y="27" on="0"/>
        <pt x="141" y="50" on="0"/>
        <pt x="128" y="50" on="1"/>
        <pt x="126" y="50" on="1"/>
        <pt x="106" y="36" on="0"/>
        <pt x="75" y="22" on="0"/>
        <pt x="51" y="22" on="1"/>
        <pt x="51" y="32" on="0"/>
        <pt x="62" y="46" on="0"/>
        <pt x="64" y="56" on="1"/>
        <pt x="60" y="56" on="0"/>
        <pt x="35" y="57" on="0"/>
        <pt x="31" y="58" on="1"/>
        <pt x="29" y="58" on="0"/>
        <pt x="22" y="60" on="0"/>
        <pt x="20" y="60" on="1"/>
        <pt x="20" y="64" on="1"/>
        <pt x="20" y="72" on="0"/>
        <pt x="28" y="83" on="0"/>
        <pt x="31" y="91" on="1"/>
        <pt x="31" y="92" on="0"/>
        <pt x="32" y="100" on="0"/>
        <pt x="33" y="101" on="1"/>
        <pt x="33" y="102" on="0"/>
        <pt x="38" y="105" on="0"/>
        <pt x="39" y="106" on="1"/>
        <pt x="47" y="112" on="0"/>
        <pt x="54" y="123" on="0"/>
        <pt x="54" y="133" on="1"/>
        <pt x="54" y="142" on="0"/>
        <pt x="29" y="158" on="0"/>
        <pt x="22" y="166" on="1"/>
        <pt x="13" y="177" on="0"/>
        <pt x="10" y="212" on="0"/>
        <pt x="10" y="226" on="1"/>
        <pt x="10" y="234" on="0"/>
        <pt x="10" y="239" on="1"/>
        <pt x="10" y="245" on="0"/>
        <pt x="16" y="250" on="1"/>
        <pt x="17" y="251" on="0"/>
        <pt x="27" y="259" on="0"/>
        <pt x="38" y="268" on="0"/>
        <pt x="48" y="276" on="0"/>
        <pt x="49" y="277" on="1"/>
        <pt x="52" y="280" on="0"/>
        <pt x="52" y="284" on="1"/>
        <pt x="52" y="309" on="0"/>
        <pt x="33" y="355" on="0"/>
        <pt x="33" y="380" on="1"/>
        <pt x="33" y="385" on="0"/>
        <pt x="34" y="393" on="0"/>
        <pt x="37" y="397" on="1"/>
        <pt x="37" y="416" on="1"/>
        <pt x="37" y="435" on="1"/>
        <pt x="36" y="447" on="0"/>
        <pt x="34" y="484" on="0"/>
        <pt x="31" y="518" on="0"/>
        <pt x="29" y="544" on="1"/>
        <pt x="18" y="557" on="1"/>
        <pt x="18" y="559" on="1"/>
        <pt x="18" y="569" on="0"/>
        <pt x="26" y="586" on="0"/>
        <pt x="37" y="603" on="0"/>
        <pt x="45" y="622" on="0"/>
        <pt x="45" y="633" on="1"/>
        <pt x="45" y="644" on="0"/>
        <pt x="43" y="645" on="0"/>
        <pt x="43" y="646" on="1"/>
        <pt x="41" y="648" on="0"/>
        <pt x="33" y="660" on="0"/>
        <pt x="31" y="662" on="1"/>
        <pt x="31" y="665" on="1"/>
        <pt x="31" y="669" on="0"/>
        <pt x="42" y="687" on="0"/>
        <pt x="55" y="705" on="0"/>
        <pt x="67" y="718" on="0"/>
        <pt x="68" y="718" on="1"/>
        <pt x="93" y="718" on="1"/>
        <pt x="95" y="718" on="0"/>
        <pt x="105" y="699" on="0"/>
        <pt x="120" y="697" on="1"/>
        <pt x="140" y="697" on="1"/>
        <pt x="161" y="697" on="1"/>
        <pt x="164" y="697" on="0"/>
        <pt x="181" y="699" on="0"/>
        <pt x="201" y="700" on="0"/>
        <pt x="218" y="701" on="0"/>
        <pt x="221" y="701" on="1"/>
        <pt x="238" y="705" on="0"/>
        <pt x="267" y="720" on="0"/>
        <pt x="281" y="730" on="1"/>
        <pt x="282" y="730" on="0"/>
        <pt x="285" y="731" on="0"/>
        <pt x="286" y="731" on="1"/>
        <pt x="288" y="731" on="0"/>
        <pt x="301" y="728" on="0"/>
        <pt x="315" y="724" on="0"/>
        <pt x="326" y="720" on="0"/>
        <pt x="326" y="718" on="1"/>
        <pt x="326" y="687" on="1"/>
        <pt x="336" y="687" on="0"/>
        <pt x="356" y="696" on="0"/>
        <pt x="376" y="707" on="0"/>
        <pt x="396" y="718" on="0"/>
        <pt x="407" y="720" on="1"/>
        <pt x="428" y="720" on="1"/>
        <pt x="453" y="720" on="0"/>
        <pt x="500" y="712" on="0"/>
        <pt x="525" y="712" on="1"/>
        <pt x="538" y="712" on="1"/>
        <pt x="548" y="718" on="0"/>
        <pt x="568" y="726" on="0"/>
        <pt x="580" y="726" on="1"/>
        <pt x="596" y="726" on="0"/>
        <pt x="627" y="717" on="0"/>
        <pt x="658" y="705" on="0"/>
        <pt x="688" y="694" on="0"/>
        <pt x="705" y="693" on="1"/>
        <pt x="705" y="678" on="1"/>
        <pt x="705" y="652" on="0"/>
        <pt x="692" y="605" on="0"/>
        <pt x="692" y="580" on="1"/>
        <pt x="692" y="576" on="0"/>
        <pt x="692" y="569" on="1"/>
        <pt x="692" y="562" on="0"/>
        <pt x="694" y="547" on="0"/>
        <pt x="699" y="535" on="0"/>
        <pt x="705" y="534" on="1"/>
        <pt x="705" y="532" on="0"/>
        <pt x="706" y="518" on="0"/>
        <pt x="706" y="516" on="1"/>
        <pt x="706" y="513" on="0"/>
        <pt x="705" y="500" on="0"/>
        <pt x="705" y="499" on="1"/>
        <pt x="705" y="493" on="0"/>
        <pt x="702" y="466" on="0"/>
        <pt x="699" y="434" on="0"/>
        <pt x="696" y="407" on="0"/>
        <pt x="695" y="401" on="1"/>
        <pt x="691" y="393" on="0"/>
        <pt x="682" y="379" on="0"/>
        <pt x="682" y="370" on="1"/>
        <pt x="682" y="359" on="0"/>
        <pt x="695" y="340" on="0"/>
        <pt x="697" y="329" on="1"/>
        <pt x="697" y="327" on="0"/>
        <pt x="699" y="311" on="0"/>
        <pt x="701" y="293" on="0"/>
        <pt x="703" y="277" on="0"/>
        <pt x="703" y="275" on="1"/>
        <pt x="705" y="266" on="0"/>
        <pt x="712" y="246" on="0"/>
        <pt x="720" y="240" on="1"/>
        <pt x="722" y="227" on="0"/>
        <pt x="726" y="204" on="0"/>
        <pt x="726" y="192" on="1"/>
        <pt x="726" y="184" on="1"/>
        <pt x="691" y="145" on="1"/>
        <pt x="691" y="141" on="1"/>
        <pt x="691" y="116" on="0"/>
        <pt x="703" y="70" on="0"/>
        <pt x="703" y="46" on="1"/>
        <pt x="703" y="35" on="1"/>
        <pt x="694" y="24" on="0"/>
        <pt x="653" y="8" on="0"/>
        <pt x="638" y="8" on="1"/>
        <pt x="629" y="8" on="0"/>
        <pt x="620" y="25" on="0"/>
        <pt x="614" y="31" on="1"/>
        <pt x="609" y="36" on="0"/>
        <pt x="588" y="42" on="0"/>
        <pt x="581" y="42" on="1"/>
        <pt x="580" y="42" on="0"/>
        <pt x="576" y="41" on="0"/>
        <pt x="575" y="41" on="1"/>
        <pt x="574" y="38" on="0"/>
        <pt x="563" y="27" on="0"/>
        <pt x="549" y="17" on="0"/>
        <pt x="535" y="10" on="0"/>
        <pt x="532" y="10" on="1"/>
        <pt x="525" y="10" on="0"/>
        <pt x="501" y="12" on="0"/>
        <pt x="496" y="19" on="1"/>
        <pt x="489" y="30" on="0"/>
        <pt x="464" y="31" on="0"/>
        <pt x="452" y="31" on="1"/>
        <pt x="432" y="31" on="0"/>
        <pt x="393" y="21" on="0"/>
        <pt x="356" y="10" on="0"/>
        <pt x="318" y="0" on="0"/>
        <pt x="298" y="0" on="1"/>
        <pt x="287" y="0" on="1"/>
        <pt x="282" y="7" on="0"/>
        <pt x="268" y="14" on="0"/>
        <pt x="260" y="19" on="1"/>
        <pt x="258" y="20" on="0"/>
        <pt x="251" y="25" on="1"/>
        <pt x="251" y="41" on="0"/>
        <pt x="246" y="42" on="0"/>
        <pt x="244" y="41" on="1"/>
        <pt x="236" y="39" on="0"/>
        <pt x="209" y="32" on="0"/>
        <pt x="202" y="27" on="1"/>
        <pt x="197" y="22" on="0"/>
        <pt x="180" y="8" on="0"/>
        <pt x="172" y="8" on="1"/>
      </contour>
      <contour>
        <pt x="469" y="139" on="1"/>
        <pt x="480" y="139" on="0"/>
        <pt x="492" y="127" on="0"/>
        <pt x="502" y="124" on="1"/>
        <pt x="512" y="122" on="0"/>
        <pt x="518" y="122" on="1"/>
        <pt x="525" y="122" on="0"/>
        <pt x="536" y="122" on="1"/>
        <pt x="558" y="122" on="1"/>
        <pt x="562" y="122" on="0"/>
        <pt x="585" y="124" on="0"/>
        <pt x="610" y="126" on="0"/>
        <pt x="632" y="128" on="0"/>
        <pt x="637" y="128" on="1"/>
        <pt x="637" y="197" on="0"/>
        <pt x="633" y="200" on="0"/>
        <pt x="631" y="201" on="1"/>
        <pt x="626" y="203" on="0"/>
        <pt x="616" y="205" on="0"/>
        <pt x="611" y="205" on="1"/>
        <pt x="608" y="205" on="0"/>
        <pt x="603" y="198" on="0"/>
        <pt x="600" y="197" on="1"/>
        <pt x="598" y="196" on="0"/>
        <pt x="594" y="196" on="1"/>
        <pt x="590" y="196" on="0"/>
        <pt x="588" y="196" on="1"/>
        <pt x="578" y="196" on="0"/>
        <pt x="563" y="202" on="0"/>
        <pt x="552" y="203" on="1"/>
        <pt x="549" y="203" on="0"/>
        <pt x="525" y="204" on="0"/>
        <pt x="497" y="205" on="0"/>
        <pt x="472" y="207" on="0"/>
        <pt x="469" y="207" on="1"/>
        <pt x="467" y="207" on="0"/>
        <pt x="457" y="209" on="0"/>
        <pt x="455" y="209" on="1"/>
        <pt x="455" y="210" on="0"/>
        <pt x="449" y="219" on="0"/>
        <pt x="443" y="230" on="0"/>
        <pt x="438" y="240" on="1"/>
        <pt x="438" y="241" on="0"/>
        <pt x="431" y="247" on="0"/>
        <pt x="430" y="248" on="1"/>
        <pt x="426" y="253" on="0"/>
        <pt x="428" y="268" on="0"/>
        <pt x="424" y="273" on="1"/>
        <pt x="419" y="279" on="0"/>
        <pt x="413" y="279" on="1"/>
        <pt x="413" y="285" on="1"/>
        <pt x="413" y="293" on="0"/>
        <pt x="422" y="300" on="1"/>
        <pt x="429" y="300" on="0"/>
        <pt x="467" y="301" on="0"/>
        <pt x="488" y="301" on="1"/>
        <pt x="509" y="301" on="0"/>
        <pt x="546" y="302" on="0"/>
        <pt x="554" y="302" on="1"/>
        <pt x="560" y="302" on="0"/>
        <pt x="581" y="303" on="0"/>
        <pt x="603" y="306" on="0"/>
        <pt x="623" y="311" on="0"/>
        <pt x="629" y="315" on="1"/>
        <pt x="627" y="328" on="0"/>
        <pt x="627" y="336" on="1"/>
        <pt x="627" y="344" on="0"/>
        <pt x="627" y="355" on="1"/>
        <pt x="627" y="364" on="1"/>
        <pt x="627" y="365" on="0"/>
        <pt x="629" y="373" on="0"/>
        <pt x="629" y="375" on="0"/>
        <pt x="627" y="385" on="0"/>
        <pt x="627" y="387" on="1"/>
        <pt x="626" y="389" on="0"/>
        <pt x="623" y="404" on="0"/>
        <pt x="622" y="406" on="1"/>
        <pt x="591" y="406" on="1"/>
        <pt x="580" y="406" on="0"/>
        <pt x="543" y="407" on="0"/>
        <pt x="533" y="396" on="1"/>
        <pt x="465" y="396" on="1"/>
        <pt x="460" y="390" on="0"/>
        <pt x="450" y="383" on="0"/>
        <pt x="442" y="383" on="1"/>
        <pt x="437" y="383" on="0"/>
        <pt x="434" y="386" on="0"/>
        <pt x="430" y="396" on="0"/>
        <pt x="418" y="403" on="0"/>
        <pt x="416" y="408" on="1"/>
        <pt x="407" y="435" on="1"/>
        <pt x="401" y="438" on="0"/>
        <pt x="398" y="449" on="0"/>
        <pt x="396" y="463" on="0"/>
        <pt x="393" y="475" on="0"/>
        <pt x="387" y="478" on="1"/>
        <pt x="387" y="501" on="1"/>
        <pt x="393" y="507" on="1"/>
        <pt x="413" y="524" on="0"/>
        <pt x="456" y="532" on="0"/>
        <pt x="483" y="532" on="1"/>
        <pt x="489" y="532" on="0"/>
        <pt x="496" y="526" on="0"/>
        <pt x="503" y="518" on="0"/>
        <pt x="510" y="510" on="0"/>
        <pt x="515" y="509" on="1"/>
        <pt x="532" y="508" on="0"/>
        <pt x="558" y="507" on="0"/>
        <pt x="573" y="507" on="1"/>
        <pt x="581" y="507" on="1"/>
        <pt x="583" y="511" on="0"/>
        <pt x="597" y="516" on="0"/>
        <pt x="611" y="517" on="0"/>
        <pt x="622" y="518" on="0"/>
        <pt x="622" y="519" on="1"/>
        <pt x="622" y="557" on="1"/>
        <pt x="620" y="560" on="0"/>
        <pt x="617" y="567" on="0"/>
        <pt x="616" y="571" on="1"/>
        <pt x="616" y="574" on="0"/>
        <pt x="615" y="586" on="0"/>
        <pt x="614" y="600" on="0"/>
        <pt x="612" y="612" on="0"/>
        <pt x="612" y="615" on="1"/>
        <pt x="612" y="617" on="0"/>
        <pt x="610" y="633" on="0"/>
        <pt x="605" y="633" on="1"/>
        <pt x="598" y="633" on="0"/>
        <pt x="586" y="623" on="0"/>
        <pt x="579" y="621" on="1"/>
        <pt x="546" y="608" on="0"/>
        <pt x="511" y="608" on="1"/>
        <pt x="493" y="608" on="0"/>
        <pt x="458" y="611" on="0"/>
        <pt x="440" y="611" on="1"/>
        <pt x="414" y="611" on="0"/>
        <pt x="366" y="602" on="0"/>
        <pt x="340" y="602" on="1"/>
        <pt x="312" y="602" on="1"/>
        <pt x="303" y="604" on="0"/>
        <pt x="295" y="613" on="0"/>
        <pt x="287" y="621" on="1"/>
        <pt x="284" y="621" on="1"/>
        <pt x="273" y="621" on="0"/>
        <pt x="255" y="594" on="0"/>
        <pt x="248" y="586" on="1"/>
        <pt x="247" y="584" on="0"/>
        <pt x="241" y="575" on="0"/>
        <pt x="240" y="573" on="1"/>
        <pt x="239" y="572" on="0"/>
        <pt x="234" y="561" on="0"/>
        <pt x="227" y="549" on="0"/>
        <pt x="222" y="537" on="0"/>
        <pt x="221" y="536" on="1"/>
        <pt x="217" y="529" on="0"/>
        <pt x="213" y="526" on="1"/>
        <pt x="208" y="521" on="0"/>
        <pt x="200" y="519" on="0"/>
        <pt x="194" y="517" on="1"/>
        <pt x="189" y="515" on="0"/>
        <pt x="185" y="505" on="0"/>
        <pt x="180" y="503" on="1"/>
        <pt x="179" y="501" on="0"/>
        <pt x="178" y="486" on="0"/>
        <pt x="178" y="484" on="1"/>
        <pt x="178" y="482" on="1"/>
        <pt x="178" y="477" on="0"/>
        <pt x="184" y="469" on="0"/>
        <pt x="184" y="464" on="1"/>
        <pt x="184" y="461" on="0"/>
        <pt x="182" y="450" on="0"/>
        <pt x="180" y="438" on="0"/>
        <pt x="177" y="429" on="0"/>
        <pt x="176" y="428" on="1"/>
        <pt x="175" y="425" on="0"/>
        <pt x="176" y="403" on="0"/>
        <pt x="178" y="399" on="1"/>
        <pt x="181" y="387" on="0"/>
        <pt x="192" y="374" on="0"/>
        <pt x="192" y="362" on="1"/>
        <pt x="192" y="345" on="0"/>
        <pt x="184" y="305" on="0"/>
        <pt x="176" y="290" on="1"/>
        <pt x="174" y="288" on="0"/>
        <pt x="167" y="271" on="0"/>
        <pt x="165" y="269" on="1"/>
        <pt x="167" y="267" on="0"/>
        <pt x="163" y="263" on="0"/>
        <pt x="161" y="263" on="1"/>
        <pt x="149" y="250" on="0"/>
        <pt x="145" y="217" on="0"/>
        <pt x="142" y="201" on="1"/>
        <pt x="142" y="199" on="0"/>
        <pt x="141" y="195" on="0"/>
        <pt x="140" y="195" on="1"/>
        <pt x="122" y="174" on="1"/>
        <pt x="111" y="172" on="0"/>
        <pt x="103" y="155" on="0"/>
        <pt x="103" y="146" on="1"/>
        <pt x="103" y="138" on="0"/>
        <pt x="107" y="140" on="0"/>
        <pt x="113" y="137" on="1"/>
        <pt x="116" y="135" on="0"/>
        <pt x="116" y="134" on="1"/>
        <pt x="116" y="133" on="0"/>
        <pt x="116" y="132" on="1"/>
        <pt x="116" y="131" on="0"/>
        <pt x="119" y="130" on="0"/>
        <pt x="124" y="130" on="1"/>
        <pt x="130" y="130" on="0"/>
        <pt x="136" y="139" on="0"/>
        <pt x="141" y="139" on="1"/>
        <pt x="142" y="139" on="1"/>
        <pt x="144" y="138" on="0"/>
        <pt x="154" y="133" on="0"/>
        <pt x="155" y="132" on="1"/>
        <pt x="156" y="132" on="0"/>
        <pt x="161" y="130" on="1"/>
        <pt x="200" y="130" on="1"/>
        <pt x="202" y="132" on="0"/>
        <pt x="210" y="142" on="0"/>
        <pt x="215" y="143" on="1"/>
        <pt x="215" y="195" on="1"/>
        <pt x="215" y="196" on="0"/>
        <pt x="218" y="201" on="0"/>
        <pt x="219" y="203" on="1"/>
        <pt x="221" y="205" on="0"/>
        <pt x="235" y="217" on="0"/>
        <pt x="237" y="219" on="1"/>
        <pt x="237" y="242" on="1"/>
        <pt x="242" y="246" on="0"/>
        <pt x="245" y="262" on="0"/>
        <pt x="246" y="267" on="1"/>
        <pt x="248" y="271" on="0"/>
        <pt x="263" y="275" on="0"/>
        <pt x="267" y="275" on="1"/>
        <pt x="313" y="275" on="1"/>
        <pt x="313" y="273" on="0"/>
        <pt x="309" y="265" on="0"/>
        <pt x="310" y="263" on="1"/>
        <pt x="310" y="262" on="0"/>
        <pt x="318" y="259" on="1"/>
        <pt x="320" y="257" on="0"/>
        <pt x="329" y="253" on="0"/>
        <pt x="329" y="252" on="1"/>
        <pt x="339" y="149" on="1"/>
        <pt x="355" y="147" on="0"/>
        <pt x="372" y="143" on="1"/>
        <pt x="376" y="141" on="0"/>
        <pt x="378" y="135" on="0"/>
        <pt x="380" y="130" on="0"/>
        <pt x="386" y="126" on="0"/>
        <pt x="395" y="126" on="1"/>
        <pt x="403" y="126" on="1"/>
        <pt x="463" y="139" on="1"/>
        <pt x="469" y="139" on="1"/>
      </contour>
      <contour>
        <pt x="268" y="382" on="1"/>
        <pt x="268" y="383" on="0"/>
        <pt x="269" y="388" on="0"/>
        <pt x="269" y="389" on="1"/>
        <pt x="271" y="390" on="0"/>
        <pt x="279" y="393" on="0"/>
        <pt x="279" y="397" on="1"/>
        <pt x="279" y="401" on="0"/>
        <pt x="280" y="423" on="0"/>
        <pt x="281" y="426" on="1"/>
        <pt x="281" y="428" on="0"/>
        <pt x="285" y="437" on="0"/>
        <pt x="285" y="439" on="1"/>
        <pt x="285" y="444" on="1"/>
        <pt x="285" y="452" on="0"/>
        <pt x="279" y="466" on="0"/>
        <pt x="279" y="474" on="1"/>
        <pt x="296" y="474" on="1"/>
        <pt x="300" y="466" on="0"/>
        <pt x="307" y="466" on="1"/>
        <pt x="307" y="449" on="1"/>
        <pt x="307" y="445" on="0"/>
        <pt x="321" y="447" on="0"/>
        <pt x="320" y="441" on="1"/>
        <pt x="320" y="438" on="0"/>
        <pt x="321" y="423" on="0"/>
        <pt x="322" y="407" on="0"/>
        <pt x="322" y="399" on="1"/>
        <pt x="322" y="392" on="0"/>
        <pt x="322" y="389" on="1"/>
        <pt x="322" y="382" on="1"/>
        <pt x="322" y="375" on="1"/>
        <pt x="318" y="369" on="0"/>
        <pt x="296" y="352" on="0"/>
        <pt x="287" y="352" on="1"/>
        <pt x="279" y="352" on="0"/>
        <pt x="268" y="375" on="0"/>
      </contour>
    </TTGlyph>
    <TTGlyph name="A" xMin="20" yMin="1" xMax="576" yMax="694">
      <contour>
        <pt x="500" y="694" on="1"/>
        <pt x="530" y="694" on="1"/>
        <pt x="560" y="685" on="1"/>
        <pt x="576" y="678" on="0"/>
        <pt x="576" y="669" on="1"/>
        <pt x="576" y="26" on="1"/>
        <pt x="576" y="13" on="0"/>
        <pt x="528" y="1" on="0"/>
        <pt x="508" y="1" on="1"/>
        <pt x="486" y="1" on="0"/>
        <pt x="462" y="7" on="1"/>
        <pt x="438" y="14" on="0"/>
        <pt x="438" y="26" on="1"/>
        <pt x="438" y="306" on="1"/>
        <pt x="406" y="306" on="0"/>
        <pt x="376" y="300" on="1"/>
        <pt x="322" y="287" on="1"/>
        <pt x="241" y="263" on="0"/>
        <pt x="160" y="188" on="0"/>
        <pt x="160" y="146" on="1"/>
        <pt x="160" y="122" on="1"/>
        <pt x="158" y="111" on="0"/>
        <pt x="158" y="102" on="1"/>
        <pt x="158" y="94" on="0"/>
        <pt x="158" y="85" on="1"/>
        <pt x="158" y="48" on="1"/>
        <pt x="158" y="24" on="1"/>
        <pt x="149" y="10" on="0"/>
        <pt x="112" y="1" on="0"/>
        <pt x="88" y="1" on="1"/>
        <pt x="74" y="1" on="0"/>
        <pt x="54" y="5" on="0"/>
        <pt x="42" y="8" on="1"/>
        <pt x="20" y="15" on="0"/>
        <pt x="20" y="30" on="1"/>
        <pt x="20" y="273" on="1"/>
        <pt x="20" y="288" on="1"/>
        <pt x="24" y="296" on="0"/>
        <pt x="24" y="314" on="1"/>
        <pt x="28" y="323" on="0"/>
        <pt x="28" y="341" on="1"/>
        <pt x="32" y="350" on="0"/>
        <pt x="32" y="361" on="1"/>
        <pt x="37" y="377" on="0"/>
        <pt x="53" y="430" on="0"/>
        <pt x="60" y="446" on="1"/>
        <pt x="76" y="480" on="0"/>
        <pt x="124" y="546" on="0"/>
        <pt x="191" y="604" on="0"/>
        <pt x="280" y="652" on="0"/>
        <pt x="338" y="669" on="1"/>
        <pt x="360" y="675" on="0"/>
        <pt x="399" y="685" on="0"/>
        <pt x="437" y="691" on="0"/>
        <pt x="476" y="694" on="0"/>
      </contour>
      <contour>
        <pt x="436" y="614" on="1"/>
        <pt x="361" y="598" on="0"/>
        <pt x="266" y="532" on="0"/>
        <pt x="236" y="493" on="1"/>
        <pt x="219" y="472" on="0"/>
        <pt x="198" y="434" on="0"/>
        <pt x="190" y="411" on="1"/>
        <pt x="182" y="392" on="0"/>
        <pt x="171" y="354" on="0"/>
        <pt x="168" y="336" on="1"/>
        <pt x="168" y="329" on="1"/>
        <pt x="168" y="322" on="1"/>
        <pt x="225" y="344" on="0"/>
        <pt x="351" y="369" on="0"/>
        <pt x="424" y="379" on="1"/>
        <pt x="430" y="380" on="1"/>
        <pt x="436" y="381" on="1"/>
      </contour>
    </TTGlyph>
    <TTGlyph name="AE" xMin="20" yMin="1" xMax="992" yMax="695">
      <contour>
        <pt x="496" y="695" on="1"/>
        <pt x="526" y="695" on="1"/>
        <pt x="556" y="686" on="1"/>
        <pt x="574" y="678" on="0"/>
        <pt x="574" y="671" on="1"/>
        <pt x="574" y="579" on="1"/>
        <pt x="580" y="581" on="1"/>
        <pt x="591" y="589" on="0"/>
        <pt x="602" y="597" on="0"/>
        <pt x="603" y="598" on="1"/>
        <pt x="608" y="601" on="0"/>
        <pt x="628" y="613" on="0"/>
        <pt x="660" y="629" on="0"/>
        <pt x="680" y="640" on="0"/>
        <pt x="684" y="642" on="1"/>
        <pt x="692" y="646" on="0"/>
        <pt x="711" y="653" on="0"/>
        <pt x="722" y="658" on="1"/>
        <pt x="808" y="695" on="0"/>
        <pt x="916" y="695" on="1"/>
        <pt x="946" y="695" on="1"/>
        <pt x="992" y="683" on="0"/>
        <pt x="992" y="661" on="1"/>
        <pt x="992" y="646" on="0"/>
        <pt x="967" y="632" on="0"/>
        <pt x="941" y="628" on="0"/>
        <pt x="920" y="624" on="0"/>
        <pt x="908" y="624" on="1"/>
        <pt x="866" y="618" on="1"/>
        <pt x="803" y="603" on="0"/>
        <pt x="756" y="579" on="1"/>
        <pt x="733" y="568" on="0"/>
        <pt x="695" y="540" on="0"/>
        <pt x="680" y="525" on="1"/>
        <pt x="649" y="495" on="0"/>
        <pt x="611" y="425" on="0"/>
        <pt x="600" y="397" on="1"/>
        <pt x="598" y="395" on="0"/>
        <pt x="598" y="389" on="1"/>
        <pt x="592" y="373" on="1"/>
        <pt x="588" y="366" on="0"/>
        <pt x="588" y="354" on="1"/>
        <pt x="587" y="352" on="0"/>
        <pt x="585" y="345" on="0"/>
        <pt x="584" y="340" on="1"/>
        <pt x="584" y="336" on="1"/>
        <pt x="632" y="349" on="1"/>
        <pt x="678" y="362" on="1"/>
        <pt x="718" y="371" on="0"/>
        <pt x="736" y="374" on="1"/>
        <pt x="755" y="377" on="0"/>
        <pt x="782" y="377" on="1"/>
        <pt x="784" y="377" on="0"/>
        <pt x="808" y="378" on="0"/>
        <pt x="852" y="380" on="0"/>
        <pt x="883" y="381" on="0"/>
        <pt x="892" y="381" on="1"/>
        <pt x="946" y="381" on="1"/>
        <pt x="968" y="378" on="0"/>
        <pt x="980" y="369" on="1"/>
        <pt x="992" y="358" on="0"/>
        <pt x="992" y="348" on="1"/>
        <pt x="989" y="329" on="0"/>
        <pt x="952" y="314" on="0"/>
        <pt x="920" y="311" on="1"/>
        <pt x="918" y="311" on="0"/>
        <pt x="911" y="310" on="0"/>
        <pt x="906" y="309" on="1"/>
        <pt x="883" y="309" on="1"/>
        <pt x="860" y="309" on="1"/>
        <pt x="804" y="307" on="1"/>
        <pt x="724" y="293" on="1"/>
        <pt x="684" y="284" on="0"/>
        <pt x="617" y="254" on="0"/>
        <pt x="596" y="236" on="1"/>
        <pt x="576" y="216" on="0"/>
        <pt x="576" y="195" on="1"/>
        <pt x="576" y="136" on="1"/>
        <pt x="579" y="104" on="0"/>
        <pt x="659" y="71" on="0"/>
        <pt x="716" y="71" on="1"/>
        <pt x="784" y="71" on="0"/>
        <pt x="809" y="87" on="1"/>
        <pt x="835" y="104" on="0"/>
        <pt x="844" y="122" on="1"/>
        <pt x="848" y="129" on="0"/>
        <pt x="860" y="150" on="0"/>
        <pt x="866" y="158" on="1"/>
        <pt x="881" y="174" on="0"/>
        <pt x="924" y="174" on="1"/>
        <pt x="959" y="174" on="0"/>
        <pt x="974" y="162" on="1"/>
        <pt x="992" y="150" on="0"/>
        <pt x="992" y="135" on="1"/>
        <pt x="992" y="94" on="0"/>
        <pt x="950" y="61" on="1"/>
        <pt x="928" y="43" on="0"/>
        <pt x="873" y="20" on="0"/>
        <pt x="836" y="11" on="1"/>
        <pt x="802" y="4" on="1"/>
        <pt x="768" y="1" on="1"/>
        <pt x="658" y="1" on="1"/>
        <pt x="646" y="1" on="0"/>
        <pt x="625" y="5" on="0"/>
        <pt x="610" y="9" on="1"/>
        <pt x="596" y="13" on="0"/>
        <pt x="582" y="15" on="0"/>
        <pt x="568" y="15" on="1"/>
        <pt x="546" y="8" on="1"/>
        <pt x="533" y="1" on="0"/>
        <pt x="502" y="1" on="1"/>
        <pt x="490" y="1" on="0"/>
        <pt x="469" y="5" on="0"/>
        <pt x="456" y="8" on="1"/>
        <pt x="434" y="15" on="0"/>
        <pt x="434" y="28" on="1"/>
        <pt x="434" y="306" on="1"/>
        <pt x="387" y="306" on="0"/>
        <pt x="336" y="293" on="1"/>
        <pt x="286" y="279" on="0"/>
        <pt x="209" y="240" on="0"/>
        <pt x="184" y="215" on="1"/>
        <pt x="160" y="189" on="0"/>
        <pt x="160" y="166" on="1"/>
        <pt x="160" y="32" on="1"/>
        <pt x="157" y="22" on="0"/>
        <pt x="144" y="12" on="1"/>
        <pt x="127" y="1" on="0"/>
        <pt x="110" y="1" on="1"/>
        <pt x="64" y="1" on="1"/>
        <pt x="49" y="3" on="0"/>
        <pt x="20" y="17" on="0"/>
        <pt x="20" y="23" on="1"/>
        <pt x="20" y="305" on="1"/>
        <pt x="20" y="317" on="1"/>
        <pt x="24" y="324" on="0"/>
        <pt x="24" y="337" on="1"/>
        <pt x="28" y="344" on="0"/>
        <pt x="28" y="358" on="1"/>
        <pt x="29" y="360" on="0"/>
        <pt x="31" y="368" on="0"/>
        <pt x="32" y="373" on="1"/>
        <pt x="34" y="381" on="0"/>
        <pt x="40" y="395" on="0"/>
        <pt x="42" y="403" on="1"/>
        <pt x="53" y="439" on="0"/>
        <pt x="60" y="453" on="1"/>
        <pt x="73" y="475" on="0"/>
        <pt x="99" y="515" on="0"/>
        <pt x="112" y="531" on="1"/>
        <pt x="145" y="568" on="0"/>
        <pt x="190" y="602" on="1"/>
        <pt x="239" y="635" on="0"/>
        <pt x="306" y="660" on="1"/>
        <pt x="348" y="675" on="0"/>
        <pt x="396" y="684" on="1"/>
        <pt x="445" y="695" on="0"/>
      </contour>
      <contour>
        <pt x="432" y="614" on="1"/>
        <pt x="402" y="607" on="1"/>
        <pt x="376" y="597" on="1"/>
        <pt x="292" y="557" on="0"/>
        <pt x="203" y="462" on="0"/>
        <pt x="184" y="405" on="1"/>
        <pt x="178" y="386" on="1"/>
        <pt x="172" y="363" on="1"/>
        <pt x="168" y="356" on="0"/>
        <pt x="168" y="343" on="1"/>
        <pt x="166" y="332" on="1"/>
        <pt x="168" y="322" on="1"/>
        <pt x="242" y="346" on="1"/>
        <pt x="269" y="356" on="0"/>
        <pt x="280" y="358" on="1"/>
        <pt x="287" y="360" on="0"/>
        <pt x="308" y="364" on="0"/>
        <pt x="322" y="366" on="1"/>
        <pt x="360" y="371" on="1"/>
        <pt x="408" y="378" on="1"/>
        <pt x="432" y="381" on="1"/>
      </contour>
    </TTGlyph>
    <TTGlyph name="B" xMin="20" yMin="1" xMax="572" yMax="694">
      <contour>
        <pt x="90" y="694" on="1"/>
        <pt x="100" y="693" on="0"/>
        <pt x="106" y="693" on="1"/>
        <pt x="112" y="693" on="0"/>
        <pt x="122" y="691" on="0"/>
        <pt x="137" y="685" on="0"/>
        <pt x="150" y="678" on="1"/>
        <pt x="154" y="678" on="1"/>
        <pt x="165" y="681" on="0"/>
        <pt x="180" y="684" on="0"/>
        <pt x="194" y="686" on="0"/>
        <pt x="210" y="688" on="0"/>
        <pt x="222" y="689" on="1"/>
        <pt x="240" y="692" on="0"/>
        <pt x="277" y="694" on="0"/>
        <pt x="296" y="694" on="1"/>
        <pt x="399" y="694" on="0"/>
        <pt x="476" y="663" on="1"/>
        <pt x="554" y="631" on="0"/>
        <pt x="572" y="582" on="1"/>
        <pt x="572" y="552" on="1"/>
        <pt x="572" y="483" on="0"/>
        <pt x="466" y="384" on="0"/>
        <pt x="352" y="348" on="1"/>
        <pt x="467" y="311" on="0"/>
        <pt x="572" y="210" on="0"/>
        <pt x="572" y="143" on="1"/>
        <pt x="572" y="113" on="1"/>
        <pt x="554" y="61" on="0"/>
        <pt x="398" y="1" on="0"/>
        <pt x="296" y="1" on="1"/>
        <pt x="254" y="1" on="1"/>
        <pt x="202" y="7" on="1"/>
        <pt x="154" y="17" on="1"/>
        <pt x="150" y="17" on="1"/>
        <pt x="132" y="7" on="0"/>
        <pt x="110" y="1" on="0"/>
        <pt x="90" y="1" on="1"/>
        <pt x="74" y="1" on="0"/>
        <pt x="55" y="4" on="0"/>
        <pt x="44" y="6" on="1"/>
        <pt x="20" y="12" on="0"/>
        <pt x="20" y="24" on="1"/>
        <pt x="20" y="671" on="1"/>
        <pt x="20" y="684" on="0"/>
        <pt x="39" y="688" on="1"/>
        <pt x="59" y="692" on="0"/>
        <pt x="81" y="694" on="0"/>
      </contour>
      <contour>
        <pt x="160" y="307" on="1"/>
        <pt x="160" y="124" on="1"/>
        <pt x="162" y="103" on="0"/>
        <pt x="215" y="79" on="0"/>
        <pt x="250" y="74" on="1"/>
        <pt x="296" y="71" on="1"/>
        <pt x="368" y="71" on="0"/>
        <pt x="432" y="110" on="0"/>
        <pt x="432" y="144" on="1"/>
        <pt x="432" y="196" on="0"/>
        <pt x="334" y="279" on="0"/>
        <pt x="232" y="297" on="1"/>
        <pt x="198" y="303" on="1"/>
        <pt x="195" y="304" on="0"/>
        <pt x="186" y="305" on="0"/>
        <pt x="181" y="307" on="1"/>
      </contour>
      <contour>
        <pt x="296" y="624" on="1"/>
        <pt x="250" y="620" on="1"/>
        <pt x="209" y="612" on="0"/>
        <pt x="160" y="589" on="0"/>
        <pt x="160" y="571" on="1"/>
        <pt x="160" y="388" on="1"/>
        <pt x="198" y="392" on="1"/>
        <pt x="232" y="398" on="1"/>
        <pt x="337" y="417" on="0"/>
        <pt x="432" y="500" on="0"/>
        <pt x="432" y="551" on="1"/>
        <pt x="432" y="585" on="0"/>
        <pt x="369" y="624" on="0"/>
      </contour>
    </TTGlyph>
    <TTGlyph name="C" xMin="20" yMin="1" xMax="576" yMax="694">
      <contour>
        <pt x="500" y="694" on="1"/>
        <pt x="530" y="694" on="1"/>
        <pt x="553" y="689" on="0"/>
        <pt x="564" y="681" on="1"/>
        <pt x="576" y="670" on="0"/>
        <pt x="576" y="660" on="1"/>
        <pt x="576" y="637" on="0"/>
        <pt x="546" y="633" on="1"/>
        <pt x="486" y="624" on="1"/>
        <pt x="424" y="616" on="0"/>
        <pt x="330" y="579" on="0"/>
        <pt x="261" y="528" on="0"/>
        <pt x="215" y="468" on="0"/>
        <pt x="200" y="438" on="1"/>
        <pt x="180" y="401" on="0"/>
        <pt x="172" y="361" on="1"/>
        <pt x="170" y="355" on="0"/>
        <pt x="170" y="344" on="1"/>
        <pt x="166" y="337" on="0"/>
        <pt x="166" y="321" on="1"/>
        <pt x="162" y="313" on="0"/>
        <pt x="162" y="299" on="1"/>
        <pt x="160" y="287" on="1"/>
        <pt x="160" y="132" on="1"/>
        <pt x="160" y="101" on="0"/>
        <pt x="246" y="71" on="0"/>
        <pt x="298" y="71" on="1"/>
        <pt x="367" y="71" on="0"/>
        <pt x="392" y="87" on="1"/>
        <pt x="420" y="106" on="0"/>
        <pt x="437" y="138" on="0"/>
        <pt x="439" y="141" on="1"/>
        <pt x="442" y="146" on="0"/>
        <pt x="448" y="154" on="0"/>
        <pt x="450" y="157" on="1"/>
        <pt x="465" y="173" on="0"/>
        <pt x="508" y="173" on="1"/>
        <pt x="537" y="173" on="0"/>
        <pt x="576" y="152" on="0"/>
        <pt x="576" y="137" on="1"/>
        <pt x="576" y="98" on="0"/>
        <pt x="493" y="28" on="0"/>
        <pt x="420" y="11" on="1"/>
        <pt x="386" y="4" on="1"/>
        <pt x="352" y="1" on="1"/>
        <pt x="244" y="1" on="1"/>
        <pt x="200" y="1" on="0"/>
        <pt x="119" y="25" on="0"/>
        <pt x="57" y="61" on="0"/>
        <pt x="20" y="104" on="0"/>
        <pt x="20" y="124" on="1"/>
        <pt x="20" y="293" on="1"/>
        <pt x="22" y="295" on="0"/>
        <pt x="22" y="308" on="1"/>
        <pt x="26" y="316" on="0"/>
        <pt x="26" y="334" on="1"/>
        <pt x="30" y="343" on="0"/>
        <pt x="30" y="362" on="1"/>
        <pt x="36" y="383" on="1"/>
        <pt x="48" y="426" on="0"/>
        <pt x="91" y="511" on="0"/>
        <pt x="126" y="547" on="1"/>
        <pt x="164" y="587" on="0"/>
        <pt x="275" y="653" on="0"/>
        <pt x="348" y="673" on="1"/>
        <pt x="384" y="684" on="0"/>
        <pt x="462" y="694" on="0"/>
      </contour>
    </TTGlyph>
    <TTGlyph name="D" xMin="20" yMin="1" xMax="576" yMax="694">
      <contour>
        <pt x="66" y="694" on="1"/>
        <pt x="96" y="694" on="1"/>
        <pt x="119" y="694" on="0"/>
        <pt x="168" y="689" on="0"/>
        <pt x="216" y="681" on="0"/>
        <pt x="260" y="669" on="0"/>
        <pt x="278" y="663" on="1"/>
        <pt x="343" y="637" on="0"/>
        <pt x="438" y="577" on="0"/>
        <pt x="505" y="510" on="0"/>
        <pt x="545" y="436" on="0"/>
        <pt x="556" y="397" on="1"/>
        <pt x="562" y="373" on="1"/>
        <pt x="568" y="356" on="0"/>
        <pt x="568" y="340" on="1"/>
        <pt x="574" y="323" on="0"/>
        <pt x="574" y="310" on="1"/>
        <pt x="576" y="293" on="1"/>
        <pt x="576" y="124" on="1"/>
        <pt x="573" y="102" on="0"/>
        <pt x="556" y="82" on="1"/>
        <pt x="535" y="61" on="0"/>
        <pt x="505" y="42" on="1"/>
        <pt x="476" y="25" on="0"/>
        <pt x="392" y="1" on="0"/>
        <pt x="352" y="1" on="1"/>
        <pt x="244" y="1" on="1"/>
        <pt x="230" y="1" on="0"/>
        <pt x="210" y="5" on="0"/>
        <pt x="182" y="13" on="0"/>
        <pt x="168" y="15" on="0"/>
        <pt x="154" y="15" on="1"/>
        <pt x="150" y="15" on="1"/>
        <pt x="147" y="13" on="0"/>
        <pt x="139" y="9" on="0"/>
        <pt x="129" y="5" on="0"/>
        <pt x="110" y="1" on="0"/>
        <pt x="102" y="1" on="1"/>
        <pt x="88" y="1" on="1"/>
        <pt x="74" y="1" on="0"/>
        <pt x="54" y="5" on="0"/>
        <pt x="42" y="8" on="1"/>
        <pt x="20" y="15" on="0"/>
        <pt x="20" y="30" on="1"/>
        <pt x="20" y="665" on="1"/>
        <pt x="27" y="682" on="0"/>
        <pt x="57" y="693" on="0"/>
      </contour>
      <contour>
        <pt x="160" y="614" on="1"/>
        <pt x="160" y="136" on="1"/>
        <pt x="163" y="104" on="0"/>
        <pt x="243" y="71" on="0"/>
        <pt x="300" y="71" on="1"/>
        <pt x="328" y="71" on="0"/>
        <pt x="371" y="79" on="0"/>
        <pt x="394" y="87" on="1"/>
        <pt x="436" y="103" on="0"/>
        <pt x="436" y="132" on="1"/>
        <pt x="436" y="289" on="1"/>
        <pt x="434" y="291" on="0"/>
        <pt x="434" y="301" on="1"/>
        <pt x="430" y="308" on="0"/>
        <pt x="430" y="322" on="1"/>
        <pt x="426" y="330" on="0"/>
        <pt x="426" y="345" on="1"/>
        <pt x="424" y="361" on="1"/>
        <pt x="419" y="378" on="0"/>
        <pt x="406" y="412" on="0"/>
        <pt x="398" y="429" on="1"/>
        <pt x="381" y="467" on="0"/>
        <pt x="350" y="505" on="1"/>
        <pt x="318" y="541" on="0"/>
        <pt x="223" y="603" on="0"/>
      </contour>
    </TTGlyph>
    <TTGlyph name="E" xMin="20" yMin="1" xMax="572" yMax="694">
      <contour>
        <pt x="496" y="694" on="1"/>
        <pt x="529" y="694" on="0"/>
        <pt x="550" y="686" on="1"/>
        <pt x="572" y="679" on="0"/>
        <pt x="572" y="661" on="1"/>
        <pt x="569" y="645" on="0"/>
        <pt x="540" y="630" on="0"/>
        <pt x="518" y="627" on="1"/>
        <pt x="470" y="620" on="1"/>
        <pt x="454" y="618" on="0"/>
        <pt x="432" y="614" on="0"/>
        <pt x="424" y="612" on="1"/>
        <pt x="313" y="578" on="0"/>
        <pt x="256" y="516" on="1"/>
        <pt x="241" y="501" on="0"/>
        <pt x="220" y="472" on="0"/>
        <pt x="210" y="455" on="1"/>
        <pt x="191" y="421" on="0"/>
        <pt x="180" y="393" on="1"/>
        <pt x="172" y="367" on="1"/>
        <pt x="168" y="360" on="0"/>
        <pt x="168" y="343" on="1"/>
        <pt x="168" y="336" on="1"/>
        <pt x="238" y="361" on="0"/>
        <pt x="386" y="381" on="0"/>
        <pt x="476" y="381" on="1"/>
        <pt x="530" y="381" on="1"/>
        <pt x="556" y="376" on="0"/>
        <pt x="562" y="368" on="1"/>
        <pt x="572" y="359" on="0"/>
        <pt x="572" y="348" on="1"/>
        <pt x="569" y="332" on="0"/>
        <pt x="545" y="318" on="0"/>
        <pt x="526" y="315" on="1"/>
        <pt x="511" y="311" on="0"/>
        <pt x="484" y="311" on="1"/>
        <pt x="438" y="310" on="1"/>
        <pt x="401" y="310" on="0"/>
        <pt x="318" y="297" on="0"/>
        <pt x="282" y="287" on="1"/>
        <pt x="210" y="266" on="0"/>
        <pt x="176" y="228" on="1"/>
        <pt x="172" y="220" on="1"/>
        <pt x="164" y="210" on="1"/>
        <pt x="162" y="206" on="1"/>
        <pt x="160" y="203" on="1"/>
        <pt x="160" y="128" on="1"/>
        <pt x="168" y="111" on="1"/>
        <pt x="184" y="97" on="1"/>
        <pt x="202" y="81" on="0"/>
        <pt x="260" y="71" on="0"/>
        <pt x="296" y="71" on="1"/>
        <pt x="341" y="71" on="0"/>
        <pt x="368" y="78" on="1"/>
        <pt x="394" y="87" on="0"/>
        <pt x="420" y="109" on="0"/>
        <pt x="426" y="122" on="1"/>
        <pt x="438" y="146" on="1"/>
        <pt x="445" y="153" on="0"/>
        <pt x="455" y="163" on="0"/>
        <pt x="460" y="165" on="1"/>
        <pt x="474" y="173" on="0"/>
        <pt x="504" y="173" on="1"/>
        <pt x="528" y="173" on="0"/>
        <pt x="566" y="161" on="0"/>
        <pt x="572" y="150" on="1"/>
        <pt x="572" y="134" on="1"/>
        <pt x="572" y="94" on="0"/>
        <pt x="486" y="26" on="0"/>
        <pt x="408" y="9" on="1"/>
        <pt x="376" y="4" on="1"/>
        <pt x="348" y="1" on="1"/>
        <pt x="244" y="1" on="1"/>
        <pt x="219" y="1" on="0"/>
        <pt x="192" y="7" on="1"/>
        <pt x="146" y="19" on="1"/>
        <pt x="100" y="36" on="1"/>
        <pt x="85" y="43" on="0"/>
        <pt x="73" y="51" on="0"/>
        <pt x="60" y="61" on="1"/>
        <pt x="30" y="89" on="1"/>
        <pt x="20" y="102" on="0"/>
        <pt x="20" y="118" on="1"/>
        <pt x="20" y="306" on="1"/>
        <pt x="20" y="317" on="1"/>
        <pt x="24" y="324" on="0"/>
        <pt x="24" y="336" on="1"/>
        <pt x="28" y="343" on="0"/>
        <pt x="28" y="357" on="1"/>
        <pt x="29" y="359" on="0"/>
        <pt x="31" y="368" on="0"/>
        <pt x="32" y="373" on="1"/>
        <pt x="44" y="415" on="0"/>
        <pt x="62" y="457" on="1"/>
        <pt x="76" y="484" on="0"/>
        <pt x="102" y="521" on="0"/>
        <pt x="120" y="541" on="1"/>
        <pt x="155" y="580" on="0"/>
        <pt x="264" y="649" on="0"/>
        <pt x="342" y="671" on="1"/>
        <pt x="374" y="680" on="0"/>
        <pt x="453" y="694" on="0"/>
      </contour>
    </TTGlyph>
    <TTGlyph name="F" xMin="20" yMin="1" xMax="576" yMax="694">
      <contour>
        <pt x="500" y="694" on="1"/>
        <pt x="530" y="694" on="1"/>
        <pt x="553" y="689" on="0"/>
        <pt x="564" y="681" on="1"/>
        <pt x="576" y="670" on="0"/>
        <pt x="576" y="660" on="1"/>
        <pt x="572" y="640" on="0"/>
        <pt x="519" y="624" on="0"/>
        <pt x="488" y="624" on="1"/>
        <pt x="450" y="618" on="1"/>
        <pt x="390" y="605" on="0"/>
        <pt x="346" y="582" on="1"/>
        <pt x="300" y="560" on="0"/>
        <pt x="270" y="531" on="1"/>
        <pt x="254" y="517" on="0"/>
        <pt x="230" y="488" on="0"/>
        <pt x="220" y="471" on="1"/>
        <pt x="210" y="457" on="0"/>
        <pt x="195" y="427" on="0"/>
        <pt x="188" y="410" on="1"/>
        <pt x="182" y="394" on="1"/>
        <pt x="180" y="390" on="0"/>
        <pt x="176" y="380" on="0"/>
        <pt x="174" y="373" on="1"/>
        <pt x="170" y="366" on="0"/>
        <pt x="170" y="354" on="1"/>
        <pt x="168" y="344" on="1"/>
        <pt x="168" y="336" on="1"/>
        <pt x="238" y="359" on="0"/>
        <pt x="386" y="381" on="0"/>
        <pt x="476" y="381" on="1"/>
        <pt x="530" y="381" on="1"/>
        <pt x="553" y="376" on="0"/>
        <pt x="564" y="368" on="1"/>
        <pt x="576" y="357" on="0"/>
        <pt x="576" y="348" on="1"/>
        <pt x="574" y="334" on="0"/>
        <pt x="551" y="320" on="0"/>
        <pt x="520" y="312" on="0"/>
        <pt x="485" y="310" on="0"/>
        <pt x="472" y="308" on="1"/>
        <pt x="442" y="308" on="1"/>
        <pt x="388" y="306" on="1"/>
        <pt x="316" y="298" on="0"/>
        <pt x="200" y="259" on="0"/>
        <pt x="176" y="226" on="1"/>
        <pt x="166" y="209" on="1"/>
        <pt x="160" y="199" on="1"/>
        <pt x="160" y="26" on="1"/>
        <pt x="158" y="20" on="0"/>
        <pt x="143" y="10" on="0"/>
        <pt x="121" y="4" on="0"/>
        <pt x="96" y="1" on="0"/>
        <pt x="86" y="1" on="1"/>
        <pt x="66" y="1" on="0"/>
        <pt x="42" y="7" on="1"/>
        <pt x="20" y="14" on="0"/>
        <pt x="20" y="26" on="1"/>
        <pt x="20" y="293" on="1"/>
        <pt x="22" y="295" on="0"/>
        <pt x="22" y="308" on="1"/>
        <pt x="26" y="316" on="0"/>
        <pt x="26" y="334" on="1"/>
        <pt x="30" y="343" on="0"/>
        <pt x="30" y="362" on="1"/>
        <pt x="36" y="383" on="1"/>
        <pt x="38" y="390" on="0"/>
        <pt x="47" y="411" on="0"/>
        <pt x="52" y="425" on="1"/>
        <pt x="62" y="453" on="0"/>
        <pt x="70" y="467" on="1"/>
        <pt x="83" y="491" on="0"/>
        <pt x="112" y="532" on="0"/>
        <pt x="128" y="549" on="1"/>
        <pt x="153" y="573" on="0"/>
        <pt x="193" y="603" on="0"/>
        <pt x="222" y="621" on="1"/>
        <pt x="280" y="655" on="0"/>
        <pt x="425" y="694" on="0"/>
      </contour>
    </TTGlyph>
    <TTGlyph name="G" xMin="20" yMin="1" xMax="576" yMax="694">
      <contour>
        <pt x="20" y="132" on="1"/>
        <pt x="20" y="202" on="1"/>
        <pt x="20" y="256" on="0"/>
        <pt x="26" y="319" on="1"/>
        <pt x="35" y="385" on="0"/>
        <pt x="92" y="511" on="0"/>
        <pt x="146" y="565" on="1"/>
        <pt x="188" y="607" on="0"/>
        <pt x="319" y="669" on="0"/>
        <pt x="396" y="683" on="1"/>
        <pt x="445" y="694" on="0"/>
        <pt x="500" y="694" on="1"/>
        <pt x="530" y="694" on="1"/>
        <pt x="552" y="691" on="0"/>
        <pt x="564" y="682" on="1"/>
        <pt x="576" y="671" on="0"/>
        <pt x="576" y="661" on="1"/>
        <pt x="573" y="646" on="0"/>
        <pt x="554" y="634" on="0"/>
        <pt x="544" y="631" on="1"/>
        <pt x="510" y="626" on="1"/>
        <pt x="474" y="622" on="1"/>
        <pt x="417" y="613" on="0"/>
        <pt x="326" y="574" on="0"/>
        <pt x="257" y="522" on="0"/>
        <pt x="211" y="461" on="0"/>
        <pt x="198" y="431" on="1"/>
        <pt x="187" y="409" on="0"/>
        <pt x="175" y="374" on="0"/>
        <pt x="172" y="355" on="1"/>
        <pt x="170" y="349" on="0"/>
        <pt x="170" y="338" on="1"/>
        <pt x="166" y="330" on="0"/>
        <pt x="166" y="312" on="1"/>
        <pt x="162" y="303" on="0"/>
        <pt x="162" y="285" on="1"/>
        <pt x="160" y="267" on="1"/>
        <pt x="160" y="203" on="1"/>
        <pt x="160" y="138" on="1"/>
        <pt x="172" y="104" on="0"/>
        <pt x="200" y="88" on="1"/>
        <pt x="236" y="71" on="0"/>
        <pt x="300" y="71" on="1"/>
        <pt x="328" y="71" on="0"/>
        <pt x="371" y="79" on="0"/>
        <pt x="394" y="87" on="1"/>
        <pt x="436" y="103" on="0"/>
        <pt x="436" y="132" on="1"/>
        <pt x="436" y="308" on="1"/>
        <pt x="399" y="308" on="0"/>
        <pt x="333" y="296" on="0"/>
        <pt x="300" y="296" on="1"/>
        <pt x="232" y="296" on="0"/>
        <pt x="232" y="332" on="1"/>
        <pt x="235" y="352" on="0"/>
        <pt x="260" y="359" on="1"/>
        <pt x="294" y="370" on="0"/>
        <pt x="375" y="380" on="0"/>
        <pt x="412" y="380" on="1"/>
        <pt x="478" y="381" on="1"/>
        <pt x="530" y="381" on="1"/>
        <pt x="550" y="378" on="0"/>
        <pt x="560" y="371" on="1"/>
        <pt x="576" y="364" on="0"/>
        <pt x="576" y="355" on="1"/>
        <pt x="576" y="124" on="1"/>
        <pt x="573" y="102" on="0"/>
        <pt x="556" y="82" on="1"/>
        <pt x="545" y="71" on="0"/>
        <pt x="520" y="51" on="0"/>
        <pt x="506" y="43" on="1"/>
        <pt x="473" y="25" on="0"/>
        <pt x="392" y="1" on="0"/>
        <pt x="352" y="1" on="1"/>
        <pt x="244" y="1" on="1"/>
        <pt x="210" y="4" on="1"/>
        <pt x="176" y="11" on="1"/>
        <pt x="103" y="27" on="0"/>
        <pt x="26" y="93" on="0"/>
      </contour>
    </TTGlyph>
    <TTGlyph name="H" xMin="20" yMin="1" xMax="572" yMax="694">
      <contour>
        <pt x="90" y="694" on="1"/>
        <pt x="120" y="691" on="1"/>
        <pt x="128" y="689" on="0"/>
        <pt x="141" y="683" on="0"/>
        <pt x="146" y="680" on="1"/>
        <pt x="154" y="673" on="1"/>
        <pt x="160" y="667" on="1"/>
        <pt x="160" y="383" on="1"/>
        <pt x="170" y="381" on="1"/>
        <pt x="196" y="378" on="1"/>
        <pt x="226" y="375" on="1"/>
        <pt x="244" y="373" on="1"/>
        <pt x="301" y="364" on="0"/>
        <pt x="394" y="336" on="0"/>
        <pt x="434" y="320" on="1"/>
        <pt x="434" y="665" on="1"/>
        <pt x="436" y="670" on="0"/>
        <pt x="443" y="679" on="0"/>
        <pt x="450" y="683" on="1"/>
        <pt x="467" y="694" on="0"/>
        <pt x="482" y="694" on="1"/>
        <pt x="530" y="694" on="1"/>
        <pt x="546" y="692" on="0"/>
        <pt x="572" y="678" on="0"/>
        <pt x="572" y="671" on="1"/>
        <pt x="572" y="24" on="1"/>
        <pt x="569" y="15" on="0"/>
        <pt x="556" y="9" on="1"/>
        <pt x="542" y="1" on="0"/>
        <pt x="530" y="1" on="1"/>
        <pt x="482" y="1" on="1"/>
        <pt x="474" y="1" on="0"/>
        <pt x="458" y="7" on="0"/>
        <pt x="443" y="16" on="0"/>
        <pt x="434" y="26" on="0"/>
        <pt x="434" y="30" on="1"/>
        <pt x="434" y="156" on="1"/>
        <pt x="432" y="157" on="0"/>
        <pt x="431" y="159" on="0"/>
        <pt x="426" y="171" on="1"/>
        <pt x="421" y="179" on="0"/>
        <pt x="417" y="188" on="0"/>
        <pt x="416" y="193" on="1"/>
        <pt x="405" y="215" on="0"/>
        <pt x="380" y="234" on="1"/>
        <pt x="366" y="245" on="0"/>
        <pt x="337" y="264" on="0"/>
        <pt x="322" y="271" on="1"/>
        <pt x="288" y="289" on="0"/>
        <pt x="205" y="308" on="0"/>
        <pt x="160" y="308" on="1"/>
        <pt x="160" y="28" on="1"/>
        <pt x="154" y="22" on="1"/>
        <pt x="146" y="15" on="1"/>
        <pt x="139" y="11" on="0"/>
        <pt x="127" y="6" on="0"/>
        <pt x="120" y="4" on="1"/>
        <pt x="90" y="1" on="1"/>
        <pt x="74" y="1" on="0"/>
        <pt x="55" y="4" on="0"/>
        <pt x="44" y="6" on="1"/>
        <pt x="20" y="12" on="0"/>
        <pt x="20" y="24" on="1"/>
        <pt x="20" y="671" on="1"/>
        <pt x="20" y="684" on="0"/>
        <pt x="39" y="688" on="1"/>
        <pt x="59" y="692" on="0"/>
        <pt x="81" y="694" on="0"/>
      </contour>
    </TTGlyph>
    <TTGlyph name="I" xMin="20" yMin="1" xMax="576" yMax="694">
      <contour>
        <pt x="20" y="34" on="1"/>
        <pt x="24" y="48" on="0"/>
        <pt x="36" y="59" on="1"/>
        <pt x="57" y="71" on="0"/>
        <pt x="82" y="71" on="1"/>
        <pt x="224" y="71" on="1"/>
        <pt x="224" y="625" on="1"/>
        <pt x="82" y="625" on="1"/>
        <pt x="53" y="625" on="0"/>
        <pt x="36" y="636" on="1"/>
        <pt x="20" y="648" on="0"/>
        <pt x="20" y="661" on="1"/>
        <pt x="20" y="670" on="0"/>
        <pt x="32" y="682" on="1"/>
        <pt x="47" y="694" on="0"/>
        <pt x="66" y="694" on="1"/>
        <pt x="530" y="694" on="1"/>
        <pt x="551" y="694" on="0"/>
        <pt x="576" y="667" on="0"/>
        <pt x="576" y="661" on="1"/>
        <pt x="576" y="649" on="0"/>
        <pt x="558" y="637" on="1"/>
        <pt x="537" y="625" on="0"/>
        <pt x="514" y="625" on="1"/>
        <pt x="368" y="625" on="1"/>
        <pt x="368" y="71" on="1"/>
        <pt x="514" y="71" on="1"/>
        <pt x="530" y="71" on="0"/>
        <pt x="553" y="61" on="0"/>
        <pt x="558" y="58" on="1"/>
        <pt x="576" y="44" on="0"/>
        <pt x="576" y="35" on="1"/>
        <pt x="576" y="25" on="0"/>
        <pt x="564" y="13" on="1"/>
        <pt x="549" y="1" on="0"/>
        <pt x="530" y="1" on="1"/>
        <pt x="66" y="1" on="1"/>
        <pt x="44" y="1" on="0"/>
        <pt x="20" y="25" on="0"/>
      </contour>
    </TTGlyph>
    <TTGlyph name="J" xMin="20" yMin="1" xMax="576" yMax="694">
      <contour>
        <pt x="20" y="138" on="1"/>
        <pt x="20" y="154" on="0"/>
        <pt x="58" y="173" on="0"/>
        <pt x="88" y="173" on="1"/>
        <pt x="106" y="173" on="0"/>
        <pt x="126" y="169" on="0"/>
        <pt x="132" y="165" on="1"/>
        <pt x="148" y="158" on="0"/>
        <pt x="154" y="146" on="1"/>
        <pt x="168" y="122" on="1"/>
        <pt x="174" y="109" on="0"/>
        <pt x="186" y="97" on="1"/>
        <pt x="204" y="85" on="0"/>
        <pt x="251" y="71" on="0"/>
        <pt x="300" y="71" on="1"/>
        <pt x="324" y="71" on="0"/>
        <pt x="357" y="75" on="0"/>
        <pt x="374" y="79" on="1"/>
        <pt x="409" y="88" on="0"/>
        <pt x="424" y="109" on="1"/>
        <pt x="429" y="114" on="0"/>
        <pt x="432" y="122" on="1"/>
        <pt x="438" y="132" on="1"/>
        <pt x="438" y="669" on="1"/>
        <pt x="438" y="681" on="0"/>
        <pt x="462" y="687" on="1"/>
        <pt x="486" y="694" on="0"/>
        <pt x="506" y="694" on="1"/>
        <pt x="528" y="694" on="0"/>
        <pt x="576" y="682" on="0"/>
        <pt x="576" y="669" on="1"/>
        <pt x="576" y="124" on="1"/>
        <pt x="573" y="102" on="0"/>
        <pt x="556" y="82" on="1"/>
        <pt x="545" y="71" on="0"/>
        <pt x="520" y="51" on="0"/>
        <pt x="506" y="43" on="1"/>
        <pt x="473" y="25" on="0"/>
        <pt x="392" y="1" on="0"/>
        <pt x="352" y="1" on="1"/>
        <pt x="244" y="1" on="1"/>
        <pt x="210" y="4" on="1"/>
        <pt x="176" y="11" on="1"/>
        <pt x="101" y="29" on="0"/>
        <pt x="60" y="63" on="1"/>
        <pt x="39" y="81" on="0"/>
        <pt x="20" y="117" on="0"/>
      </contour>
    </TTGlyph>
    <TTGlyph name="K" xMin="20" yMin="1" xMax="572" yMax="694">
      <contour>
        <pt x="90" y="694" on="1"/>
        <pt x="120" y="691" on="1"/>
        <pt x="128" y="689" on="0"/>
        <pt x="141" y="683" on="0"/>
        <pt x="146" y="680" on="1"/>
        <pt x="154" y="673" on="1"/>
        <pt x="160" y="667" on="1"/>
        <pt x="160" y="389" on="1"/>
        <pt x="179" y="389" on="0"/>
        <pt x="194" y="392" on="1"/>
        <pt x="232" y="398" on="1"/>
        <pt x="294" y="410" on="0"/>
        <pt x="346" y="435" on="1"/>
        <pt x="401" y="460" on="0"/>
        <pt x="416" y="492" on="1"/>
        <pt x="420" y="495" on="0"/>
        <pt x="420" y="502" on="1"/>
        <pt x="426" y="509" on="0"/>
        <pt x="426" y="515" on="1"/>
        <pt x="429" y="519" on="0"/>
        <pt x="431" y="524" on="0"/>
        <pt x="432" y="527" on="1"/>
        <pt x="434" y="532" on="1"/>
        <pt x="434" y="665" on="1"/>
        <pt x="436" y="670" on="0"/>
        <pt x="443" y="679" on="0"/>
        <pt x="450" y="683" on="1"/>
        <pt x="467" y="694" on="0"/>
        <pt x="482" y="694" on="1"/>
        <pt x="530" y="694" on="1"/>
        <pt x="546" y="692" on="0"/>
        <pt x="572" y="678" on="0"/>
        <pt x="572" y="671" on="1"/>
        <pt x="572" y="520" on="1"/>
        <pt x="571" y="515" on="0"/>
        <pt x="565" y="495" on="0"/>
        <pt x="562" y="490" on="1"/>
        <pt x="544" y="461" on="1"/>
        <pt x="517" y="423" on="0"/>
        <pt x="413" y="367" on="0"/>
        <pt x="352" y="348" on="1"/>
        <pt x="433" y="322" on="0"/>
        <pt x="484" y="288" on="1"/>
        <pt x="538" y="254" on="0"/>
        <pt x="560" y="209" on="1"/>
        <pt x="564" y="208" on="0"/>
        <pt x="564" y="199" on="1"/>
        <pt x="565" y="197" on="0"/>
        <pt x="567" y="193" on="0"/>
        <pt x="568" y="189" on="1"/>
        <pt x="570" y="187" on="0"/>
        <pt x="570" y="181" on="1"/>
        <pt x="572" y="175" on="1"/>
        <pt x="572" y="24" on="1"/>
        <pt x="569" y="15" on="0"/>
        <pt x="556" y="9" on="1"/>
        <pt x="542" y="1" on="0"/>
        <pt x="530" y="1" on="1"/>
        <pt x="482" y="1" on="1"/>
        <pt x="474" y="1" on="0"/>
        <pt x="458" y="7" on="0"/>
        <pt x="443" y="16" on="0"/>
        <pt x="434" y="26" on="0"/>
        <pt x="434" y="30" on="1"/>
        <pt x="434" y="163" on="1"/>
        <pt x="432" y="168" on="1"/>
        <pt x="426" y="179" on="1"/>
        <pt x="420" y="192" on="1"/>
        <pt x="419" y="194" on="0"/>
        <pt x="417" y="199" on="0"/>
        <pt x="416" y="203" on="1"/>
        <pt x="405" y="221" on="0"/>
        <pt x="350" y="258" on="0"/>
        <pt x="279" y="288" on="0"/>
        <pt x="198" y="306" on="0"/>
        <pt x="160" y="306" on="1"/>
        <pt x="160" y="28" on="1"/>
        <pt x="154" y="22" on="1"/>
        <pt x="146" y="15" on="1"/>
        <pt x="139" y="11" on="0"/>
        <pt x="127" y="6" on="0"/>
        <pt x="120" y="4" on="1"/>
        <pt x="90" y="1" on="1"/>
        <pt x="74" y="1" on="0"/>
        <pt x="55" y="4" on="0"/>
        <pt x="44" y="6" on="1"/>
        <pt x="20" y="12" on="0"/>
        <pt x="20" y="24" on="1"/>
        <pt x="20" y="671" on="1"/>
        <pt x="20" y="684" on="0"/>
        <pt x="39" y="688" on="1"/>
        <pt x="59" y="692" on="0"/>
        <pt x="81" y="694" on="0"/>
      </contour>
    </TTGlyph>
    <TTGlyph name="L" xMin="20" yMin="1" xMax="576" yMax="694">
      <contour>
        <pt x="86" y="694" on="1"/>
        <pt x="98" y="694" on="0"/>
        <pt x="124" y="691" on="0"/>
        <pt x="146" y="685" on="0"/>
        <pt x="160" y="675" on="0"/>
        <pt x="160" y="669" on="1"/>
        <pt x="160" y="71" on="1"/>
        <pt x="514" y="71" on="1"/>
        <pt x="530" y="71" on="0"/>
        <pt x="553" y="61" on="0"/>
        <pt x="558" y="58" on="1"/>
        <pt x="576" y="44" on="0"/>
        <pt x="576" y="35" on="1"/>
        <pt x="576" y="25" on="0"/>
        <pt x="564" y="13" on="1"/>
        <pt x="549" y="1" on="0"/>
        <pt x="530" y="1" on="1"/>
        <pt x="66" y="1" on="1"/>
        <pt x="51" y="1" on="0"/>
        <pt x="20" y="19" on="0"/>
        <pt x="20" y="26" on="1"/>
        <pt x="20" y="669" on="1"/>
        <pt x="21" y="675" on="0"/>
        <pt x="35" y="685" on="0"/>
        <pt x="55" y="691" on="0"/>
        <pt x="77" y="694" on="0"/>
      </contour>
    </TTGlyph>
    <TTGlyph name="M" xMin="20" yMin="1" xMax="784" yMax="695">
      <contour>
        <pt x="402" y="695" on="1"/>
        <pt x="449" y="695" on="0"/>
        <pt x="536" y="672" on="0"/>
        <pt x="609" y="636" on="0"/>
        <pt x="665" y="592" on="0"/>
        <pt x="682" y="571" on="1"/>
        <pt x="711" y="539" on="0"/>
        <pt x="726" y="512" on="1"/>
        <pt x="756" y="460" on="0"/>
        <pt x="768" y="408" on="1"/>
        <pt x="777" y="381" on="0"/>
        <pt x="784" y="334" on="0"/>
        <pt x="784" y="303" on="1"/>
        <pt x="784" y="26" on="1"/>
        <pt x="784" y="12" on="0"/>
        <pt x="760" y="6" on="1"/>
        <pt x="754" y="5" on="0"/>
        <pt x="731" y="1" on="0"/>
        <pt x="714" y="1" on="1"/>
        <pt x="702" y="1" on="0"/>
        <pt x="678" y="5" on="0"/>
        <pt x="659" y="11" on="0"/>
        <pt x="646" y="20" on="0"/>
        <pt x="646" y="26" on="1"/>
        <pt x="640" y="334" on="1"/>
        <pt x="639" y="337" on="0"/>
        <pt x="637" y="343" on="0"/>
        <pt x="636" y="347" on="1"/>
        <pt x="630" y="372" on="1"/>
        <pt x="624" y="400" on="1"/>
        <pt x="620" y="409" on="0"/>
        <pt x="620" y="422" on="1"/>
        <pt x="618" y="429" on="1"/>
        <pt x="612" y="441" on="1"/>
        <pt x="608" y="445" on="0"/>
        <pt x="608" y="454" on="1"/>
        <pt x="605" y="457" on="0"/>
        <pt x="604" y="463" on="1"/>
        <pt x="601" y="465" on="0"/>
        <pt x="594" y="482" on="1"/>
        <pt x="584" y="501" on="1"/>
        <pt x="566" y="527" on="1"/>
        <pt x="542" y="555" on="1"/>
        <pt x="530" y="570" on="0"/>
        <pt x="492" y="595" on="0"/>
        <pt x="472" y="602" on="1"/>
        <pt x="472" y="26" on="1"/>
        <pt x="469" y="13" on="0"/>
        <pt x="446" y="7" on="1"/>
        <pt x="416" y="1" on="0"/>
        <pt x="400" y="1" on="1"/>
        <pt x="380" y="1" on="0"/>
        <pt x="356" y="7" on="1"/>
        <pt x="332" y="14" on="0"/>
        <pt x="332" y="26" on="1"/>
        <pt x="332" y="602" on="1"/>
        <pt x="303" y="592" on="0"/>
        <pt x="257" y="554" on="0"/>
        <pt x="244" y="534" on="1"/>
        <pt x="228" y="512" on="1"/>
        <pt x="218" y="498" on="0"/>
        <pt x="203" y="469" on="0"/>
        <pt x="196" y="454" on="1"/>
        <pt x="189" y="437" on="0"/>
        <pt x="181" y="413" on="0"/>
        <pt x="176" y="395" on="1"/>
        <pt x="172" y="390" on="0"/>
        <pt x="172" y="371" on="1"/>
        <pt x="166" y="340" on="1"/>
        <pt x="162" y="331" on="0"/>
        <pt x="162" y="310" on="1"/>
        <pt x="160" y="293" on="1"/>
        <pt x="160" y="26" on="1"/>
        <pt x="158" y="20" on="0"/>
        <pt x="143" y="10" on="0"/>
        <pt x="121" y="4" on="0"/>
        <pt x="96" y="1" on="0"/>
        <pt x="86" y="1" on="1"/>
        <pt x="66" y="1" on="0"/>
        <pt x="42" y="7" on="1"/>
        <pt x="20" y="14" on="0"/>
        <pt x="20" y="26" on="1"/>
        <pt x="20" y="297" on="1"/>
        <pt x="22" y="301" on="0"/>
        <pt x="22" y="316" on="1"/>
        <pt x="25" y="326" on="0"/>
        <pt x="26" y="342" on="0"/>
        <pt x="26" y="351" on="1"/>
        <pt x="34" y="388" on="1"/>
        <pt x="40" y="407" on="0"/>
        <pt x="40" y="416" on="1"/>
        <pt x="42" y="418" on="0"/>
        <pt x="42" y="426" on="1"/>
        <pt x="50" y="445" on="1"/>
        <pt x="58" y="466" on="1"/>
        <pt x="64" y="481" on="1"/>
        <pt x="73" y="500" on="0"/>
        <pt x="92" y="531" on="0"/>
        <pt x="102" y="547" on="1"/>
        <pt x="130" y="586" on="0"/>
        <pt x="170" y="617" on="1"/>
        <pt x="193" y="634" on="0"/>
        <pt x="243" y="662" on="0"/>
        <pt x="270" y="672" on="1"/>
        <pt x="330" y="695" on="0"/>
      </contour>
    </TTGlyph>
    <TTGlyph name="N" xMin="20" yMin="1" xMax="576" yMax="694">
      <contour>
        <pt x="66" y="694" on="1"/>
        <pt x="96" y="694" on="1"/>
        <pt x="138" y="694" on="0"/>
        <pt x="214" y="682" on="0"/>
        <pt x="248" y="673" on="1"/>
        <pt x="361" y="640" on="0"/>
        <pt x="497" y="527" on="0"/>
        <pt x="528" y="466" on="1"/>
        <pt x="553" y="421" on="0"/>
        <pt x="560" y="383" on="1"/>
        <pt x="564" y="379" on="0"/>
        <pt x="564" y="362" on="1"/>
        <pt x="570" y="348" on="0"/>
        <pt x="570" y="335" on="1"/>
        <pt x="574" y="326" on="0"/>
        <pt x="574" y="309" on="1"/>
        <pt x="576" y="295" on="1"/>
        <pt x="576" y="26" on="1"/>
        <pt x="576" y="12" on="0"/>
        <pt x="552" y="6" on="1"/>
        <pt x="546" y="5" on="0"/>
        <pt x="523" y="1" on="0"/>
        <pt x="506" y="1" on="1"/>
        <pt x="486" y="1" on="0"/>
        <pt x="462" y="7" on="1"/>
        <pt x="438" y="14" on="0"/>
        <pt x="438" y="26" on="1"/>
        <pt x="438" y="291" on="1"/>
        <pt x="436" y="293" on="0"/>
        <pt x="436" y="302" on="1"/>
        <pt x="432" y="309" on="0"/>
        <pt x="432" y="322" on="1"/>
        <pt x="428" y="329" on="0"/>
        <pt x="428" y="344" on="1"/>
        <pt x="424" y="351" on="0"/>
        <pt x="424" y="361" on="1"/>
        <pt x="412" y="414" on="0"/>
        <pt x="340" y="527" on="0"/>
        <pt x="274" y="570" on="1"/>
        <pt x="226" y="601" on="0"/>
        <pt x="160" y="614" on="1"/>
        <pt x="160" y="24" on="1"/>
        <pt x="160" y="19" on="0"/>
        <pt x="124" y="1" on="0"/>
        <pt x="114" y="1" on="1"/>
        <pt x="66" y="1" on="1"/>
        <pt x="50" y="1" on="0"/>
        <pt x="34" y="11" on="1"/>
        <pt x="20" y="22" on="0"/>
        <pt x="20" y="30" on="1"/>
        <pt x="20" y="665" on="1"/>
        <pt x="27" y="682" on="0"/>
        <pt x="57" y="693" on="0"/>
      </contour>
    </TTGlyph>
    <TTGlyph name="O" xMin="20" yMin="1" xMax="572" yMax="694">
      <contour>
        <pt x="20" y="306" on="1"/>
        <pt x="44" y="457" on="1"/>
        <pt x="46" y="461" on="0"/>
        <pt x="46" y="470" on="1"/>
        <pt x="50" y="477" on="0"/>
        <pt x="52" y="488" on="0"/>
        <pt x="54" y="494" on="1"/>
        <pt x="60" y="504" on="0"/>
        <pt x="64" y="520" on="1"/>
        <pt x="70" y="539" on="1"/>
        <pt x="94" y="588" on="1"/>
        <pt x="111" y="615" on="0"/>
        <pt x="136" y="638" on="1"/>
        <pt x="167" y="664" on="0"/>
        <pt x="241" y="694" on="0"/>
        <pt x="296" y="694" on="1"/>
        <pt x="345" y="694" on="0"/>
        <pt x="416" y="669" on="0"/>
        <pt x="438" y="653" on="1"/>
        <pt x="465" y="634" on="0"/>
        <pt x="480" y="613" on="1"/>
        <pt x="490" y="601" on="0"/>
        <pt x="501" y="584" on="0"/>
        <pt x="506" y="573" on="1"/>
        <pt x="512" y="560" on="1"/>
        <pt x="520" y="544" on="1"/>
        <pt x="526" y="535" on="0"/>
        <pt x="526" y="529" on="1"/>
        <pt x="530" y="522" on="1"/>
        <pt x="572" y="334" on="1"/>
        <pt x="572" y="118" on="1"/>
        <pt x="569" y="98" on="0"/>
        <pt x="552" y="78" on="1"/>
        <pt x="538" y="64" on="0"/>
        <pt x="492" y="36" on="0"/>
        <pt x="438" y="14" on="0"/>
        <pt x="377" y="1" on="0"/>
        <pt x="348" y="1" on="1"/>
        <pt x="244" y="1" on="1"/>
        <pt x="202" y="1" on="0"/>
        <pt x="164" y="12" on="1"/>
        <pt x="141" y="20" on="0"/>
        <pt x="105" y="34" on="0"/>
        <pt x="92" y="41" on="1"/>
        <pt x="59" y="57" on="0"/>
        <pt x="40" y="79" on="1"/>
        <pt x="20" y="101" on="0"/>
        <pt x="20" y="120" on="1"/>
      </contour>
      <contour>
        <pt x="160" y="128" on="1"/>
        <pt x="172" y="98" on="0"/>
        <pt x="239" y="71" on="0"/>
        <pt x="296" y="71" on="1"/>
        <pt x="347" y="71" on="0"/>
        <pt x="386" y="85" on="1"/>
        <pt x="423" y="101" on="0"/>
        <pt x="432" y="128" on="1"/>
        <pt x="432" y="217" on="1"/>
        <pt x="432" y="251" on="0"/>
        <pt x="426" y="330" on="0"/>
        <pt x="422" y="360" on="1"/>
        <pt x="413" y="430" on="0"/>
        <pt x="392" y="502" on="1"/>
        <pt x="388" y="512" on="1"/>
        <pt x="380" y="528" on="1"/>
        <pt x="372" y="544" on="1"/>
        <pt x="371" y="546" on="0"/>
        <pt x="369" y="551" on="0"/>
        <pt x="368" y="555" on="1"/>
        <pt x="360" y="568" on="1"/>
        <pt x="348" y="584" on="1"/>
        <pt x="340" y="593" on="1"/>
        <pt x="328" y="607" on="1"/>
        <pt x="312" y="619" on="1"/>
        <pt x="304" y="624" on="0"/>
        <pt x="298" y="624" on="1"/>
        <pt x="283" y="624" on="0"/>
        <pt x="270" y="614" on="1"/>
        <pt x="254" y="598" on="1"/>
        <pt x="246" y="588" on="1"/>
        <pt x="240" y="579" on="1"/>
        <pt x="235" y="575" on="0"/>
        <pt x="230" y="566" on="0"/>
        <pt x="228" y="561" on="1"/>
        <pt x="225" y="558" on="0"/>
        <pt x="224" y="554" on="1"/>
        <pt x="218" y="544" on="1"/>
        <pt x="215" y="541" on="0"/>
        <pt x="214" y="535" on="1"/>
        <pt x="212" y="530" on="1"/>
        <pt x="206" y="513" on="1"/>
        <pt x="200" y="501" on="0"/>
        <pt x="198" y="489" on="1"/>
        <pt x="192" y="477" on="0"/>
        <pt x="190" y="465" on="1"/>
        <pt x="184" y="449" on="1"/>
        <pt x="178" y="420" on="1"/>
        <pt x="172" y="376" on="1"/>
        <pt x="164" y="332" on="1"/>
        <pt x="160" y="320" on="0"/>
        <pt x="160" y="302" on="1"/>
        <pt x="160" y="215" on="1"/>
      </contour>
    </TTGlyph>
    <TTGlyph name="P" xMin="20" yMin="1" xMax="576" yMax="694">
      <contour>
        <pt x="88" y="694" on="1"/>
        <pt x="112" y="694" on="0"/>
        <pt x="141" y="686" on="0"/>
        <pt x="154" y="678" on="1"/>
        <pt x="222" y="689" on="1"/>
        <pt x="238" y="692" on="0"/>
        <pt x="275" y="694" on="0"/>
        <pt x="294" y="694" on="1"/>
        <pt x="421" y="694" on="0"/>
        <pt x="499" y="656" on="1"/>
        <pt x="576" y="618" on="0"/>
        <pt x="576" y="554" on="1"/>
        <pt x="576" y="454" on="0"/>
        <pt x="364" y="338" on="0"/>
        <pt x="172" y="316" on="1"/>
        <pt x="164" y="315" on="1"/>
        <pt x="160" y="314" on="1"/>
        <pt x="160" y="26" on="1"/>
        <pt x="154" y="20" on="1"/>
        <pt x="146" y="13" on="1"/>
        <pt x="135" y="4" on="0"/>
        <pt x="106" y="1" on="0"/>
        <pt x="99" y="1" on="1"/>
        <pt x="88" y="1" on="1"/>
        <pt x="66" y="1" on="0"/>
        <pt x="42" y="7" on="1"/>
        <pt x="20" y="14" on="0"/>
        <pt x="20" y="26" on="1"/>
        <pt x="20" y="669" on="1"/>
        <pt x="23" y="682" on="0"/>
        <pt x="67" y="694" on="0"/>
      </contour>
      <contour>
        <pt x="298" y="624" on="1"/>
        <pt x="249" y="624" on="0"/>
        <pt x="204" y="609" on="1"/>
        <pt x="160" y="594" on="0"/>
        <pt x="160" y="567" on="1"/>
        <pt x="160" y="388" on="1"/>
        <pt x="204" y="392" on="1"/>
        <pt x="244" y="400" on="1"/>
        <pt x="436" y="446" on="0"/>
        <pt x="436" y="553" on="1"/>
        <pt x="436" y="586" on="0"/>
        <pt x="400" y="604" on="1"/>
        <pt x="365" y="624" on="0"/>
      </contour>
    </TTGlyph>
    <TTGlyph name="Q" xMin="20" yMin="-104" xMax="578" yMax="695">
      <contour>
        <pt x="22" y="133" on="1"/>
        <pt x="22" y="146" on="1"/>
        <pt x="21" y="150" on="0"/>
        <pt x="20" y="159" on="0"/>
        <pt x="20" y="165" on="1"/>
        <pt x="20" y="185" on="1"/>
        <pt x="20" y="199" on="1"/>
        <pt x="20" y="215" on="1"/>
        <pt x="20" y="236" on="1"/>
        <pt x="22" y="255" on="1"/>
        <pt x="22" y="264" on="1"/>
        <pt x="24" y="274" on="0"/>
        <pt x="24" y="283" on="1"/>
        <pt x="24" y="300" on="1"/>
        <pt x="29" y="320" on="0"/>
        <pt x="31" y="344" on="0"/>
        <pt x="32" y="355" on="1"/>
        <pt x="40" y="410" on="1"/>
        <pt x="46" y="446" on="1"/>
        <pt x="52" y="466" on="1"/>
        <pt x="60" y="495" on="1"/>
        <pt x="65" y="504" on="0"/>
        <pt x="70" y="525" on="1"/>
        <pt x="76" y="544" on="1"/>
        <pt x="89" y="580" on="0"/>
        <pt x="150" y="656" on="0"/>
        <pt x="208" y="680" on="1"/>
        <pt x="250" y="695" on="0"/>
        <pt x="304" y="695" on="1"/>
        <pt x="353" y="695" on="0"/>
        <pt x="423" y="669" on="0"/>
        <pt x="446" y="652" on="1"/>
        <pt x="471" y="633" on="0"/>
        <pt x="504" y="590" on="0"/>
        <pt x="512" y="572" on="1"/>
        <pt x="516" y="569" on="0"/>
        <pt x="516" y="561" on="1"/>
        <pt x="522" y="554" on="0"/>
        <pt x="524" y="545" on="1"/>
        <pt x="530" y="536" on="0"/>
        <pt x="530" y="529" on="1"/>
        <pt x="536" y="519" on="1"/>
        <pt x="548" y="479" on="0"/>
        <pt x="563" y="404" on="0"/>
        <pt x="568" y="365" on="1"/>
        <pt x="574" y="329" on="0"/>
        <pt x="578" y="253" on="0"/>
        <pt x="578" y="210" on="1"/>
        <pt x="578" y="123" on="1"/>
        <pt x="563" y="74" on="0"/>
        <pt x="468" y="21" on="0"/>
        <pt x="378" y="4" on="1"/>
        <pt x="372" y="2" on="1"/>
        <pt x="372" y="-75" on="1"/>
        <pt x="369" y="-89" on="0"/>
        <pt x="331" y="-101" on="0"/>
        <pt x="316" y="-104" on="0"/>
        <pt x="300" y="-104" on="1"/>
        <pt x="283" y="-104" on="0"/>
        <pt x="256" y="-97" on="1"/>
        <pt x="232" y="-90" on="0"/>
        <pt x="232" y="-79" on="1"/>
        <pt x="232" y="2" on="1"/>
        <pt x="228" y="2" on="1"/>
        <pt x="222" y="4" on="1"/>
        <pt x="126" y="22" on="0"/>
        <pt x="28" y="81" on="0"/>
      </contour>
      <contour>
        <pt x="162" y="139" on="1"/>
        <pt x="168" y="121" on="0"/>
        <pt x="180" y="103" on="1"/>
        <pt x="198" y="84" on="0"/>
        <pt x="232" y="78" on="1"/>
        <pt x="232" y="151" on="1"/>
        <pt x="233" y="156" on="0"/>
        <pt x="249" y="164" on="0"/>
        <pt x="270" y="170" on="0"/>
        <pt x="293" y="174" on="0"/>
        <pt x="302" y="174" on="1"/>
        <pt x="315" y="174" on="0"/>
        <pt x="336" y="170" on="0"/>
        <pt x="348" y="166" on="1"/>
        <pt x="372" y="157" on="0"/>
        <pt x="372" y="145" on="1"/>
        <pt x="372" y="79" on="1"/>
        <pt x="387" y="79" on="0"/>
        <pt x="409" y="92" on="0"/>
        <pt x="416" y="100" on="1"/>
        <pt x="430" y="117" on="1"/>
        <pt x="435" y="123" on="0"/>
        <pt x="437" y="128" on="0"/>
        <pt x="438" y="131" on="1"/>
        <pt x="438" y="211" on="1"/>
        <pt x="438" y="292" on="1"/>
        <pt x="432" y="325" on="1"/>
        <pt x="424" y="377" on="1"/>
        <pt x="416" y="428" on="1"/>
        <pt x="410" y="462" on="1"/>
        <pt x="404" y="479" on="1"/>
        <pt x="394" y="504" on="1"/>
        <pt x="384" y="529" on="1"/>
        <pt x="378" y="546" on="1"/>
        <pt x="352" y="588" on="1"/>
        <pt x="337" y="610" on="0"/>
        <pt x="304" y="624" on="1"/>
        <pt x="300" y="625" on="1"/>
        <pt x="288" y="624" on="0"/>
        <pt x="280" y="617" on="1"/>
        <pt x="260" y="598" on="1"/>
        <pt x="242" y="578" on="1"/>
        <pt x="236" y="570" on="0"/>
        <pt x="235" y="567" on="0"/>
        <pt x="234" y="564" on="1"/>
        <pt x="228" y="555" on="1"/>
        <pt x="222" y="542" on="1"/>
        <pt x="216" y="531" on="1"/>
        <pt x="214" y="525" on="1"/>
        <pt x="208" y="508" on="1"/>
        <pt x="200" y="482" on="1"/>
        <pt x="192" y="457" on="1"/>
        <pt x="186" y="440" on="1"/>
        <pt x="180" y="404" on="1"/>
        <pt x="174" y="349" on="1"/>
        <pt x="166" y="294" on="1"/>
        <pt x="162" y="278" on="0"/>
        <pt x="162" y="258" on="1"/>
        <pt x="162" y="199" on="1"/>
      </contour>
    </TTGlyph>
    <TTGlyph name="R" xMin="20" yMin="1" xMax="572" yMax="694">
      <contour>
        <pt x="90" y="694" on="1"/>
        <pt x="100" y="693" on="0"/>
        <pt x="106" y="693" on="1"/>
        <pt x="112" y="693" on="0"/>
        <pt x="122" y="691" on="0"/>
        <pt x="137" y="685" on="0"/>
        <pt x="150" y="678" on="1"/>
        <pt x="154" y="678" on="1"/>
        <pt x="165" y="681" on="0"/>
        <pt x="180" y="684" on="0"/>
        <pt x="194" y="686" on="0"/>
        <pt x="210" y="688" on="0"/>
        <pt x="222" y="689" on="1"/>
        <pt x="240" y="692" on="0"/>
        <pt x="277" y="694" on="0"/>
        <pt x="296" y="694" on="1"/>
        <pt x="399" y="694" on="0"/>
        <pt x="476" y="663" on="1"/>
        <pt x="554" y="631" on="0"/>
        <pt x="572" y="582" on="1"/>
        <pt x="572" y="551" on="1"/>
        <pt x="572" y="487" on="0"/>
        <pt x="463" y="381" on="0"/>
        <pt x="352" y="348" on="1"/>
        <pt x="433" y="322" on="0"/>
        <pt x="484" y="288" on="1"/>
        <pt x="538" y="254" on="0"/>
        <pt x="560" y="209" on="1"/>
        <pt x="564" y="208" on="0"/>
        <pt x="564" y="199" on="1"/>
        <pt x="565" y="197" on="0"/>
        <pt x="567" y="193" on="0"/>
        <pt x="568" y="189" on="1"/>
        <pt x="570" y="187" on="0"/>
        <pt x="570" y="181" on="1"/>
        <pt x="572" y="175" on="1"/>
        <pt x="572" y="24" on="1"/>
        <pt x="569" y="15" on="0"/>
        <pt x="556" y="9" on="1"/>
        <pt x="542" y="1" on="0"/>
        <pt x="530" y="1" on="1"/>
        <pt x="482" y="1" on="1"/>
        <pt x="474" y="1" on="0"/>
        <pt x="458" y="7" on="0"/>
        <pt x="443" y="16" on="0"/>
        <pt x="434" y="26" on="0"/>
        <pt x="434" y="30" on="1"/>
        <pt x="434" y="163" on="1"/>
        <pt x="432" y="168" on="1"/>
        <pt x="426" y="179" on="1"/>
        <pt x="420" y="192" on="1"/>
        <pt x="419" y="194" on="0"/>
        <pt x="417" y="199" on="0"/>
        <pt x="416" y="203" on="1"/>
        <pt x="405" y="222" on="0"/>
        <pt x="352" y="260" on="0"/>
        <pt x="282" y="288" on="0"/>
        <pt x="195" y="306" on="0"/>
        <pt x="160" y="306" on="1"/>
        <pt x="160" y="28" on="1"/>
        <pt x="154" y="22" on="1"/>
        <pt x="146" y="15" on="1"/>
        <pt x="139" y="11" on="0"/>
        <pt x="127" y="6" on="0"/>
        <pt x="120" y="4" on="1"/>
        <pt x="90" y="1" on="1"/>
        <pt x="74" y="1" on="0"/>
        <pt x="55" y="4" on="0"/>
        <pt x="44" y="6" on="1"/>
        <pt x="20" y="12" on="0"/>
        <pt x="20" y="24" on="1"/>
        <pt x="20" y="671" on="1"/>
        <pt x="20" y="684" on="0"/>
        <pt x="39" y="688" on="1"/>
        <pt x="59" y="692" on="0"/>
        <pt x="81" y="694" on="0"/>
      </contour>
      <contour>
        <pt x="296" y="624" on="1"/>
        <pt x="250" y="620" on="1"/>
        <pt x="209" y="612" on="0"/>
        <pt x="160" y="589" on="0"/>
        <pt x="160" y="571" on="1"/>
        <pt x="160" y="388" on="1"/>
        <pt x="198" y="392" on="1"/>
        <pt x="232" y="398" on="1"/>
        <pt x="335" y="416" on="0"/>
        <pt x="432" y="501" on="0"/>
        <pt x="432" y="552" on="1"/>
        <pt x="432" y="573" on="1"/>
        <pt x="417" y="599" on="0"/>
        <pt x="344" y="624" on="0"/>
      </contour>
    </TTGlyph>
    <TTGlyph name="S" xMin="20" yMin="1" xMax="576" yMax="694">
      <contour>
        <pt x="20" y="34" on="1"/>
        <pt x="22" y="40" on="0"/>
        <pt x="26" y="49" on="0"/>
        <pt x="28" y="52" on="1"/>
        <pt x="39" y="62" on="0"/>
        <pt x="72" y="70" on="0"/>
        <pt x="90" y="70" on="1"/>
        <pt x="126" y="71" on="1"/>
        <pt x="192" y="71" on="0"/>
        <pt x="309" y="102" on="0"/>
        <pt x="354" y="125" on="1"/>
        <pt x="436" y="168" on="0"/>
        <pt x="436" y="244" on="1"/>
        <pt x="436" y="261" on="0"/>
        <pt x="430" y="278" on="1"/>
        <pt x="412" y="313" on="0"/>
        <pt x="348" y="313" on="1"/>
        <pt x="298" y="312" on="1"/>
        <pt x="276" y="312" on="1"/>
        <pt x="250" y="313" on="1"/>
        <pt x="224" y="314" on="1"/>
        <pt x="212" y="314" on="1"/>
        <pt x="198" y="314" on="0"/>
        <pt x="176" y="315" on="0"/>
        <pt x="155" y="318" on="0"/>
        <pt x="133" y="324" on="0"/>
        <pt x="118" y="329" on="1"/>
        <pt x="61" y="351" on="0"/>
        <pt x="20" y="412" on="0"/>
        <pt x="20" y="452" on="1"/>
        <pt x="20" y="526" on="0"/>
        <pt x="88" y="586" on="1"/>
        <pt x="123" y="615" on="0"/>
        <pt x="230" y="659" on="0"/>
        <pt x="302" y="675" on="1"/>
        <pt x="394" y="694" on="0"/>
        <pt x="492" y="694" on="1"/>
        <pt x="530" y="694" on="1"/>
        <pt x="553" y="689" on="0"/>
        <pt x="564" y="681" on="1"/>
        <pt x="576" y="670" on="0"/>
        <pt x="576" y="661" on="1"/>
        <pt x="573" y="635" on="0"/>
        <pt x="536" y="628" on="1"/>
        <pt x="500" y="622" on="0"/>
        <pt x="464" y="622" on="1"/>
        <pt x="448" y="622" on="0"/>
        <pt x="420" y="620" on="0"/>
        <pt x="396" y="616" on="1"/>
        <pt x="275" y="598" on="0"/>
        <pt x="160" y="511" on="0"/>
        <pt x="160" y="451" on="1"/>
        <pt x="160" y="430" on="1"/>
        <pt x="162" y="423" on="0"/>
        <pt x="166" y="413" on="0"/>
        <pt x="168" y="409" on="1"/>
        <pt x="180" y="397" on="0"/>
        <pt x="204" y="385" on="0"/>
        <pt x="228" y="385" on="1"/>
        <pt x="384" y="381" on="1"/>
        <pt x="409" y="381" on="0"/>
        <pt x="459" y="372" on="0"/>
        <pt x="476" y="366" on="1"/>
        <pt x="515" y="353" on="0"/>
        <pt x="560" y="312" on="0"/>
        <pt x="566" y="289" on="1"/>
        <pt x="576" y="268" on="0"/>
        <pt x="576" y="242" on="1"/>
        <pt x="576" y="169" on="0"/>
        <pt x="502" y="106" on="1"/>
        <pt x="422" y="44" on="0"/>
        <pt x="282" y="19" on="1"/>
        <pt x="247" y="13" on="0"/>
        <pt x="197" y="5" on="0"/>
        <pt x="159" y="2" on="0"/>
        <pt x="129" y="1" on="0"/>
        <pt x="115" y="1" on="1"/>
        <pt x="104" y="1" on="1"/>
        <pt x="66" y="1" on="1"/>
        <pt x="20" y="10" on="0"/>
      </contour>
    </TTGlyph>
    <TTGlyph name="T" xMin="20" yMin="1" xMax="576" yMax="694">
      <contour>
        <pt x="230" y="625" on="1"/>
        <pt x="82" y="625" on="1"/>
        <pt x="56" y="625" on="0"/>
        <pt x="20" y="649" on="0"/>
        <pt x="20" y="661" on="1"/>
        <pt x="20" y="669" on="0"/>
        <pt x="32" y="681" on="1"/>
        <pt x="48" y="694" on="0"/>
        <pt x="66" y="694" on="1"/>
        <pt x="530" y="694" on="1"/>
        <pt x="554" y="694" on="0"/>
        <pt x="576" y="667" on="0"/>
        <pt x="576" y="659" on="1"/>
        <pt x="576" y="648" on="0"/>
        <pt x="539" y="625" on="0"/>
        <pt x="514" y="625" on="1"/>
        <pt x="370" y="625" on="1"/>
        <pt x="370" y="28" on="1"/>
        <pt x="364" y="22" on="1"/>
        <pt x="356" y="15" on="1"/>
        <pt x="351" y="11" on="0"/>
        <pt x="339" y="6" on="0"/>
        <pt x="332" y="4" on="1"/>
        <pt x="302" y="1" on="1"/>
        <pt x="256" y="6" on="1"/>
        <pt x="230" y="12" on="0"/>
        <pt x="230" y="24" on="1"/>
      </contour>
    </TTGlyph>
    <TTGlyph name="U" xMin="20" yMin="1" xMax="572" yMax="694">
      <contour>
        <pt x="90" y="694" on="1"/>
        <pt x="120" y="691" on="1"/>
        <pt x="128" y="689" on="0"/>
        <pt x="141" y="683" on="0"/>
        <pt x="146" y="680" on="1"/>
        <pt x="154" y="673" on="1"/>
        <pt x="160" y="667" on="1"/>
        <pt x="160" y="128" on="1"/>
        <pt x="160" y="127" on="0"/>
        <pt x="161" y="127" on="1"/>
        <pt x="162" y="125" on="0"/>
        <pt x="162" y="121" on="1"/>
        <pt x="168" y="113" on="1"/>
        <pt x="189" y="89" on="0"/>
        <pt x="251" y="71" on="0"/>
        <pt x="296" y="71" on="1"/>
        <pt x="318" y="71" on="0"/>
        <pt x="352" y="75" on="0"/>
        <pt x="370" y="78" on="1"/>
        <pt x="406" y="87" on="0"/>
        <pt x="420" y="107" on="1"/>
        <pt x="428" y="118" on="1"/>
        <pt x="434" y="126" on="1"/>
        <pt x="434" y="665" on="1"/>
        <pt x="436" y="670" on="0"/>
        <pt x="443" y="679" on="0"/>
        <pt x="450" y="683" on="1"/>
        <pt x="467" y="694" on="0"/>
        <pt x="482" y="694" on="1"/>
        <pt x="530" y="694" on="1"/>
        <pt x="546" y="692" on="0"/>
        <pt x="572" y="678" on="0"/>
        <pt x="572" y="671" on="1"/>
        <pt x="572" y="118" on="1"/>
        <pt x="569" y="98" on="0"/>
        <pt x="552" y="78" on="1"/>
        <pt x="527" y="56" on="0"/>
        <pt x="470" y="23" on="0"/>
        <pt x="428" y="12" on="1"/>
        <pt x="404" y="5" on="0"/>
        <pt x="371" y="1" on="0"/>
        <pt x="348" y="1" on="1"/>
        <pt x="244" y="1" on="1"/>
        <pt x="202" y="1" on="0"/>
        <pt x="164" y="12" on="1"/>
        <pt x="141" y="20" on="0"/>
        <pt x="105" y="34" on="0"/>
        <pt x="92" y="41" on="1"/>
        <pt x="59" y="57" on="0"/>
        <pt x="40" y="79" on="1"/>
        <pt x="20" y="101" on="0"/>
        <pt x="20" y="120" on="1"/>
        <pt x="20" y="671" on="1"/>
        <pt x="20" y="684" on="0"/>
        <pt x="39" y="688" on="1"/>
        <pt x="59" y="692" on="0"/>
        <pt x="81" y="694" on="0"/>
      </contour>
    </TTGlyph>
    <TTGlyph name="V" xMin="20" yMin="1" xMax="576" yMax="694">
      <contour>
        <pt x="88" y="694" on="1"/>
        <pt x="120" y="692" on="1"/>
        <pt x="139" y="689" on="0"/>
        <pt x="146" y="682" on="1"/>
        <pt x="154" y="675" on="1"/>
        <pt x="160" y="669" on="1"/>
        <pt x="160" y="81" on="1"/>
        <pt x="216" y="91" on="0"/>
        <pt x="260" y="117" on="1"/>
        <pt x="303" y="142" on="0"/>
        <pt x="365" y="207" on="0"/>
        <pt x="382" y="239" on="1"/>
        <pt x="403" y="272" on="0"/>
        <pt x="412" y="299" on="1"/>
        <pt x="418" y="318" on="1"/>
        <pt x="424" y="333" on="0"/>
        <pt x="424" y="344" on="1"/>
        <pt x="430" y="359" on="0"/>
        <pt x="430" y="367" on="1"/>
        <pt x="432" y="381" on="1"/>
        <pt x="440" y="671" on="1"/>
        <pt x="440" y="683" on="0"/>
        <pt x="460" y="688" on="1"/>
        <pt x="470" y="691" on="0"/>
        <pt x="482" y="693" on="0"/>
        <pt x="491" y="694" on="0"/>
        <pt x="496" y="694" on="1"/>
        <pt x="501" y="694" on="0"/>
        <pt x="510" y="694" on="1"/>
        <pt x="522" y="694" on="0"/>
        <pt x="543" y="690" on="0"/>
        <pt x="554" y="687" on="1"/>
        <pt x="576" y="680" on="0"/>
        <pt x="576" y="667" on="1"/>
        <pt x="576" y="416" on="1"/>
        <pt x="574" y="414" on="0"/>
        <pt x="574" y="401" on="1"/>
        <pt x="572" y="391" on="0"/>
        <pt x="572" y="376" on="1"/>
        <pt x="568" y="367" on="0"/>
        <pt x="568" y="350" on="1"/>
        <pt x="564" y="343" on="0"/>
        <pt x="564" y="332" on="1"/>
        <pt x="558" y="309" on="0"/>
        <pt x="543" y="266" on="0"/>
        <pt x="536" y="250" on="1"/>
        <pt x="518" y="210" on="0"/>
        <pt x="492" y="176" on="1"/>
        <pt x="476" y="157" on="0"/>
        <pt x="443" y="126" on="0"/>
        <pt x="420" y="108" on="1"/>
        <pt x="396" y="91" on="0"/>
        <pt x="343" y="60" on="0"/>
        <pt x="314" y="46" on="1"/>
        <pt x="293" y="35" on="0"/>
        <pt x="241" y="19" on="0"/>
        <pt x="184" y="7" on="0"/>
        <pt x="124" y="1" on="0"/>
        <pt x="96" y="1" on="1"/>
        <pt x="66" y="1" on="1"/>
        <pt x="36" y="10" on="1"/>
        <pt x="20" y="17" on="0"/>
        <pt x="20" y="26" on="1"/>
        <pt x="20" y="669" on="1"/>
        <pt x="23" y="682" on="0"/>
        <pt x="67" y="694" on="0"/>
      </contour>
    </TTGlyph>
    <TTGlyph name="W" xMin="20" yMin="1" xMax="784" yMax="695">
      <contour>
        <pt x="88" y="695" on="1"/>
        <pt x="100" y="695" on="0"/>
        <pt x="124" y="692" on="0"/>
        <pt x="145" y="685" on="0"/>
        <pt x="158" y="675" on="0"/>
        <pt x="158" y="669" on="1"/>
        <pt x="164" y="363" on="1"/>
        <pt x="166" y="361" on="0"/>
        <pt x="166" y="351" on="1"/>
        <pt x="170" y="344" on="0"/>
        <pt x="170" y="329" on="1"/>
        <pt x="176" y="317" on="0"/>
        <pt x="176" y="305" on="1"/>
        <pt x="180" y="298" on="0"/>
        <pt x="180" y="287" on="1"/>
        <pt x="182" y="285" on="0"/>
        <pt x="182" y="278" on="1"/>
        <pt x="188" y="270" on="0"/>
        <pt x="188" y="262" on="1"/>
        <pt x="194" y="253" on="0"/>
        <pt x="194" y="246" on="1"/>
        <pt x="200" y="234" on="1"/>
        <pt x="218" y="199" on="1"/>
        <pt x="246" y="158" on="1"/>
        <pt x="284" y="119" on="1"/>
        <pt x="295" y="111" on="0"/>
        <pt x="318" y="98" on="0"/>
        <pt x="332" y="93" on="1"/>
        <pt x="332" y="669" on="1"/>
        <pt x="332" y="682" on="0"/>
        <pt x="356" y="688" on="1"/>
        <pt x="380" y="695" on="0"/>
        <pt x="400" y="695" on="1"/>
        <pt x="432" y="693" on="1"/>
        <pt x="451" y="690" on="0"/>
        <pt x="458" y="683" on="1"/>
        <pt x="463" y="680" on="0"/>
        <pt x="466" y="675" on="1"/>
        <pt x="472" y="669" on="1"/>
        <pt x="472" y="93" on="1"/>
        <pt x="502" y="103" on="0"/>
        <pt x="520" y="120" on="1"/>
        <pt x="535" y="132" on="0"/>
        <pt x="547" y="144" on="0"/>
        <pt x="558" y="157" on="1"/>
        <pt x="566" y="165" on="0"/>
        <pt x="582" y="188" on="0"/>
        <pt x="586" y="197" on="1"/>
        <pt x="604" y="232" on="1"/>
        <pt x="608" y="236" on="0"/>
        <pt x="608" y="247" on="1"/>
        <pt x="616" y="267" on="1"/>
        <pt x="624" y="287" on="1"/>
        <pt x="625" y="289" on="0"/>
        <pt x="627" y="295" on="0"/>
        <pt x="628" y="299" on="1"/>
        <pt x="632" y="304" on="0"/>
        <pt x="632" y="322" on="1"/>
        <pt x="635" y="330" on="0"/>
        <pt x="636" y="344" on="0"/>
        <pt x="636" y="352" on="1"/>
        <pt x="642" y="367" on="0"/>
        <pt x="642" y="379" on="1"/>
        <pt x="644" y="395" on="1"/>
        <pt x="644" y="669" on="1"/>
        <pt x="645" y="675" on="0"/>
        <pt x="661" y="685" on="0"/>
        <pt x="682" y="692" on="0"/>
        <pt x="705" y="695" on="0"/>
        <pt x="714" y="695" on="1"/>
        <pt x="736" y="695" on="0"/>
        <pt x="760" y="689" on="1"/>
        <pt x="784" y="681" on="0"/>
        <pt x="784" y="669" on="1"/>
        <pt x="784" y="393" on="1"/>
        <pt x="782" y="389" on="0"/>
        <pt x="782" y="377" on="1"/>
        <pt x="780" y="367" on="0"/>
        <pt x="780" y="352" on="1"/>
        <pt x="776" y="344" on="0"/>
        <pt x="776" y="327" on="1"/>
        <pt x="772" y="320" on="0"/>
        <pt x="772" y="309" on="1"/>
        <pt x="768" y="292" on="1"/>
        <pt x="758" y="266" on="1"/>
        <pt x="750" y="239" on="1"/>
        <pt x="744" y="222" on="1"/>
        <pt x="741" y="216" on="0"/>
        <pt x="732" y="200" on="0"/>
        <pt x="727" y="190" on="1"/>
        <pt x="719" y="176" on="0"/>
        <pt x="709" y="158" on="0"/>
        <pt x="706" y="153" on="1"/>
        <pt x="685" y="124" on="0"/>
        <pt x="629" y="70" on="0"/>
        <pt x="554" y="28" on="0"/>
        <pt x="460" y="2" on="0"/>
        <pt x="402" y="1" on="1"/>
        <pt x="366" y="1" on="0"/>
        <pt x="306" y="11" on="0"/>
        <pt x="278" y="20" on="1"/>
        <pt x="224" y="39" on="0"/>
        <pt x="142" y="98" on="0"/>
        <pt x="116" y="130" on="1"/>
        <pt x="87" y="163" on="0"/>
        <pt x="74" y="191" on="1"/>
        <pt x="48" y="236" on="0"/>
        <pt x="34" y="295" on="1"/>
        <pt x="26" y="324" on="0"/>
        <pt x="20" y="374" on="0"/>
        <pt x="20" y="401" on="1"/>
        <pt x="20" y="669" on="1"/>
        <pt x="23" y="683" on="0"/>
        <pt x="67" y="695" on="0"/>
      </contour>
    </TTGlyph>
    <TTGlyph name="X" xMin="20" yMin="1" xMax="576" yMax="694">
      <contour>
        <pt x="20" y="34" on="1"/>
        <pt x="20" y="39" on="1"/>
        <pt x="24" y="46" on="1"/>
        <pt x="224" y="348" on="1"/>
        <pt x="24" y="649" on="1"/>
        <pt x="20" y="655" on="1"/>
        <pt x="20" y="661" on="1"/>
        <pt x="20" y="669" on="0"/>
        <pt x="32" y="681" on="1"/>
        <pt x="48" y="694" on="0"/>
        <pt x="66" y="694" on="1"/>
        <pt x="114" y="694" on="1"/>
        <pt x="130" y="692" on="0"/>
        <pt x="156" y="677" on="0"/>
        <pt x="158" y="673" on="1"/>
        <pt x="300" y="461" on="1"/>
        <pt x="442" y="675" on="1"/>
        <pt x="450" y="686" on="0"/>
        <pt x="468" y="689" on="1"/>
        <pt x="488" y="694" on="0"/>
        <pt x="506" y="694" on="1"/>
        <pt x="576" y="694" on="0"/>
        <pt x="576" y="659" on="1"/>
        <pt x="576" y="651" on="1"/>
        <pt x="376" y="348" on="1"/>
        <pt x="576" y="44" on="1"/>
        <pt x="576" y="36" on="1"/>
        <pt x="576" y="1" on="0"/>
        <pt x="506" y="1" on="1"/>
        <pt x="468" y="5" on="1"/>
        <pt x="448" y="11" on="0"/>
        <pt x="442" y="21" on="1"/>
        <pt x="300" y="234" on="1"/>
        <pt x="158" y="23" on="1"/>
        <pt x="154" y="18" on="0"/>
        <pt x="127" y="1" on="0"/>
        <pt x="114" y="1" on="1"/>
        <pt x="66" y="1" on="1"/>
        <pt x="44" y="1" on="0"/>
        <pt x="20" y="27" on="0"/>
      </contour>
    </TTGlyph>
    <TTGlyph name="Y" xMin="20" yMin="1" xMax="572" yMax="694">
      <contour>
        <pt x="226" y="314" on="1"/>
        <pt x="160" y="326" on="0"/>
        <pt x="112" y="344" on="1"/>
        <pt x="61" y="365" on="0"/>
        <pt x="40" y="396" on="1"/>
        <pt x="26" y="414" on="1"/>
        <pt x="20" y="426" on="0"/>
        <pt x="20" y="434" on="1"/>
        <pt x="20" y="671" on="1"/>
        <pt x="20" y="684" on="0"/>
        <pt x="39" y="688" on="1"/>
        <pt x="59" y="692" on="0"/>
        <pt x="81" y="694" on="0"/>
        <pt x="90" y="694" on="1"/>
        <pt x="102" y="694" on="0"/>
        <pt x="123" y="690" on="0"/>
        <pt x="136" y="687" on="1"/>
        <pt x="160" y="678" on="0"/>
        <pt x="160" y="667" on="1"/>
        <pt x="160" y="441" on="1"/>
        <pt x="160" y="440" on="0"/>
        <pt x="161" y="440" on="1"/>
        <pt x="162" y="438" on="0"/>
        <pt x="162" y="434" on="1"/>
        <pt x="168" y="426" on="1"/>
        <pt x="188" y="403" on="0"/>
        <pt x="251" y="385" on="0"/>
        <pt x="296" y="385" on="1"/>
        <pt x="318" y="385" on="0"/>
        <pt x="352" y="389" on="0"/>
        <pt x="370" y="392" on="1"/>
        <pt x="406" y="401" on="0"/>
        <pt x="420" y="420" on="1"/>
        <pt x="428" y="431" on="1"/>
        <pt x="434" y="440" on="1"/>
        <pt x="434" y="665" on="1"/>
        <pt x="436" y="670" on="0"/>
        <pt x="443" y="679" on="0"/>
        <pt x="450" y="683" on="1"/>
        <pt x="467" y="694" on="0"/>
        <pt x="482" y="694" on="1"/>
        <pt x="530" y="694" on="1"/>
        <pt x="557" y="689" on="0"/>
        <pt x="569" y="677" on="1"/>
        <pt x="571" y="675" on="0"/>
        <pt x="572" y="673" on="1"/>
        <pt x="572" y="432" on="1"/>
        <pt x="572" y="425" on="0"/>
        <pt x="561" y="410" on="0"/>
        <pt x="556" y="400" on="1"/>
        <pt x="529" y="363" on="0"/>
        <pt x="482" y="346" on="1"/>
        <pt x="435" y="326" on="0"/>
        <pt x="366" y="314" on="1"/>
        <pt x="366" y="26" on="1"/>
        <pt x="360" y="20" on="1"/>
        <pt x="352" y="13" on="1"/>
        <pt x="341" y="4" on="0"/>
        <pt x="314" y="1" on="0"/>
        <pt x="307" y="1" on="1"/>
        <pt x="294" y="1" on="1"/>
        <pt x="274" y="1" on="0"/>
        <pt x="250" y="7" on="1"/>
        <pt x="226" y="14" on="0"/>
        <pt x="226" y="26" on="1"/>
      </contour>
    </TTGlyph>
    <TTGlyph name="Z" xMin="20" yMin="1" xMax="576" yMax="694">
      <contour>
        <pt x="20" y="35" on="1"/>
        <pt x="20" y="42" on="1"/>
        <pt x="408" y="625" on="1"/>
        <pt x="82" y="625" on="1"/>
        <pt x="53" y="625" on="0"/>
        <pt x="36" y="636" on="1"/>
        <pt x="20" y="648" on="0"/>
        <pt x="20" y="661" on="1"/>
        <pt x="20" y="670" on="0"/>
        <pt x="32" y="682" on="1"/>
        <pt x="47" y="694" on="0"/>
        <pt x="66" y="694" on="1"/>
        <pt x="530" y="694" on="1"/>
        <pt x="550" y="694" on="0"/>
        <pt x="562" y="682" on="1"/>
        <pt x="576" y="671" on="0"/>
        <pt x="576" y="661" on="1"/>
        <pt x="576" y="654" on="1"/>
        <pt x="572" y="647" on="1"/>
        <pt x="190" y="71" on="1"/>
        <pt x="514" y="71" on="1"/>
        <pt x="542" y="71" on="0"/>
        <pt x="558" y="58" on="1"/>
        <pt x="576" y="46" on="0"/>
        <pt x="576" y="34" on="1"/>
        <pt x="573" y="24" on="0"/>
        <pt x="562" y="13" on="1"/>
        <pt x="547" y="1" on="0"/>
        <pt x="530" y="1" on="1"/>
        <pt x="66" y="1" on="1"/>
        <pt x="44" y="1" on="0"/>
        <pt x="20" y="27" on="0"/>
      </contour>
    </TTGlyph>
    <TTGlyph name="a" xMin="20" yMin="1" xMax="576" yMax="381">
      <contour>
        <pt x="20" y="141" on="1"/>
        <pt x="20" y="227" on="0"/>
        <pt x="108" y="287" on="1"/>
        <pt x="198" y="348" on="0"/>
        <pt x="360" y="371" on="1"/>
        <pt x="381" y="375" on="0"/>
        <pt x="414" y="378" on="0"/>
        <pt x="426" y="378" on="1"/>
        <pt x="492" y="381" on="1"/>
        <pt x="530" y="381" on="1"/>
        <pt x="560" y="372" on="1"/>
        <pt x="576" y="365" on="0"/>
        <pt x="576" y="357" on="1"/>
        <pt x="576" y="24" on="1"/>
        <pt x="574" y="17" on="0"/>
        <pt x="560" y="8" on="0"/>
        <pt x="540" y="3" on="0"/>
        <pt x="516" y="1" on="0"/>
        <pt x="506" y="1" on="1"/>
        <pt x="467" y="1" on="0"/>
        <pt x="442" y="17" on="1"/>
        <pt x="420" y="12" on="0"/>
        <pt x="384" y="6" on="0"/>
        <pt x="370" y="4" on="1"/>
        <pt x="343" y="1" on="0"/>
        <pt x="302" y="1" on="1"/>
        <pt x="179" y="1" on="0"/>
        <pt x="98" y="39" on="1"/>
        <pt x="20" y="78" on="0"/>
      </contour>
      <contour>
        <pt x="160" y="140" on="1"/>
        <pt x="163" y="108" on="0"/>
        <pt x="198" y="90" on="1"/>
        <pt x="237" y="71" on="0"/>
        <pt x="298" y="71" on="1"/>
        <pt x="346" y="74" on="1"/>
        <pt x="390" y="85" on="1"/>
        <pt x="412" y="94" on="0"/>
        <pt x="436" y="112" on="0"/>
        <pt x="436" y="126" on="1"/>
        <pt x="436" y="307" on="1"/>
        <pt x="392" y="303" on="1"/>
        <pt x="352" y="295" on="1"/>
        <pt x="255" y="271" on="0"/>
        <pt x="160" y="191" on="0"/>
      </contour>
    </TTGlyph>
    <TTGlyph name="ae" xMin="20" yMin="1" xMax="992" yMax="381">
      <contour>
        <pt x="20" y="111" on="1"/>
        <pt x="20" y="143" on="1"/>
        <pt x="20" y="228" on="0"/>
        <pt x="192" y="347" on="0"/>
        <pt x="358" y="371" on="1"/>
        <pt x="388" y="376" on="0"/>
        <pt x="454" y="381" on="0"/>
        <pt x="490" y="381" on="1"/>
        <pt x="530" y="381" on="1"/>
        <pt x="556" y="372" on="1"/>
        <pt x="574" y="363" on="0"/>
        <pt x="574" y="358" on="1"/>
        <pt x="574" y="318" on="1"/>
        <pt x="609" y="332" on="0"/>
        <pt x="687" y="356" on="0"/>
        <pt x="730" y="364" on="1"/>
        <pt x="775" y="373" on="0"/>
        <pt x="863" y="381" on="0"/>
        <pt x="908" y="381" on="1"/>
        <pt x="946" y="381" on="1"/>
        <pt x="968" y="378" on="0"/>
        <pt x="980" y="369" on="1"/>
        <pt x="992" y="358" on="0"/>
        <pt x="992" y="348" on="1"/>
        <pt x="989" y="332" on="0"/>
        <pt x="963" y="317" on="0"/>
        <pt x="938" y="314" on="1"/>
        <pt x="919" y="310" on="0"/>
        <pt x="890" y="310" on="1"/>
        <pt x="844" y="307" on="1"/>
        <pt x="790" y="300" on="0"/>
        <pt x="695" y="279" on="0"/>
        <pt x="666" y="262" on="1"/>
        <pt x="670" y="262" on="1"/>
        <pt x="692" y="263" on="1"/>
        <pt x="716" y="266" on="1"/>
        <pt x="746" y="266" on="0"/>
        <pt x="764" y="254" on="1"/>
        <pt x="784" y="243" on="0"/>
        <pt x="784" y="229" on="1"/>
        <pt x="784" y="216" on="0"/>
        <pt x="760" y="203" on="0"/>
        <pt x="742" y="198" on="1"/>
        <pt x="702" y="191" on="1"/>
        <pt x="666" y="185" on="1"/>
        <pt x="606" y="168" on="1"/>
        <pt x="576" y="156" on="0"/>
        <pt x="576" y="139" on="1"/>
        <pt x="579" y="107" on="0"/>
        <pt x="614" y="89" on="1"/>
        <pt x="656" y="71" on="0"/>
        <pt x="716" y="71" on="1"/>
        <pt x="763" y="71" on="0"/>
        <pt x="790" y="78" on="1"/>
        <pt x="816" y="87" on="0"/>
        <pt x="841" y="108" on="0"/>
        <pt x="844" y="122" on="1"/>
        <pt x="856" y="147" on="1"/>
        <pt x="863" y="154" on="0"/>
        <pt x="873" y="164" on="0"/>
        <pt x="878" y="166" on="1"/>
        <pt x="896" y="174" on="0"/>
        <pt x="924" y="174" on="1"/>
        <pt x="960" y="174" on="0"/>
        <pt x="992" y="149" on="0"/>
        <pt x="992" y="133" on="1"/>
        <pt x="989" y="102" on="0"/>
        <pt x="970" y="80" on="1"/>
        <pt x="946" y="56" on="0"/>
        <pt x="910" y="38" on="1"/>
        <pt x="828" y="1" on="0"/>
        <pt x="718" y="1" on="1"/>
        <pt x="655" y="1" on="0"/>
        <pt x="555" y="20" on="0"/>
        <pt x="506" y="40" on="1"/>
        <pt x="502" y="40" on="1"/>
        <pt x="460" y="19" on="0"/>
        <pt x="353" y="1" on="0"/>
        <pt x="296" y="1" on="1"/>
        <pt x="272" y="1" on="0"/>
        <pt x="224" y="5" on="0"/>
        <pt x="200" y="8" on="1"/>
        <pt x="176" y="13" on="0"/>
        <pt x="132" y="24" on="0"/>
        <pt x="116" y="30" on="1"/>
        <pt x="76" y="44" on="0"/>
        <pt x="26" y="86" on="0"/>
      </contour>
      <contour>
        <pt x="162" y="123" on="1"/>
        <pt x="174" y="95" on="0"/>
        <pt x="248" y="71" on="0"/>
        <pt x="296" y="71" on="1"/>
        <pt x="342" y="74" on="1"/>
        <pt x="356" y="76" on="0"/>
        <pt x="378" y="82" on="0"/>
        <pt x="386" y="84" on="1"/>
        <pt x="397" y="89" on="0"/>
        <pt x="413" y="97" on="0"/>
        <pt x="418" y="101" on="1"/>
        <pt x="432" y="112" on="0"/>
        <pt x="432" y="124" on="1"/>
        <pt x="432" y="307" on="1"/>
        <pt x="421" y="307" on="0"/>
        <pt x="398" y="304" on="0"/>
        <pt x="384" y="302" on="1"/>
        <pt x="342" y="293" on="1"/>
        <pt x="245" y="272" on="0"/>
        <pt x="160" y="192" on="0"/>
        <pt x="160" y="144" on="1"/>
        <pt x="160" y="133" on="1"/>
      </contour>
    </TTGlyph>
    <TTGlyph name="ampersand" xMin="20" yMin="-104" xMax="576" yMax="801">
      <contour>
        <pt x="20" y="129" on="1"/>
        <pt x="20" y="203" on="1"/>
        <pt x="24" y="313" on="1"/>
        <pt x="29" y="344" on="0"/>
        <pt x="42" y="400" on="0"/>
        <pt x="50" y="424" on="1"/>
        <pt x="63" y="454" on="0"/>
        <pt x="94" y="506" on="0"/>
        <pt x="114" y="530" on="1"/>
        <pt x="160" y="584" on="0"/>
        <pt x="230" y="624" on="1"/>
        <pt x="230" y="777" on="1"/>
        <pt x="233" y="787" on="0"/>
        <pt x="256" y="793" on="1"/>
        <pt x="273" y="799" on="0"/>
        <pt x="285" y="801" on="0"/>
        <pt x="298" y="801" on="1"/>
        <pt x="322" y="801" on="0"/>
        <pt x="346" y="792" on="1"/>
        <pt x="370" y="781" on="0"/>
        <pt x="370" y="769" on="1"/>
        <pt x="370" y="679" on="1"/>
        <pt x="388" y="683" on="0"/>
        <pt x="421" y="689" on="0"/>
        <pt x="434" y="690" on="1"/>
        <pt x="451" y="693" on="0"/>
        <pt x="484" y="695" on="0"/>
        <pt x="500" y="695" on="1"/>
        <pt x="530" y="695" on="1"/>
        <pt x="576" y="683" on="0"/>
        <pt x="576" y="662" on="1"/>
        <pt x="576" y="647" on="0"/>
        <pt x="551" y="633" on="0"/>
        <pt x="525" y="629" on="0"/>
        <pt x="504" y="625" on="0"/>
        <pt x="492" y="625" on="1"/>
        <pt x="450" y="619" on="1"/>
        <pt x="387" y="604" on="0"/>
        <pt x="340" y="580" on="1"/>
        <pt x="317" y="569" on="0"/>
        <pt x="279" y="541" on="0"/>
        <pt x="264" y="526" on="1"/>
        <pt x="234" y="497" on="0"/>
        <pt x="214" y="462" on="1"/>
        <pt x="204" y="443" on="0"/>
        <pt x="189" y="411" on="0"/>
        <pt x="184" y="397" on="1"/>
        <pt x="182" y="395" on="0"/>
        <pt x="182" y="390" on="1"/>
        <pt x="176" y="373" on="1"/>
        <pt x="172" y="366" on="0"/>
        <pt x="172" y="354" on="1"/>
        <pt x="168" y="349" on="0"/>
        <pt x="168" y="339" on="1"/>
        <pt x="168" y="337" on="1"/>
        <pt x="216" y="349" on="1"/>
        <pt x="262" y="362" on="1"/>
        <pt x="279" y="367" on="0"/>
        <pt x="299" y="371" on="0"/>
        <pt x="301" y="372" on="1"/>
        <pt x="332" y="378" on="0"/>
        <pt x="366" y="378" on="1"/>
        <pt x="368" y="378" on="0"/>
        <pt x="392" y="379" on="0"/>
        <pt x="436" y="381" on="0"/>
        <pt x="467" y="382" on="0"/>
        <pt x="476" y="382" on="1"/>
        <pt x="530" y="382" on="1"/>
        <pt x="552" y="379" on="0"/>
        <pt x="576" y="358" on="0"/>
        <pt x="576" y="348" on="1"/>
        <pt x="573" y="329" on="0"/>
        <pt x="535" y="315" on="0"/>
        <pt x="504" y="312" on="1"/>
        <pt x="444" y="309" on="1"/>
        <pt x="388" y="307" on="1"/>
        <pt x="308" y="293" on="1"/>
        <pt x="278" y="286" on="0"/>
        <pt x="225" y="266" on="0"/>
        <pt x="184" y="240" on="0"/>
        <pt x="160" y="211" on="0"/>
        <pt x="160" y="196" on="1"/>
        <pt x="160" y="137" on="1"/>
        <pt x="163" y="105" on="0"/>
        <pt x="240" y="72" on="0"/>
        <pt x="298" y="72" on="1"/>
        <pt x="345" y="72" on="0"/>
        <pt x="372" y="79" on="1"/>
        <pt x="398" y="88" on="0"/>
        <pt x="425" y="112" on="0"/>
        <pt x="428" y="123" on="1"/>
        <pt x="440" y="147" on="1"/>
        <pt x="447" y="154" on="0"/>
        <pt x="457" y="164" on="0"/>
        <pt x="462" y="166" on="1"/>
        <pt x="480" y="174" on="0"/>
        <pt x="508" y="174" on="1"/>
        <pt x="541" y="174" on="0"/>
        <pt x="558" y="163" on="1"/>
        <pt x="576" y="151" on="0"/>
        <pt x="576" y="137" on="1"/>
        <pt x="576" y="105" on="0"/>
        <pt x="517" y="41" on="0"/>
        <pt x="462" y="23" on="1"/>
        <pt x="452" y="19" on="0"/>
        <pt x="431" y="14" on="0"/>
        <pt x="420" y="12" on="1"/>
        <pt x="376" y="4" on="1"/>
        <pt x="370" y="2" on="1"/>
        <pt x="370" y="-73" on="1"/>
        <pt x="370" y="-80" on="0"/>
        <pt x="356" y="-92" on="0"/>
        <pt x="335" y="-100" on="0"/>
        <pt x="310" y="-104" on="0"/>
        <pt x="298" y="-104" on="1"/>
        <pt x="282" y="-104" on="0"/>
        <pt x="257" y="-97" on="1"/>
        <pt x="230" y="-90" on="0"/>
        <pt x="230" y="-81" on="1"/>
        <pt x="230" y="2" on="1"/>
        <pt x="216" y="4" on="1"/>
        <pt x="192" y="8" on="1"/>
        <pt x="176" y="12" on="1"/>
        <pt x="104" y="30" on="0"/>
        <pt x="26" y="90" on="0"/>
      </contour>
    </TTGlyph>
    <TTGlyph name="asciicircum" xMin="20" yMin="524" xMax="576" yMax="697">
      <contour>
        <pt x="20" y="558" on="1"/>
        <pt x="22" y="564" on="0"/>
        <pt x="22" y="569" on="1"/>
        <pt x="26" y="573" on="0"/>
        <pt x="30" y="578" on="0"/>
        <pt x="32" y="579" on="1"/>
        <pt x="258" y="692" on="1"/>
        <pt x="265" y="696" on="0"/>
        <pt x="278" y="696" on="1"/>
        <pt x="302" y="697" on="1"/>
        <pt x="320" y="697" on="1"/>
        <pt x="331" y="696" on="0"/>
        <pt x="338" y="692" on="1"/>
        <pt x="568" y="577" on="1"/>
        <pt x="576" y="572" on="0"/>
        <pt x="576" y="567" on="1"/>
        <pt x="576" y="557" on="1"/>
        <pt x="573" y="541" on="0"/>
        <pt x="535" y="524" on="0"/>
        <pt x="508" y="524" on="1"/>
        <pt x="486" y="525" on="1"/>
        <pt x="466" y="530" on="1"/>
        <pt x="298" y="612" on="1"/>
        <pt x="126" y="528" on="1"/>
        <pt x="119" y="524" on="0"/>
        <pt x="108" y="524" on="1"/>
        <pt x="88" y="524" on="1"/>
        <pt x="60" y="524" on="0"/>
        <pt x="20" y="544" on="0"/>
      </contour>
    </TTGlyph>
    <TTGlyph name="asciitilde" xMin="20" yMin="263" xMax="576" yMax="435">
      <contour>
        <pt x="196" y="365" on="1"/>
        <pt x="172" y="365" on="0"/>
        <pt x="166" y="357" on="1"/>
        <pt x="152" y="339" on="1"/>
        <pt x="144" y="329" on="0"/>
        <pt x="119" y="314" on="0"/>
        <pt x="88" y="314" on="1"/>
        <pt x="56" y="314" on="0"/>
        <pt x="36" y="325" on="1"/>
        <pt x="20" y="335" on="0"/>
        <pt x="20" y="351" on="1"/>
        <pt x="20" y="390" on="0"/>
        <pt x="69" y="412" on="1"/>
        <pt x="120" y="435" on="0"/>
        <pt x="192" y="435" on="1"/>
        <pt x="259" y="435" on="0"/>
        <pt x="352" y="397" on="0"/>
        <pt x="364" y="365" on="1"/>
        <pt x="370" y="353" on="0"/>
        <pt x="370" y="343" on="1"/>
        <pt x="376" y="333" on="0"/>
        <pt x="402" y="333" on="1"/>
        <pt x="419" y="333" on="0"/>
        <pt x="435" y="344" on="0"/>
        <pt x="438" y="350" on="1"/>
        <pt x="446" y="365" on="1"/>
        <pt x="454" y="373" on="0"/>
        <pt x="466" y="379" on="1"/>
        <pt x="474" y="381" on="1"/>
        <pt x="482" y="382" on="1"/>
        <pt x="530" y="382" on="1"/>
        <pt x="551" y="382" on="0"/>
        <pt x="576" y="357" on="0"/>
        <pt x="576" y="348" on="1"/>
        <pt x="576" y="310" on="0"/>
        <pt x="525" y="286" on="1"/>
        <pt x="474" y="263" on="0"/>
        <pt x="402" y="263" on="1"/>
        <pt x="342" y="263" on="0"/>
        <pt x="253" y="294" on="0"/>
        <pt x="236" y="322" on="1"/>
        <pt x="230" y="328" on="0"/>
        <pt x="230" y="334" on="1"/>
        <pt x="228" y="348" on="1"/>
        <pt x="218" y="360" on="1"/>
        <pt x="210" y="365" on="0"/>
      </contour>
    </TTGlyph>
    <TTGlyph name="asterisk" xMin="20" yMin="440" xMax="556" yMax="697">
      <contour>
        <pt x="94" y="475" on="1"/>
        <pt x="96" y="484" on="0"/>
        <pt x="102" y="491" on="1"/>
        <pt x="170" y="539" on="1"/>
        <pt x="56" y="559" on="1"/>
        <pt x="34" y="563" on="0"/>
        <pt x="28" y="572" on="1"/>
        <pt x="20" y="582" on="0"/>
        <pt x="20" y="591" on="1"/>
        <pt x="23" y="608" on="0"/>
        <pt x="64" y="624" on="0"/>
        <pt x="90" y="624" on="1"/>
        <pt x="110" y="624" on="1"/>
        <pt x="218" y="607" on="1"/>
        <pt x="218" y="671" on="1"/>
        <pt x="221" y="684" on="0"/>
        <pt x="246" y="690" on="1"/>
        <pt x="270" y="697" on="0"/>
        <pt x="290" y="697" on="1"/>
        <pt x="306" y="697" on="0"/>
        <pt x="331" y="690" on="1"/>
        <pt x="358" y="682" on="0"/>
        <pt x="358" y="671" on="1"/>
        <pt x="358" y="608" on="1"/>
        <pt x="380" y="611" on="1"/>
        <pt x="418" y="617" on="1"/>
        <pt x="454" y="622" on="1"/>
        <pt x="478" y="626" on="1"/>
        <pt x="486" y="626" on="1"/>
        <pt x="516" y="626" on="0"/>
        <pt x="556" y="606" on="0"/>
        <pt x="556" y="592" on="1"/>
        <pt x="553" y="576" on="0"/>
        <pt x="540" y="569" on="1"/>
        <pt x="521" y="559" on="0"/>
        <pt x="500" y="554" on="1"/>
        <pt x="450" y="546" on="1"/>
        <pt x="404" y="540" on="1"/>
        <pt x="416" y="530" on="1"/>
        <pt x="436" y="516" on="1"/>
        <pt x="456" y="502" on="1"/>
        <pt x="470" y="493" on="1"/>
        <pt x="478" y="485" on="1"/>
        <pt x="478" y="476" on="1"/>
        <pt x="478" y="459" on="0"/>
        <pt x="440" y="440" on="0"/>
        <pt x="410" y="440" on="1"/>
        <pt x="386" y="440" on="0"/>
        <pt x="368" y="446" on="1"/>
        <pt x="358" y="450" on="0"/>
        <pt x="343" y="458" on="0"/>
        <pt x="338" y="462" on="1"/>
        <pt x="314" y="481" on="1"/>
        <pt x="306" y="486" on="0"/>
        <pt x="292" y="495" on="0"/>
        <pt x="286" y="497" on="1"/>
        <pt x="262" y="479" on="1"/>
        <pt x="236" y="460" on="1"/>
        <pt x="224" y="453" on="0"/>
        <pt x="186" y="440" on="0"/>
        <pt x="164" y="440" on="1"/>
        <pt x="134" y="440" on="0"/>
        <pt x="94" y="460" on="0"/>
      </contour>
    </TTGlyph>
    <TTGlyph name="at" xMin="20" yMin="1" xMax="996" yMax="695">
      <contour>
        <pt x="728" y="158" on="1"/>
        <pt x="694" y="158" on="1"/>
        <pt x="672" y="164" on="1"/>
        <pt x="656" y="173" on="1"/>
        <pt x="652" y="173" on="1"/>
        <pt x="580" y="162" on="1"/>
        <pt x="564" y="159" on="0"/>
        <pt x="527" y="157" on="0"/>
        <pt x="508" y="157" on="1"/>
        <pt x="405" y="157" on="0"/>
        <pt x="328" y="188" on="1"/>
        <pt x="250" y="219" on="0"/>
        <pt x="232" y="270" on="1"/>
        <pt x="232" y="301" on="1"/>
        <pt x="232" y="352" on="0"/>
        <pt x="266" y="395" on="1"/>
        <pt x="307" y="442" on="0"/>
        <pt x="364" y="470" on="1"/>
        <pt x="428" y="502" on="0"/>
        <pt x="601" y="538" on="0"/>
        <pt x="704" y="538" on="1"/>
        <pt x="742" y="538" on="1"/>
        <pt x="768" y="529" on="1"/>
        <pt x="786" y="520" on="0"/>
        <pt x="786" y="515" on="1"/>
        <pt x="786" y="236" on="1"/>
        <pt x="823" y="242" on="0"/>
        <pt x="838" y="258" on="1"/>
        <pt x="847" y="268" on="0"/>
        <pt x="854" y="284" on="0"/>
        <pt x="854" y="293" on="1"/>
        <pt x="854" y="456" on="1"/>
        <pt x="851" y="476" on="0"/>
        <pt x="846" y="488" on="1"/>
        <pt x="828" y="520" on="1"/>
        <pt x="786" y="576" on="0"/>
        <pt x="619" y="625" on="0"/>
        <pt x="508" y="625" on="1"/>
        <pt x="492" y="625" on="0"/>
        <pt x="481" y="625" on="1"/>
        <pt x="470" y="625" on="0"/>
        <pt x="456" y="623" on="0"/>
        <pt x="430" y="620" on="0"/>
        <pt x="411" y="618" on="1"/>
        <pt x="372" y="613" on="0"/>
        <pt x="338" y="603" on="1"/>
        <pt x="316" y="596" on="0"/>
        <pt x="274" y="575" on="0"/>
        <pt x="260" y="565" on="1"/>
        <pt x="227" y="541" on="0"/>
        <pt x="206" y="514" on="1"/>
        <pt x="190" y="495" on="0"/>
        <pt x="165" y="447" on="0"/>
        <pt x="162" y="424" on="1"/>
        <pt x="162" y="407" on="1"/>
        <pt x="162" y="238" on="1"/>
        <pt x="164" y="222" on="0"/>
        <pt x="171" y="198" on="0"/>
        <pt x="178" y="186" on="1"/>
        <pt x="196" y="159" on="0"/>
        <pt x="226" y="138" on="1"/>
        <pt x="240" y="127" on="0"/>
        <pt x="276" y="108" on="0"/>
        <pt x="298" y="100" on="1"/>
        <pt x="342" y="83" on="0"/>
        <pt x="392" y="77" on="1"/>
        <pt x="428" y="73" on="1"/>
        <pt x="456" y="71" on="1"/>
        <pt x="934" y="71" on="1"/>
        <pt x="950" y="71" on="0"/>
        <pt x="973" y="61" on="0"/>
        <pt x="978" y="58" on="1"/>
        <pt x="996" y="46" on="0"/>
        <pt x="996" y="34" on="1"/>
        <pt x="996" y="25" on="0"/>
        <pt x="984" y="13" on="1"/>
        <pt x="969" y="1" on="0"/>
        <pt x="950" y="1" on="1"/>
        <pt x="436" y="1" on="1"/>
        <pt x="396" y="4" on="1"/>
        <pt x="354" y="9" on="1"/>
        <pt x="236" y="27" on="0"/>
        <pt x="81" y="104" on="0"/>
        <pt x="48" y="162" on="1"/>
        <pt x="28" y="197" on="1"/>
        <pt x="20" y="218" on="0"/>
        <pt x="20" y="234" on="1"/>
        <pt x="20" y="413" on="1"/>
        <pt x="20" y="451" on="0"/>
        <pt x="38" y="490" on="1"/>
        <pt x="69" y="550" on="0"/>
        <pt x="205" y="654" on="0"/>
        <pt x="314" y="677" on="1"/>
        <pt x="374" y="689" on="1"/>
        <pt x="410" y="695" on="0"/>
        <pt x="440" y="695" on="1"/>
        <pt x="580" y="695" on="1"/>
        <pt x="602" y="695" on="1"/>
        <pt x="605" y="694" on="0"/>
        <pt x="623" y="692" on="0"/>
        <pt x="638" y="690" on="1"/>
        <pt x="698" y="681" on="1"/>
        <pt x="770" y="667" on="0"/>
        <pt x="866" y="628" on="0"/>
        <pt x="900" y="602" on="1"/>
        <pt x="920" y="589" on="0"/>
        <pt x="946" y="562" on="0"/>
        <pt x="958" y="545" on="1"/>
        <pt x="972" y="529" on="0"/>
        <pt x="987" y="500" on="0"/>
        <pt x="992" y="481" on="1"/>
        <pt x="994" y="477" on="0"/>
        <pt x="994" y="471" on="1"/>
        <pt x="996" y="462" on="1"/>
        <pt x="996" y="281" on="1"/>
        <pt x="996" y="254" on="0"/>
        <pt x="948" y="209" on="0"/>
        <pt x="912" y="192" on="1"/>
        <pt x="874" y="176" on="0"/>
        <pt x="776" y="158" on="0"/>
      </contour>
      <contour>
        <pt x="372" y="301" on="1"/>
        <pt x="375" y="267" on="0"/>
        <pt x="404" y="247" on="1"/>
        <pt x="438" y="228" on="0"/>
        <pt x="508" y="228" on="1"/>
        <pt x="554" y="231" on="1"/>
        <pt x="568" y="233" on="0"/>
        <pt x="590" y="239" on="0"/>
        <pt x="598" y="241" on="1"/>
        <pt x="609" y="246" on="0"/>
        <pt x="625" y="254" on="0"/>
        <pt x="630" y="258" on="1"/>
        <pt x="644" y="269" on="0"/>
        <pt x="644" y="281" on="1"/>
        <pt x="644" y="464" on="1"/>
        <pt x="616" y="464" on="0"/>
        <pt x="592" y="458" on="1"/>
        <pt x="546" y="448" on="1"/>
        <pt x="453" y="427" on="0"/>
        <pt x="372" y="349" on="0"/>
      </contour>
    </TTGlyph>
    <TTGlyph name="b" xMin="20" yMin="1" xMax="572" yMax="694">
      <contour>
        <pt x="90" y="694" on="1"/>
        <pt x="102" y="694" on="0"/>
        <pt x="123" y="690" on="0"/>
        <pt x="136" y="687" on="1"/>
        <pt x="160" y="678" on="0"/>
        <pt x="160" y="667" on="1"/>
        <pt x="160" y="381" on="1"/>
        <pt x="354" y="357" on="0"/>
        <pt x="463" y="301" on="1"/>
        <pt x="572" y="246" on="0"/>
        <pt x="572" y="143" on="1"/>
        <pt x="572" y="111" on="1"/>
        <pt x="563" y="84" on="0"/>
        <pt x="540" y="64" on="1"/>
        <pt x="509" y="42" on="0"/>
        <pt x="476" y="30" on="1"/>
        <pt x="442" y="16" on="0"/>
        <pt x="347" y="1" on="0"/>
        <pt x="298" y="1" on="1"/>
        <pt x="222" y="1" on="0"/>
        <pt x="154" y="17" on="1"/>
        <pt x="124" y="5" on="1"/>
        <pt x="112" y="1" on="0"/>
        <pt x="90" y="1" on="1"/>
        <pt x="74" y="1" on="0"/>
        <pt x="55" y="4" on="0"/>
        <pt x="44" y="6" on="1"/>
        <pt x="20" y="12" on="0"/>
        <pt x="20" y="24" on="1"/>
        <pt x="20" y="671" on="1"/>
        <pt x="20" y="684" on="0"/>
        <pt x="39" y="688" on="1"/>
        <pt x="59" y="692" on="0"/>
        <pt x="81" y="694" on="0"/>
      </contour>
      <contour>
        <pt x="160" y="307" on="1"/>
        <pt x="160" y="124" on="1"/>
        <pt x="162" y="103" on="0"/>
        <pt x="215" y="79" on="0"/>
        <pt x="250" y="74" on="1"/>
        <pt x="296" y="71" on="1"/>
        <pt x="344" y="71" on="0"/>
        <pt x="382" y="84" on="1"/>
        <pt x="420" y="99" on="0"/>
        <pt x="432" y="122" on="1"/>
        <pt x="432" y="144" on="1"/>
        <pt x="432" y="192" on="0"/>
        <pt x="340" y="274" on="0"/>
        <pt x="252" y="293" on="1"/>
        <pt x="206" y="302" on="1"/>
        <pt x="198" y="304" on="0"/>
        <pt x="188" y="306" on="0"/>
        <pt x="179" y="307" on="0"/>
        <pt x="174" y="307" on="1"/>
        <pt x="169" y="307" on="0"/>
      </contour>
    </TTGlyph>
    <TTGlyph name="backslash" xMin="20" yMin="1" xMax="576" yMax="694">
      <contour>
        <pt x="20" y="661" on="1"/>
        <pt x="20" y="677" on="0"/>
        <pt x="56" y="693" on="0"/>
        <pt x="79" y="694" on="0"/>
        <pt x="90" y="694" on="1"/>
        <pt x="106" y="694" on="1"/>
        <pt x="108" y="693" on="0"/>
        <pt x="119" y="690" on="0"/>
        <pt x="129" y="688" on="1"/>
        <pt x="149" y="683" on="0"/>
        <pt x="154" y="675" on="1"/>
        <pt x="572" y="46" on="1"/>
        <pt x="574" y="43" on="0"/>
        <pt x="576" y="39" on="1"/>
        <pt x="576" y="34" on="1"/>
        <pt x="576" y="25" on="0"/>
        <pt x="564" y="13" on="1"/>
        <pt x="549" y="1" on="0"/>
        <pt x="530" y="1" on="1"/>
        <pt x="482" y="1" on="1"/>
        <pt x="465" y="1" on="0"/>
        <pt x="440" y="21" on="0"/>
        <pt x="436" y="28" on="1"/>
        <pt x="24" y="645" on="1"/>
        <pt x="21" y="647" on="0"/>
        <pt x="20" y="652" on="1"/>
      </contour>
    </TTGlyph>
    <TTGlyph name="bar" xMin="20" yMin="-104" xMax="156" yMax="690">
      <contour>
        <pt x="86" y="690" on="1"/>
        <pt x="130" y="685" on="1"/>
        <pt x="156" y="679" on="0"/>
        <pt x="156" y="666" on="1"/>
        <pt x="156" y="-81" on="1"/>
        <pt x="156" y="-92" on="0"/>
        <pt x="108" y="-104" on="0"/>
        <pt x="90" y="-104" on="1"/>
        <pt x="77" y="-104" on="0"/>
        <pt x="56" y="-100" on="0"/>
        <pt x="44" y="-96" on="1"/>
        <pt x="20" y="-89" on="0"/>
        <pt x="20" y="-75" on="1"/>
        <pt x="20" y="660" on="1"/>
        <pt x="23" y="675" on="0"/>
        <pt x="40" y="681" on="1"/>
        <pt x="57" y="688" on="0"/>
        <pt x="71" y="690" on="0"/>
      </contour>
    </TTGlyph>
    <TTGlyph name="braceleft" xMin="20" yMin="1" xMax="470" yMax="694">
      <contour>
        <pt x="122" y="296" on="1"/>
        <pt x="119" y="306" on="0"/>
        <pt x="106" y="309" on="1"/>
        <pt x="70" y="315" on="1"/>
        <pt x="52" y="318" on="0"/>
        <pt x="20" y="331" on="0"/>
        <pt x="20" y="347" on="1"/>
        <pt x="23" y="368" on="0"/>
        <pt x="46" y="374" on="1"/>
        <pt x="70" y="382" on="0"/>
        <pt x="106" y="385" on="1"/>
        <pt x="119" y="389" on="0"/>
        <pt x="122" y="400" on="1"/>
        <pt x="128" y="473" on="1"/>
        <pt x="132" y="491" on="0"/>
        <pt x="145" y="533" on="0"/>
        <pt x="150" y="546" on="1"/>
        <pt x="167" y="582" on="0"/>
        <pt x="198" y="614" on="1"/>
        <pt x="235" y="648" on="0"/>
        <pt x="335" y="694" on="0"/>
        <pt x="398" y="694" on="1"/>
        <pt x="424" y="694" on="1"/>
        <pt x="470" y="684" on="0"/>
        <pt x="470" y="660" on="1"/>
        <pt x="467" y="645" on="0"/>
        <pt x="452" y="633" on="0"/>
        <pt x="436" y="630" on="1"/>
        <pt x="404" y="624" on="1"/>
        <pt x="389" y="621" on="0"/>
        <pt x="372" y="615" on="1"/>
        <pt x="345" y="604" on="0"/>
        <pt x="332" y="592" on="1"/>
        <pt x="316" y="580" on="0"/>
        <pt x="304" y="564" on="1"/>
        <pt x="299" y="557" on="0"/>
        <pt x="293" y="547" on="0"/>
        <pt x="287" y="534" on="0"/>
        <pt x="282" y="517" on="0"/>
        <pt x="278" y="504" on="1"/>
        <pt x="276" y="500" on="0"/>
        <pt x="276" y="493" on="1"/>
        <pt x="272" y="488" on="0"/>
        <pt x="272" y="476" on="1"/>
        <pt x="268" y="471" on="0"/>
        <pt x="268" y="461" on="1"/>
        <pt x="266" y="451" on="1"/>
        <pt x="264" y="439" on="0"/>
        <pt x="264" y="430" on="1"/>
        <pt x="264" y="421" on="0"/>
        <pt x="264" y="412" on="1"/>
        <pt x="264" y="401" on="0"/>
        <pt x="260" y="382" on="0"/>
        <pt x="254" y="373" on="1"/>
        <pt x="242" y="360" on="1"/>
        <pt x="234" y="352" on="0"/>
        <pt x="234" y="347" on="1"/>
        <pt x="236" y="345" on="1"/>
        <pt x="240" y="341" on="0"/>
        <pt x="248" y="332" on="0"/>
        <pt x="252" y="326" on="1"/>
        <pt x="262" y="319" on="0"/>
        <pt x="262" y="306" on="1"/>
        <pt x="265" y="281" on="0"/>
        <pt x="269" y="246" on="0"/>
        <pt x="270" y="236" on="1"/>
        <pt x="272" y="226" on="0"/>
        <pt x="274" y="209" on="0"/>
        <pt x="276" y="201" on="1"/>
        <pt x="288" y="148" on="0"/>
        <pt x="338" y="101" on="1"/>
        <pt x="358" y="85" on="1"/>
        <pt x="388" y="73" on="1"/>
        <pt x="418" y="66" on="1"/>
        <pt x="444" y="62" on="1"/>
        <pt x="456" y="59" on="0"/>
        <pt x="470" y="46" on="0"/>
        <pt x="470" y="34" on="1"/>
        <pt x="467" y="10" on="0"/>
        <pt x="424" y="1" on="1"/>
        <pt x="398" y="1" on="1"/>
        <pt x="340" y="1" on="0"/>
        <pt x="292" y="18" on="1"/>
        <pt x="244" y="38" on="0"/>
        <pt x="216" y="62" on="1"/>
        <pt x="184" y="91" on="0"/>
        <pt x="168" y="117" on="1"/>
        <pt x="157" y="132" on="0"/>
        <pt x="145" y="159" on="0"/>
        <pt x="142" y="171" on="1"/>
        <pt x="134" y="189" on="0"/>
        <pt x="133" y="196" on="1"/>
        <pt x="132" y="200" on="0"/>
        <pt x="129" y="216" on="0"/>
        <pt x="127" y="227" on="1"/>
        <pt x="123" y="251" on="0"/>
        <pt x="122" y="281" on="0"/>
      </contour>
    </TTGlyph>
    <TTGlyph name="braceright" xMin="20" yMin="1" xMax="470" yMax="694">
      <contour>
        <pt x="20" y="34" on="1"/>
        <pt x="23" y="51" on="0"/>
        <pt x="49" y="65" on="0"/>
        <pt x="70" y="68" on="1"/>
        <pt x="112" y="79" on="1"/>
        <pt x="136" y="86" on="0"/>
        <pt x="150" y="99" on="1"/>
        <pt x="202" y="148" on="0"/>
        <pt x="214" y="203" on="1"/>
        <pt x="222" y="232" on="0"/>
        <pt x="228" y="283" on="0"/>
        <pt x="228" y="312" on="1"/>
        <pt x="238" y="330" on="1"/>
        <pt x="254" y="347" on="1"/>
        <pt x="236" y="366" on="1"/>
        <pt x="228" y="376" on="0"/>
        <pt x="228" y="387" on="1"/>
        <pt x="228" y="414" on="0"/>
        <pt x="221" y="464" on="0"/>
        <pt x="214" y="494" on="1"/>
        <pt x="197" y="552" on="0"/>
        <pt x="150" y="596" on="1"/>
        <pt x="133" y="610" on="0"/>
        <pt x="112" y="616" on="1"/>
        <pt x="70" y="626" on="1"/>
        <pt x="34" y="637" on="1"/>
        <pt x="20" y="645" on="0"/>
        <pt x="20" y="660" on="1"/>
        <pt x="23" y="679" on="0"/>
        <pt x="59" y="694" on="0"/>
        <pt x="94" y="694" on="1"/>
        <pt x="103" y="694" on="0"/>
        <pt x="109" y="694" on="1"/>
        <pt x="115" y="694" on="0"/>
        <pt x="126" y="692" on="0"/>
        <pt x="137" y="690" on="0"/>
        <pt x="146" y="689" on="1"/>
        <pt x="192" y="676" on="1"/>
        <pt x="239" y="659" on="0"/>
        <pt x="268" y="635" on="1"/>
        <pt x="301" y="610" on="0"/>
        <pt x="318" y="583" on="1"/>
        <pt x="340" y="558" on="0"/>
        <pt x="346" y="527" on="1"/>
        <pt x="354" y="509" on="0"/>
        <pt x="358" y="491" on="0"/>
        <pt x="360" y="473" on="1"/>
        <pt x="362" y="467" on="0"/>
        <pt x="362" y="457" on="1"/>
        <pt x="364" y="447" on="0"/>
        <pt x="364" y="434" on="1"/>
        <pt x="366" y="411" on="1"/>
        <pt x="368" y="396" on="1"/>
        <pt x="371" y="388" on="0"/>
        <pt x="384" y="385" on="1"/>
        <pt x="402" y="385" on="0"/>
        <pt x="427" y="380" on="0"/>
        <pt x="442" y="374" on="1"/>
        <pt x="470" y="367" on="0"/>
        <pt x="470" y="347" on="1"/>
        <pt x="467" y="331" on="0"/>
        <pt x="456" y="325" on="1"/>
        <pt x="438" y="319" on="0"/>
        <pt x="424" y="316" on="1"/>
        <pt x="388" y="310" on="1"/>
        <pt x="371" y="307" on="0"/>
        <pt x="366" y="297" on="0"/>
        <pt x="366" y="285" on="1"/>
        <pt x="364" y="275" on="0"/>
        <pt x="364" y="261" on="1"/>
        <pt x="362" y="251" on="0"/>
        <pt x="362" y="237" on="1"/>
        <pt x="360" y="222" on="1"/>
        <pt x="357" y="209" on="0"/>
        <pt x="345" y="170" on="0"/>
        <pt x="340" y="157" on="1"/>
        <pt x="330" y="135" on="0"/>
        <pt x="309" y="102" on="0"/>
        <pt x="294" y="85" on="1"/>
        <pt x="259" y="47" on="0"/>
        <pt x="214" y="25" on="1"/>
        <pt x="160" y="1" on="0"/>
        <pt x="90" y="1" on="1"/>
        <pt x="64" y="1" on="1"/>
        <pt x="39" y="5" on="0"/>
        <pt x="20" y="23" on="0"/>
      </contour>
    </TTGlyph>
    <TTGlyph name="bracketleft" xMin="20" yMin="1" xMax="364" yMax="693">
      <contour>
        <pt x="364" y="660" on="1"/>
        <pt x="364" y="647" on="0"/>
        <pt x="329" y="624" on="0"/>
        <pt x="302" y="624" on="1"/>
        <pt x="160" y="624" on="1"/>
        <pt x="160" y="70" on="1"/>
        <pt x="302" y="70" on="1"/>
        <pt x="331" y="70" on="0"/>
        <pt x="346" y="58" on="1"/>
        <pt x="364" y="46" on="0"/>
        <pt x="364" y="34" on="1"/>
        <pt x="364" y="25" on="0"/>
        <pt x="352" y="13" on="1"/>
        <pt x="337" y="1" on="0"/>
        <pt x="318" y="1" on="1"/>
        <pt x="64" y="1" on="1"/>
        <pt x="47" y="3" on="0"/>
        <pt x="20" y="17" on="0"/>
        <pt x="20" y="24" on="1"/>
        <pt x="20" y="670" on="1"/>
        <pt x="23" y="677" on="0"/>
        <pt x="34" y="685" on="1"/>
        <pt x="52" y="693" on="0"/>
        <pt x="64" y="693" on="1"/>
        <pt x="318" y="693" on="1"/>
        <pt x="340" y="693" on="0"/>
        <pt x="364" y="669" on="0"/>
      </contour>
    </TTGlyph>
    <TTGlyph name="bracketright" xMin="20" yMin="1" xMax="364" yMax="693">
      <contour>
        <pt x="20" y="36" on="1"/>
        <pt x="23" y="50" on="0"/>
        <pt x="36" y="59" on="1"/>
        <pt x="56" y="70" on="0"/>
        <pt x="82" y="70" on="1"/>
        <pt x="224" y="70" on="1"/>
        <pt x="224" y="624" on="1"/>
        <pt x="82" y="624" on="1"/>
        <pt x="53" y="624" on="0"/>
        <pt x="36" y="635" on="1"/>
        <pt x="20" y="645" on="0"/>
        <pt x="20" y="658" on="1"/>
        <pt x="28" y="680" on="1"/>
        <pt x="40" y="693" on="0"/>
        <pt x="64" y="693" on="1"/>
        <pt x="318" y="693" on="1"/>
        <pt x="333" y="693" on="0"/>
        <pt x="364" y="675" on="0"/>
        <pt x="364" y="668" on="1"/>
        <pt x="364" y="26" on="1"/>
        <pt x="360" y="17" on="0"/>
        <pt x="348" y="10" on="1"/>
        <pt x="330" y="1" on="0"/>
        <pt x="318" y="1" on="1"/>
        <pt x="64" y="1" on="1"/>
        <pt x="38" y="1" on="0"/>
        <pt x="20" y="26" on="0"/>
      </contour>
    </TTGlyph>
    <TTGlyph name="c" xMin="20" yMin="1" xMax="576" yMax="381">
      <contour>
        <pt x="20" y="142" on="1"/>
        <pt x="20" y="193" on="0"/>
        <pt x="54" y="236" on="1"/>
        <pt x="111" y="302" on="0"/>
        <pt x="334" y="381" on="0"/>
        <pt x="492" y="381" on="1"/>
        <pt x="530" y="381" on="1"/>
        <pt x="576" y="370" on="0"/>
        <pt x="576" y="348" on="1"/>
        <pt x="573" y="321" on="0"/>
        <pt x="533" y="314" on="1"/>
        <pt x="494" y="308" on="0"/>
        <pt x="462" y="308" on="1"/>
        <pt x="454" y="308" on="0"/>
        <pt x="427" y="307" on="0"/>
        <pt x="396" y="303" on="1"/>
        <pt x="279" y="285" on="0"/>
        <pt x="160" y="199" on="0"/>
        <pt x="160" y="142" on="1"/>
        <pt x="160" y="108" on="0"/>
        <pt x="231" y="71" on="0"/>
        <pt x="298" y="71" on="1"/>
        <pt x="345" y="71" on="0"/>
        <pt x="372" y="78" on="1"/>
        <pt x="398" y="87" on="0"/>
        <pt x="425" y="111" on="0"/>
        <pt x="428" y="122" on="1"/>
        <pt x="440" y="146" on="1"/>
        <pt x="447" y="153" on="0"/>
        <pt x="457" y="163" on="0"/>
        <pt x="462" y="165" on="1"/>
        <pt x="480" y="173" on="0"/>
        <pt x="508" y="173" on="1"/>
        <pt x="541" y="173" on="0"/>
        <pt x="558" y="162" on="1"/>
        <pt x="576" y="150" on="0"/>
        <pt x="576" y="136" on="1"/>
        <pt x="573" y="102" on="0"/>
        <pt x="538" y="65" on="0"/>
        <pt x="520" y="53" on="1"/>
        <pt x="514" y="49" on="0"/>
        <pt x="502" y="42" on="0"/>
        <pt x="496" y="39" on="1"/>
        <pt x="454" y="20" on="0"/>
        <pt x="359" y="1" on="0"/>
        <pt x="298" y="1" on="1"/>
        <pt x="165" y="1" on="0"/>
        <pt x="20" y="78" on="0"/>
      </contour>
    </TTGlyph>
    <TTGlyph name="colon" xMin="20" yMin="0" xMax="156" yMax="537">
      <contour>
        <pt x="20" y="35" on="1"/>
        <pt x="20" y="51" on="0"/>
        <pt x="58" y="70" on="0"/>
        <pt x="88" y="70" on="1"/>
        <pt x="119" y="70" on="0"/>
        <pt x="138" y="60" on="1"/>
        <pt x="156" y="49" on="0"/>
        <pt x="156" y="35" on="1"/>
        <pt x="156" y="19" on="0"/>
        <pt x="118" y="0" on="0"/>
        <pt x="88" y="0" on="1"/>
        <pt x="57" y="0" on="0"/>
        <pt x="38" y="10" on="1"/>
        <pt x="20" y="20" on="0"/>
      </contour>
      <contour>
        <pt x="20" y="502" on="1"/>
        <pt x="20" y="518" on="0"/>
        <pt x="58" y="537" on="0"/>
        <pt x="88" y="537" on="1"/>
        <pt x="121" y="537" on="0"/>
        <pt x="138" y="526" on="1"/>
        <pt x="156" y="515" on="0"/>
        <pt x="156" y="502" on="1"/>
        <pt x="156" y="486" on="0"/>
        <pt x="118" y="467" on="0"/>
        <pt x="88" y="467" on="1"/>
        <pt x="57" y="467" on="0"/>
        <pt x="38" y="477" on="1"/>
        <pt x="20" y="487" on="0"/>
      </contour>
    </TTGlyph>
    <TTGlyph name="comma" xMin="20" yMin="-104" xMax="156" yMax="69">
      <contour>
        <pt x="88" y="69" on="1"/>
        <pt x="105" y="69" on="0"/>
        <pt x="132" y="62" on="1"/>
        <pt x="156" y="54" on="0"/>
        <pt x="156" y="44" on="1"/>
        <pt x="156" y="-81" on="1"/>
        <pt x="156" y="-92" on="0"/>
        <pt x="108" y="-104" on="0"/>
        <pt x="90" y="-104" on="1"/>
        <pt x="77" y="-104" on="0"/>
        <pt x="56" y="-100" on="0"/>
        <pt x="44" y="-96" on="1"/>
        <pt x="20" y="-89" on="0"/>
        <pt x="20" y="-75" on="1"/>
        <pt x="20" y="40" on="1"/>
        <pt x="21" y="46" on="0"/>
        <pt x="36" y="57" on="0"/>
        <pt x="56" y="65" on="0"/>
        <pt x="79" y="69" on="0"/>
      </contour>
    </TTGlyph>
    <TTGlyph name="d" xMin="20" yMin="1" xMax="576" yMax="694">
      <contour>
        <pt x="20" y="145" on="1"/>
        <pt x="20" y="196" on="0"/>
        <pt x="78" y="274" on="0"/>
        <pt x="135" y="303" on="1"/>
        <pt x="192" y="333" on="0"/>
        <pt x="348" y="371" on="0"/>
        <pt x="438" y="381" on="1"/>
        <pt x="438" y="669" on="1"/>
        <pt x="438" y="681" on="0"/>
        <pt x="462" y="687" on="1"/>
        <pt x="486" y="694" on="0"/>
        <pt x="506" y="694" on="1"/>
        <pt x="550" y="689" on="1"/>
        <pt x="576" y="683" on="0"/>
        <pt x="576" y="671" on="1"/>
        <pt x="576" y="24" on="1"/>
        <pt x="574" y="17" on="0"/>
        <pt x="560" y="8" on="0"/>
        <pt x="540" y="3" on="0"/>
        <pt x="516" y="1" on="0"/>
        <pt x="506" y="1" on="1"/>
        <pt x="485" y="1" on="0"/>
        <pt x="464" y="9" on="1"/>
        <pt x="440" y="17" on="1"/>
        <pt x="372" y="5" on="1"/>
        <pt x="358" y="3" on="0"/>
        <pt x="322" y="1" on="0"/>
        <pt x="302" y="1" on="1"/>
        <pt x="169" y="1" on="0"/>
        <pt x="20" y="78" on="0"/>
      </contour>
      <contour>
        <pt x="160" y="137" on="1"/>
        <pt x="163" y="106" on="0"/>
        <pt x="241" y="71" on="0"/>
        <pt x="298" y="71" on="1"/>
        <pt x="346" y="74" on="1"/>
        <pt x="390" y="85" on="1"/>
        <pt x="412" y="94" on="0"/>
        <pt x="436" y="112" on="0"/>
        <pt x="436" y="126" on="1"/>
        <pt x="436" y="307" on="1"/>
        <pt x="392" y="303" on="1"/>
        <pt x="352" y="295" on="1"/>
        <pt x="249" y="270" on="0"/>
        <pt x="160" y="191" on="0"/>
      </contour>
    </TTGlyph>
    <TTGlyph name="dollar" xMin="20" yMin="-104" xMax="576" yMax="801">
      <contour>
        <pt x="226" y="10" on="1"/>
        <pt x="164" y="3" on="1"/>
        <pt x="160" y="3" on="0"/>
        <pt x="150" y="2" on="0"/>
        <pt x="143" y="1" on="1"/>
        <pt x="125" y="1" on="1"/>
        <pt x="102" y="1" on="1"/>
        <pt x="84" y="1" on="1"/>
        <pt x="66" y="2" on="1"/>
        <pt x="41" y="5" on="0"/>
        <pt x="20" y="25" on="0"/>
        <pt x="20" y="37" on="1"/>
        <pt x="24" y="50" on="0"/>
        <pt x="30" y="56" on="1"/>
        <pt x="47" y="65" on="0"/>
        <pt x="64" y="68" on="1"/>
        <pt x="100" y="74" on="0"/>
        <pt x="136" y="74" on="1"/>
        <pt x="151" y="74" on="0"/>
        <pt x="197" y="80" on="0"/>
        <pt x="212" y="82" on="1"/>
        <pt x="327" y="100" on="0"/>
        <pt x="436" y="188" on="0"/>
        <pt x="436" y="246" on="1"/>
        <pt x="436" y="261" on="0"/>
        <pt x="430" y="278" on="1"/>
        <pt x="421" y="297" on="0"/>
        <pt x="396" y="307" on="1"/>
        <pt x="378" y="313" on="0"/>
        <pt x="348" y="313" on="1"/>
        <pt x="298" y="313" on="1"/>
        <pt x="274" y="313" on="1"/>
        <pt x="246" y="314" on="1"/>
        <pt x="220" y="315" on="1"/>
        <pt x="208" y="315" on="1"/>
        <pt x="181" y="315" on="0"/>
        <pt x="136" y="324" on="0"/>
        <pt x="114" y="331" on="1"/>
        <pt x="39" y="360" on="0"/>
        <pt x="28" y="407" on="1"/>
        <pt x="20" y="431" on="0"/>
        <pt x="20" y="456" on="1"/>
        <pt x="20" y="523" on="0"/>
        <pt x="120" y="621" on="0"/>
        <pt x="226" y="658" on="1"/>
        <pt x="226" y="771" on="1"/>
        <pt x="226" y="784" on="0"/>
        <pt x="246" y="792" on="1"/>
        <pt x="267" y="799" on="0"/>
        <pt x="283" y="801" on="0"/>
        <pt x="298" y="801" on="1"/>
        <pt x="314" y="801" on="0"/>
        <pt x="341" y="793" on="1"/>
        <pt x="366" y="786" on="0"/>
        <pt x="366" y="775" on="1"/>
        <pt x="366" y="687" on="1"/>
        <pt x="372" y="689" on="0"/>
        <pt x="384" y="689" on="1"/>
        <pt x="389" y="690" on="0"/>
        <pt x="402" y="691" on="0"/>
        <pt x="410" y="691" on="1"/>
        <pt x="436" y="694" on="1"/>
        <pt x="454" y="695" on="1"/>
        <pt x="492" y="695" on="1"/>
        <pt x="530" y="695" on="1"/>
        <pt x="553" y="690" on="0"/>
        <pt x="564" y="682" on="1"/>
        <pt x="576" y="671" on="0"/>
        <pt x="576" y="662" on="1"/>
        <pt x="570" y="639" on="0"/>
        <pt x="530" y="628" on="1"/>
        <pt x="500" y="622" on="0"/>
        <pt x="464" y="622" on="1"/>
        <pt x="447" y="622" on="0"/>
        <pt x="413" y="619" on="0"/>
        <pt x="396" y="617" on="1"/>
        <pt x="275" y="599" on="0"/>
        <pt x="160" y="514" on="0"/>
        <pt x="160" y="453" on="1"/>
        <pt x="160" y="432" on="1"/>
        <pt x="162" y="425" on="0"/>
        <pt x="166" y="415" on="0"/>
        <pt x="168" y="411" on="1"/>
        <pt x="179" y="398" on="0"/>
        <pt x="188" y="393" on="1"/>
        <pt x="203" y="386" on="0"/>
        <pt x="228" y="386" on="1"/>
        <pt x="384" y="382" on="1"/>
        <pt x="409" y="382" on="0"/>
        <pt x="459" y="373" on="0"/>
        <pt x="476" y="367" on="1"/>
        <pt x="515" y="354" on="0"/>
        <pt x="560" y="313" on="0"/>
        <pt x="566" y="290" on="1"/>
        <pt x="576" y="269" on="0"/>
        <pt x="576" y="243" on="1"/>
        <pt x="575" y="228" on="0"/>
        <pt x="567" y="195" on="0"/>
        <pt x="562" y="183" on="1"/>
        <pt x="539" y="137" on="0"/>
        <pt x="448" y="62" on="0"/>
        <pt x="366" y="39" on="1"/>
        <pt x="366" y="-79" on="1"/>
        <pt x="366" y="-91" on="0"/>
        <pt x="341" y="-97" on="1"/>
        <pt x="319" y="-104" on="0"/>
        <pt x="298" y="-104" on="1"/>
        <pt x="277" y="-104" on="0"/>
        <pt x="250" y="-96" on="1"/>
        <pt x="226" y="-87" on="0"/>
        <pt x="226" y="-75" on="1"/>
      </contour>
    </TTGlyph>
    <TTGlyph name="e" xMin="20" yMin="1" xMax="572" yMax="381">
      <contour>
        <pt x="20" y="115" on="1"/>
        <pt x="20" y="145" on="1"/>
        <pt x="20" y="195" on="0"/>
        <pt x="54" y="238" on="1"/>
        <pt x="95" y="285" on="0"/>
        <pt x="152" y="313" on="1"/>
        <pt x="186" y="330" on="0"/>
        <pt x="259" y="354" on="0"/>
        <pt x="302" y="363" on="1"/>
        <pt x="389" y="381" on="0"/>
        <pt x="490" y="381" on="1"/>
        <pt x="530" y="381" on="1"/>
        <pt x="556" y="372" on="1"/>
        <pt x="572" y="365" on="0"/>
        <pt x="572" y="359" on="1"/>
        <pt x="572" y="336" on="1"/>
        <pt x="569" y="327" on="0"/>
        <pt x="545" y="317" on="0"/>
        <pt x="537" y="315" on="0"/>
        <pt x="518" y="311" on="0"/>
        <pt x="496" y="311" on="1"/>
        <pt x="466" y="310" on="1"/>
        <pt x="408" y="304" on="1"/>
        <pt x="348" y="294" on="1"/>
        <pt x="294" y="280" on="1"/>
        <pt x="264" y="271" on="0"/>
        <pt x="252" y="261" on="1"/>
        <pt x="274" y="263" on="1"/>
        <pt x="296" y="265" on="1"/>
        <pt x="326" y="265" on="0"/>
        <pt x="366" y="245" on="0"/>
        <pt x="366" y="230" on="1"/>
        <pt x="366" y="208" on="0"/>
        <pt x="330" y="199" on="1"/>
        <pt x="316" y="195" on="0"/>
        <pt x="294" y="192" on="0"/>
        <pt x="282" y="191" on="1"/>
        <pt x="232" y="181" on="1"/>
        <pt x="213" y="176" on="0"/>
        <pt x="200" y="172" on="0"/>
        <pt x="190" y="168" on="1"/>
        <pt x="168" y="159" on="0"/>
        <pt x="160" y="148" on="1"/>
        <pt x="160" y="135" on="1"/>
        <pt x="163" y="106" on="0"/>
        <pt x="198" y="88" on="1"/>
        <pt x="240" y="71" on="0"/>
        <pt x="296" y="71" on="1"/>
        <pt x="340" y="74" on="1"/>
        <pt x="380" y="83" on="1"/>
        <pt x="412" y="92" on="0"/>
        <pt x="418" y="106" on="1"/>
        <pt x="425" y="114" on="0"/>
        <pt x="431" y="128" on="0"/>
        <pt x="435" y="139" on="1"/>
        <pt x="439" y="151" on="0"/>
        <pt x="466" y="173" on="0"/>
        <pt x="506" y="173" on="1"/>
        <pt x="554" y="173" on="0"/>
        <pt x="572" y="150" on="1"/>
        <pt x="572" y="131" on="1"/>
        <pt x="569" y="100" on="0"/>
        <pt x="529" y="54" on="0"/>
        <pt x="445" y="18" on="0"/>
        <pt x="348" y="1" on="0"/>
        <pt x="296" y="1" on="1"/>
        <pt x="266" y="1" on="0"/>
        <pt x="221" y="5" on="0"/>
        <pt x="196" y="9" on="1"/>
        <pt x="171" y="14" on="0"/>
        <pt x="130" y="25" on="0"/>
        <pt x="114" y="32" on="1"/>
        <pt x="75" y="46" on="0"/>
        <pt x="26" y="91" on="0"/>
      </contour>
    </TTGlyph>
    <TTGlyph name="eight" xMin="20" yMin="1" xMax="576" yMax="694">
      <contour>
        <pt x="20" y="144" on="1"/>
        <pt x="20" y="206" on="0"/>
        <pt x="115" y="303" on="0"/>
        <pt x="196" y="348" on="1"/>
        <pt x="115" y="391" on="0"/>
        <pt x="20" y="487" on="0"/>
        <pt x="20" y="547" on="1"/>
        <pt x="20" y="571" on="0"/>
        <pt x="39" y="611" on="0"/>
        <pt x="58" y="630" on="1"/>
        <pt x="99" y="668" on="0"/>
        <pt x="184" y="686" on="1"/>
        <pt x="214" y="691" on="1"/>
        <pt x="244" y="694" on="1"/>
        <pt x="352" y="694" on="1"/>
        <pt x="358" y="694" on="0"/>
        <pt x="376" y="693" on="0"/>
        <pt x="396" y="689" on="1"/>
        <pt x="436" y="680" on="1"/>
        <pt x="512" y="657" on="0"/>
        <pt x="542" y="624" on="1"/>
        <pt x="576" y="591" on="0"/>
        <pt x="576" y="548" on="1"/>
        <pt x="576" y="490" on="0"/>
        <pt x="478" y="393" on="0"/>
        <pt x="400" y="348" on="1"/>
        <pt x="445" y="323" on="0"/>
        <pt x="506" y="278" on="0"/>
        <pt x="530" y="252" on="1"/>
        <pt x="576" y="206" on="0"/>
        <pt x="576" y="140" on="1"/>
        <pt x="576" y="99" on="0"/>
        <pt x="531" y="60" on="1"/>
        <pt x="487" y="22" on="0"/>
        <pt x="408" y="9" on="1"/>
        <pt x="388" y="5" on="1"/>
        <pt x="372" y="3" on="1"/>
        <pt x="366" y="1" on="0"/>
        <pt x="360" y="1" on="1"/>
        <pt x="352" y="1" on="1"/>
        <pt x="244" y="1" on="1"/>
        <pt x="214" y="4" on="1"/>
        <pt x="184" y="9" on="1"/>
        <pt x="99" y="26" on="0"/>
        <pt x="20" y="96" on="0"/>
      </contour>
      <contour>
        <pt x="160" y="145" on="1"/>
        <pt x="160" y="111" on="0"/>
        <pt x="192" y="90" on="1"/>
        <pt x="226" y="71" on="0"/>
        <pt x="296" y="71" on="1"/>
        <pt x="363" y="71" on="0"/>
        <pt x="400" y="90" on="1"/>
        <pt x="436" y="111" on="0"/>
        <pt x="436" y="144" on="1"/>
        <pt x="436" y="182" on="0"/>
        <pt x="406" y="217" on="1"/>
        <pt x="389" y="235" on="0"/>
        <pt x="349" y="267" on="0"/>
        <pt x="326" y="281" on="1"/>
        <pt x="310" y="289" on="1"/>
        <pt x="298" y="295" on="1"/>
        <pt x="294" y="295" on="1"/>
        <pt x="282" y="288" on="1"/>
        <pt x="262" y="277" on="1"/>
        <pt x="214" y="247" on="0"/>
        <pt x="188" y="215" on="1"/>
        <pt x="160" y="184" on="0"/>
      </contour>
      <contour>
        <pt x="160" y="553" on="1"/>
        <pt x="163" y="519" on="0"/>
        <pt x="180" y="486" on="1"/>
        <pt x="203" y="454" on="0"/>
        <pt x="248" y="428" on="1"/>
        <pt x="264" y="417" on="1"/>
        <pt x="284" y="405" on="1"/>
        <pt x="294" y="400" on="1"/>
        <pt x="298" y="400" on="1"/>
        <pt x="310" y="405" on="1"/>
        <pt x="326" y="414" on="1"/>
        <pt x="378" y="443" on="0"/>
        <pt x="436" y="518" on="0"/>
        <pt x="436" y="556" on="1"/>
        <pt x="433" y="589" on="0"/>
        <pt x="358" y="624" on="0"/>
        <pt x="298" y="624" on="1"/>
        <pt x="232" y="624" on="0"/>
        <pt x="196" y="606" on="1"/>
        <pt x="160" y="586" on="0"/>
      </contour>
    </TTGlyph>
    <TTGlyph name="equal" xMin="20" yMin="263" xMax="576" yMax="435">
      <contour>
        <pt x="20" y="297" on="1"/>
        <pt x="23" y="309" on="0"/>
        <pt x="34" y="320" on="1"/>
        <pt x="52" y="332" on="0"/>
        <pt x="74" y="332" on="1"/>
        <pt x="522" y="332" on="1"/>
        <pt x="549" y="332" on="0"/>
        <pt x="576" y="306" on="0"/>
        <pt x="576" y="296" on="1"/>
        <pt x="573" y="285" on="0"/>
        <pt x="551" y="263" on="0"/>
        <pt x="526" y="263" on="1"/>
        <pt x="70" y="263" on="1"/>
        <pt x="46" y="263" on="0"/>
        <pt x="20" y="288" on="0"/>
      </contour>
      <contour>
        <pt x="20" y="401" on="1"/>
        <pt x="23" y="412" on="0"/>
        <pt x="34" y="423" on="1"/>
        <pt x="49" y="435" on="0"/>
        <pt x="70" y="435" on="1"/>
        <pt x="526" y="435" on="1"/>
        <pt x="549" y="435" on="0"/>
        <pt x="576" y="413" on="0"/>
        <pt x="576" y="402" on="1"/>
        <pt x="573" y="390" on="0"/>
        <pt x="562" y="379" on="1"/>
        <pt x="544" y="367" on="0"/>
        <pt x="522" y="367" on="1"/>
        <pt x="74" y="367" on="1"/>
        <pt x="48" y="367" on="0"/>
        <pt x="34" y="378" on="1"/>
        <pt x="20" y="392" on="0"/>
      </contour>
    </TTGlyph>
    <TTGlyph name="exclam" xMin="20" yMin="0" xMax="156" yMax="691">
      <contour>
        <pt x="20" y="37" on="1"/>
        <pt x="23" y="51" on="0"/>
        <pt x="60" y="70" on="0"/>
        <pt x="88" y="70" on="1"/>
        <pt x="121" y="70" on="0"/>
        <pt x="138" y="59" on="1"/>
        <pt x="156" y="48" on="0"/>
        <pt x="156" y="34" on="1"/>
        <pt x="150" y="0" on="0"/>
        <pt x="88" y="0" on="1"/>
        <pt x="55" y="0" on="0"/>
        <pt x="36" y="10" on="1"/>
        <pt x="20" y="20" on="0"/>
      </contour>
      <contour>
        <pt x="90" y="691" on="1"/>
        <pt x="105" y="691" on="0"/>
        <pt x="131" y="683" on="1"/>
        <pt x="156" y="676" on="0"/>
        <pt x="156" y="665" on="1"/>
        <pt x="156" y="132" on="1"/>
        <pt x="156" y="118" on="0"/>
        <pt x="136" y="112" on="1"/>
        <pt x="116" y="107" on="0"/>
        <pt x="102" y="105" on="0"/>
        <pt x="88" y="105" on="1"/>
        <pt x="66" y="105" on="0"/>
        <pt x="42" y="111" on="1"/>
        <pt x="20" y="118" on="0"/>
        <pt x="20" y="130" on="1"/>
        <pt x="20" y="665" on="1"/>
        <pt x="20" y="679" on="0"/>
        <pt x="70" y="691" on="0"/>
      </contour>
    </TTGlyph>
    <TTGlyph name="f" xMin="20" yMin="1" xMax="576" yMax="694">
      <contour>
        <pt x="500" y="694" on="1"/>
        <pt x="530" y="694" on="1"/>
        <pt x="553" y="689" on="0"/>
        <pt x="564" y="681" on="1"/>
        <pt x="576" y="670" on="0"/>
        <pt x="576" y="661" on="1"/>
        <pt x="573" y="639" on="0"/>
        <pt x="548" y="633" on="1"/>
        <pt x="486" y="624" on="1"/>
        <pt x="430" y="616" on="0"/>
        <pt x="342" y="584" on="0"/>
        <pt x="275" y="539" on="0"/>
        <pt x="228" y="485" on="0"/>
        <pt x="212" y="457" on="1"/>
        <pt x="200" y="436" on="0"/>
        <pt x="188" y="408" on="0"/>
        <pt x="180" y="387" on="1"/>
        <pt x="178" y="385" on="0"/>
        <pt x="178" y="379" on="1"/>
        <pt x="176" y="373" on="0"/>
        <pt x="176" y="367" on="1"/>
        <pt x="172" y="362" on="0"/>
        <pt x="172" y="353" on="1"/>
        <pt x="171" y="351" on="0"/>
        <pt x="169" y="346" on="0"/>
        <pt x="168" y="342" on="1"/>
        <pt x="168" y="336" on="1"/>
        <pt x="183" y="342" on="0"/>
        <pt x="217" y="352" on="0"/>
        <pt x="228" y="355" on="1"/>
        <pt x="264" y="365" on="0"/>
        <pt x="298" y="365" on="1"/>
        <pt x="315" y="365" on="0"/>
        <pt x="339" y="358" on="1"/>
        <pt x="364" y="352" on="0"/>
        <pt x="364" y="342" on="1"/>
        <pt x="364" y="318" on="1"/>
        <pt x="360" y="309" on="0"/>
        <pt x="348" y="305" on="1"/>
        <pt x="314" y="294" on="1"/>
        <pt x="276" y="284" on="1"/>
        <pt x="248" y="275" on="1"/>
        <pt x="206" y="253" on="1"/>
        <pt x="188" y="241" on="0"/>
        <pt x="176" y="226" on="1"/>
        <pt x="173" y="223" on="0"/>
        <pt x="166" y="210" on="1"/>
        <pt x="160" y="197" on="1"/>
        <pt x="160" y="24" on="1"/>
        <pt x="154" y="19" on="1"/>
        <pt x="146" y="13" on="1"/>
        <pt x="132" y="4" on="0"/>
        <pt x="108" y="1" on="0"/>
        <pt x="101" y="1" on="1"/>
        <pt x="88" y="1" on="1"/>
        <pt x="66" y="1" on="0"/>
        <pt x="42" y="7" on="1"/>
        <pt x="20" y="14" on="0"/>
        <pt x="20" y="26" on="1"/>
        <pt x="20" y="297" on="1"/>
        <pt x="22" y="299" on="0"/>
        <pt x="22" y="311" on="1"/>
        <pt x="26" y="320" on="0"/>
        <pt x="26" y="340" on="1"/>
        <pt x="34" y="372" on="1"/>
        <pt x="40" y="388" on="0"/>
        <pt x="40" y="397" on="1"/>
        <pt x="47" y="420" on="0"/>
        <pt x="68" y="466" on="0"/>
        <pt x="84" y="490" on="1"/>
        <pt x="110" y="528" on="0"/>
        <pt x="189" y="602" on="0"/>
        <pt x="293" y="659" on="0"/>
        <pt x="423" y="694" on="0"/>
      </contour>
    </TTGlyph>
    <TTGlyph name="five" xMin="20" yMin="1" xMax="576" yMax="694">
      <contour>
        <pt x="20" y="34" on="1"/>
        <pt x="23" y="47" on="0"/>
        <pt x="30" y="54" on="1"/>
        <pt x="44" y="65" on="0"/>
        <pt x="69" y="68" on="1"/>
        <pt x="81" y="70" on="0"/>
        <pt x="98" y="72" on="0"/>
        <pt x="105" y="72" on="1"/>
        <pt x="112" y="72" on="0"/>
        <pt x="118" y="72" on="1"/>
        <pt x="125" y="72" on="0"/>
        <pt x="134" y="72" on="1"/>
        <pt x="143" y="72" on="0"/>
        <pt x="172" y="73" on="0"/>
        <pt x="204" y="77" on="1"/>
        <pt x="261" y="86" on="0"/>
        <pt x="343" y="119" on="0"/>
        <pt x="374" y="141" on="1"/>
        <pt x="393" y="154" on="0"/>
        <pt x="411" y="175" on="0"/>
        <pt x="420" y="190" on="1"/>
        <pt x="429" y="206" on="0"/>
        <pt x="436" y="230" on="0"/>
        <pt x="436" y="246" on="1"/>
        <pt x="433" y="269" on="0"/>
        <pt x="414" y="282" on="1"/>
        <pt x="390" y="298" on="0"/>
        <pt x="352" y="306" on="1"/>
        <pt x="346" y="309" on="0"/>
        <pt x="336" y="309" on="1"/>
        <pt x="322" y="311" on="1"/>
        <pt x="86" y="311" on="1"/>
        <pt x="71" y="311" on="0"/>
        <pt x="44" y="319" on="1"/>
        <pt x="20" y="328" on="0"/>
        <pt x="20" y="338" on="1"/>
        <pt x="20" y="671" on="1"/>
        <pt x="23" y="679" on="0"/>
        <pt x="36" y="685" on="1"/>
        <pt x="54" y="694" on="0"/>
        <pt x="66" y="694" on="1"/>
        <pt x="530" y="694" on="1"/>
        <pt x="551" y="694" on="0"/>
        <pt x="576" y="667" on="0"/>
        <pt x="576" y="661" on="1"/>
        <pt x="573" y="647" on="0"/>
        <pt x="537" y="625" on="0"/>
        <pt x="510" y="625" on="1"/>
        <pt x="160" y="625" on="1"/>
        <pt x="160" y="382" on="1"/>
        <pt x="342" y="382" on="1"/>
        <pt x="372" y="377" on="1"/>
        <pt x="412" y="371" on="1"/>
        <pt x="493" y="354" on="0"/>
        <pt x="576" y="286" on="0"/>
        <pt x="576" y="244" on="1"/>
        <pt x="576" y="195" on="0"/>
        <pt x="542" y="149" on="1"/>
        <pt x="488" y="83" on="0"/>
        <pt x="270" y="1" on="0"/>
        <pt x="114" y="1" on="1"/>
        <pt x="66" y="1" on="1"/>
        <pt x="44" y="4" on="0"/>
        <pt x="32" y="13" on="1"/>
        <pt x="20" y="23" on="0"/>
      </contour>
    </TTGlyph>
    <TTGlyph name="four" xMin="20" yMin="1" xMax="572" yMax="694">
      <contour>
        <pt x="434" y="310" on="1"/>
        <pt x="328" y="310" on="1"/>
        <pt x="299" y="310" on="0"/>
        <pt x="249" y="314" on="0"/>
        <pt x="224" y="317" on="1"/>
        <pt x="198" y="321" on="0"/>
        <pt x="152" y="331" on="0"/>
        <pt x="132" y="336" on="1"/>
        <pt x="90" y="349" on="0"/>
        <pt x="60" y="375" on="1"/>
        <pt x="51" y="381" on="0"/>
        <pt x="40" y="392" on="0"/>
        <pt x="32" y="402" on="1"/>
        <pt x="20" y="420" on="0"/>
        <pt x="20" y="432" on="1"/>
        <pt x="20" y="673" on="1"/>
        <pt x="23" y="680" on="0"/>
        <pt x="52" y="694" on="0"/>
        <pt x="64" y="694" on="1"/>
        <pt x="110" y="694" on="1"/>
        <pt x="129" y="694" on="0"/>
        <pt x="160" y="671" on="0"/>
        <pt x="160" y="663" on="1"/>
        <pt x="160" y="440" on="1"/>
        <pt x="162" y="434" on="1"/>
        <pt x="168" y="426" on="1"/>
        <pt x="187" y="402" on="0"/>
        <pt x="213" y="395" on="1"/>
        <pt x="227" y="391" on="0"/>
        <pt x="245" y="386" on="0"/>
        <pt x="255" y="384" on="0"/>
        <pt x="270" y="383" on="0"/>
        <pt x="280" y="383" on="1"/>
        <pt x="358" y="382" on="1"/>
        <pt x="365" y="382" on="0"/>
        <pt x="387" y="383" on="0"/>
        <pt x="398" y="383" on="1"/>
        <pt x="409" y="383" on="0"/>
        <pt x="428" y="384" on="0"/>
        <pt x="434" y="384" on="1"/>
        <pt x="434" y="667" on="1"/>
        <pt x="437" y="682" on="0"/>
        <pt x="481" y="694" on="0"/>
        <pt x="502" y="694" on="1"/>
        <pt x="546" y="689" on="1"/>
        <pt x="572" y="683" on="0"/>
        <pt x="572" y="671" on="1"/>
        <pt x="572" y="24" on="1"/>
        <pt x="570" y="17" on="0"/>
        <pt x="556" y="8" on="0"/>
        <pt x="536" y="3" on="0"/>
        <pt x="512" y="1" on="0"/>
        <pt x="502" y="1" on="1"/>
        <pt x="490" y="1" on="0"/>
        <pt x="469" y="5" on="0"/>
        <pt x="456" y="8" on="1"/>
        <pt x="434" y="15" on="0"/>
        <pt x="434" y="28" on="1"/>
      </contour>
    </TTGlyph>
    <TTGlyph name="g" xMin="20" yMin="-184" xMax="576" yMax="382">
      <contour>
        <pt x="230" y="-152" on="1"/>
        <pt x="233" y="-139" on="0"/>
        <pt x="238" y="-134" on="1"/>
        <pt x="243" y="-130" on="0"/>
        <pt x="253" y="-124" on="0"/>
        <pt x="258" y="-122" on="1"/>
        <pt x="286" y="-113" on="1"/>
        <pt x="318" y="-102" on="1"/>
        <pt x="332" y="-96" on="0"/>
        <pt x="344" y="-89" on="0"/>
        <pt x="358" y="-78" on="1"/>
        <pt x="369" y="-71" on="0"/>
        <pt x="388" y="-58" on="0"/>
        <pt x="396" y="-50" on="1"/>
        <pt x="407" y="-40" on="0"/>
        <pt x="416" y="-30" on="0"/>
        <pt x="421" y="-21" on="1"/>
        <pt x="432" y="-5" on="0"/>
        <pt x="432" y="12" on="1"/>
        <pt x="432" y="16" on="1"/>
        <pt x="400" y="8" on="0"/>
        <pt x="340" y="2" on="0"/>
        <pt x="302" y="2" on="1"/>
        <pt x="169" y="2" on="0"/>
        <pt x="20" y="79" on="0"/>
        <pt x="20" y="146" on="1"/>
        <pt x="20" y="197" on="0"/>
        <pt x="96" y="283" on="0"/>
        <pt x="154" y="314" on="1"/>
        <pt x="188" y="331" on="0"/>
        <pt x="261" y="355" on="0"/>
        <pt x="304" y="364" on="1"/>
        <pt x="391" y="382" on="0"/>
        <pt x="492" y="382" on="1"/>
        <pt x="530" y="382" on="1"/>
        <pt x="560" y="373" on="1"/>
        <pt x="576" y="366" on="0"/>
        <pt x="576" y="358" on="1"/>
        <pt x="576" y="20" on="1"/>
        <pt x="573" y="-6" on="0"/>
        <pt x="562" y="-30" on="1"/>
        <pt x="551" y="-47" on="0"/>
        <pt x="533" y="-70" on="0"/>
        <pt x="522" y="-81" on="1"/>
        <pt x="492" y="-109" on="0"/>
        <pt x="432" y="-147" on="0"/>
        <pt x="392" y="-162" on="1"/>
        <pt x="348" y="-177" on="1"/>
        <pt x="330" y="-184" on="0"/>
        <pt x="300" y="-184" on="1"/>
        <pt x="268" y="-184" on="0"/>
        <pt x="230" y="-166" on="0"/>
      </contour>
      <contour>
        <pt x="160" y="138" on="1"/>
        <pt x="163" y="106" on="0"/>
        <pt x="200" y="90" on="1"/>
        <pt x="245" y="72" on="0"/>
        <pt x="300" y="72" on="1"/>
        <pt x="346" y="75" on="1"/>
        <pt x="390" y="86" on="1"/>
        <pt x="401" y="91" on="0"/>
        <pt x="417" y="99" on="0"/>
        <pt x="422" y="103" on="1"/>
        <pt x="436" y="114" on="0"/>
        <pt x="436" y="127" on="1"/>
        <pt x="436" y="308" on="1"/>
        <pt x="392" y="304" on="1"/>
        <pt x="352" y="296" on="1"/>
        <pt x="249" y="272" on="0"/>
        <pt x="204" y="233" on="1"/>
        <pt x="160" y="192" on="0"/>
      </contour>
    </TTGlyph>
    <TTGlyph name="grave" xMin="20" yMin="524" xMax="156" yMax="695">
      <contour>
        <pt x="86" y="695" on="1"/>
        <pt x="130" y="690" on="1"/>
        <pt x="156" y="684" on="0"/>
        <pt x="156" y="672" on="1"/>
        <pt x="156" y="549" on="1"/>
        <pt x="156" y="536" on="0"/>
        <pt x="108" y="524" on="0"/>
        <pt x="88" y="524" on="1"/>
        <pt x="73" y="524" on="0"/>
        <pt x="53" y="528" on="0"/>
        <pt x="42" y="532" on="1"/>
        <pt x="20" y="539" on="0"/>
        <pt x="20" y="553" on="1"/>
        <pt x="20" y="668" on="1"/>
        <pt x="23" y="683" on="0"/>
        <pt x="40" y="688" on="1"/>
        <pt x="58" y="693" on="0"/>
        <pt x="72" y="695" on="0"/>
      </contour>
    </TTGlyph>
    <TTGlyph name="greater" xMin="20" yMin="210" xMax="576" yMax="488">
      <contour>
        <pt x="20" y="243" on="1"/>
        <pt x="20" y="253" on="0"/>
        <pt x="34" y="271" on="0"/>
        <pt x="52" y="275" on="1"/>
        <pt x="346" y="349" on="1"/>
        <pt x="52" y="423" on="1"/>
        <pt x="31" y="429" on="0"/>
        <pt x="26" y="436" on="1"/>
        <pt x="20" y="446" on="0"/>
        <pt x="20" y="455" on="1"/>
        <pt x="23" y="469" on="0"/>
        <pt x="60" y="488" on="0"/>
        <pt x="88" y="488" on="1"/>
        <pt x="102" y="488" on="1"/>
        <pt x="114" y="486" on="1"/>
        <pt x="544" y="378" on="1"/>
        <pt x="561" y="374" on="0"/>
        <pt x="568" y="365" on="1"/>
        <pt x="576" y="357" on="0"/>
        <pt x="576" y="349" on="1"/>
        <pt x="568" y="332" on="1"/>
        <pt x="559" y="323" on="0"/>
        <pt x="544" y="320" on="1"/>
        <pt x="114" y="212" on="1"/>
        <pt x="102" y="210" on="1"/>
        <pt x="88" y="210" on="1"/>
        <pt x="58" y="210" on="0"/>
        <pt x="20" y="229" on="0"/>
      </contour>
    </TTGlyph>
    <TTGlyph name="h" xMin="20" yMin="1" xMax="572" yMax="694">
      <contour>
        <pt x="90" y="694" on="1"/>
        <pt x="102" y="694" on="0"/>
        <pt x="123" y="690" on="0"/>
        <pt x="136" y="687" on="1"/>
        <pt x="160" y="678" on="0"/>
        <pt x="160" y="667" on="1"/>
        <pt x="160" y="381" on="1"/>
        <pt x="217" y="373" on="0"/>
        <pt x="222" y="372" on="1"/>
        <pt x="269" y="364" on="0"/>
        <pt x="362" y="343" on="0"/>
        <pt x="392" y="332" on="1"/>
        <pt x="445" y="314" on="0"/>
        <pt x="480" y="291" on="1"/>
        <pt x="518" y="269" on="0"/>
        <pt x="544" y="234" on="1"/>
        <pt x="556" y="219" on="0"/>
        <pt x="562" y="204" on="1"/>
        <pt x="572" y="191" on="0"/>
        <pt x="572" y="175" on="1"/>
        <pt x="572" y="23" on="1"/>
        <pt x="569" y="16" on="0"/>
        <pt x="540" y="1" on="0"/>
        <pt x="530" y="1" on="1"/>
        <pt x="482" y="1" on="1"/>
        <pt x="465" y="1" on="0"/>
        <pt x="448" y="12" on="1"/>
        <pt x="434" y="26" on="0"/>
        <pt x="434" y="32" on="1"/>
        <pt x="434" y="163" on="1"/>
        <pt x="432" y="168" on="1"/>
        <pt x="426" y="179" on="1"/>
        <pt x="420" y="192" on="1"/>
        <pt x="419" y="194" on="0"/>
        <pt x="417" y="199" on="0"/>
        <pt x="416" y="203" on="1"/>
        <pt x="405" y="221" on="0"/>
        <pt x="350" y="258" on="0"/>
        <pt x="279" y="288" on="0"/>
        <pt x="198" y="306" on="0"/>
        <pt x="160" y="306" on="1"/>
        <pt x="160" y="28" on="1"/>
        <pt x="160" y="15" on="0"/>
        <pt x="135" y="8" on="1"/>
        <pt x="113" y="1" on="0"/>
        <pt x="90" y="1" on="1"/>
        <pt x="74" y="1" on="0"/>
        <pt x="55" y="4" on="0"/>
        <pt x="44" y="6" on="1"/>
        <pt x="20" y="12" on="0"/>
        <pt x="20" y="24" on="1"/>
        <pt x="20" y="671" on="1"/>
        <pt x="20" y="684" on="0"/>
        <pt x="39" y="688" on="1"/>
        <pt x="59" y="692" on="0"/>
        <pt x="81" y="694" on="0"/>
      </contour>
    </TTGlyph>
    <TTGlyph name="i" xMin="20" yMin="1" xMax="156" yMax="483">
      <contour>
        <pt x="86" y="378" on="1"/>
        <pt x="130" y="373" on="1"/>
        <pt x="156" y="367" on="0"/>
        <pt x="156" y="355" on="1"/>
        <pt x="156" y="24" on="1"/>
        <pt x="154" y="17" on="0"/>
        <pt x="140" y="8" on="0"/>
        <pt x="120" y="3" on="0"/>
        <pt x="96" y="1" on="0"/>
        <pt x="86" y="1" on="1"/>
        <pt x="66" y="1" on="0"/>
        <pt x="42" y="7" on="1"/>
        <pt x="20" y="14" on="0"/>
        <pt x="20" y="26" on="1"/>
        <pt x="20" y="353" on="1"/>
        <pt x="21" y="359" on="0"/>
        <pt x="35" y="369" on="0"/>
        <pt x="55" y="375" on="0"/>
        <pt x="77" y="378" on="0"/>
      </contour>
      <contour>
        <pt x="20" y="449" on="1"/>
        <pt x="20" y="464" on="0"/>
        <pt x="58" y="483" on="0"/>
        <pt x="88" y="483" on="1"/>
        <pt x="118" y="483" on="0"/>
        <pt x="156" y="465" on="0"/>
        <pt x="156" y="450" on="1"/>
        <pt x="156" y="415" on="0"/>
        <pt x="86" y="415" on="1"/>
        <pt x="20" y="415" on="0"/>
      </contour>
    </TTGlyph>
    <TTGlyph name="j" xMin="20" yMin="-184" xMax="364" yMax="487">
      <contour>
        <pt x="20" y="-152" on="1"/>
        <pt x="20" y="-139" on="0"/>
        <pt x="44" y="-121" on="0"/>
        <pt x="62" y="-115" on="1"/>
        <pt x="98" y="-102" on="1"/>
        <pt x="134" y="-88" on="1"/>
        <pt x="152" y="-76" on="0"/>
        <pt x="164" y="-66" on="1"/>
        <pt x="182" y="-51" on="0"/>
        <pt x="194" y="-37" on="1"/>
        <pt x="210" y="-24" on="0"/>
        <pt x="216" y="-7" on="1"/>
        <pt x="226" y="6" on="0"/>
        <pt x="226" y="19" on="1"/>
        <pt x="226" y="356" on="1"/>
        <pt x="226" y="368" on="0"/>
        <pt x="250" y="374" on="1"/>
        <pt x="274" y="381" on="0"/>
        <pt x="294" y="381" on="1"/>
        <pt x="338" y="376" on="1"/>
        <pt x="364" y="370" on="0"/>
        <pt x="364" y="358" on="1"/>
        <pt x="364" y="19" on="1"/>
        <pt x="361" y="-7" on="0"/>
        <pt x="350" y="-31" on="1"/>
        <pt x="331" y="-60" on="0"/>
        <pt x="310" y="-81" on="1"/>
        <pt x="280" y="-109" on="0"/>
        <pt x="220" y="-147" on="0"/>
        <pt x="180" y="-162" on="1"/>
        <pt x="136" y="-177" on="1"/>
        <pt x="118" y="-184" on="0"/>
        <pt x="88" y="-184" on="1"/>
        <pt x="56" y="-184" on="0"/>
        <pt x="20" y="-166" on="0"/>
      </contour>
      <contour>
        <pt x="226" y="452" on="1"/>
        <pt x="226" y="468" on="0"/>
        <pt x="267" y="487" on="0"/>
        <pt x="296" y="487" on="1"/>
        <pt x="326" y="487" on="0"/>
        <pt x="364" y="468" on="0"/>
        <pt x="364" y="453" on="1"/>
        <pt x="364" y="418" on="0"/>
        <pt x="294" y="418" on="1"/>
        <pt x="262" y="418" on="0"/>
        <pt x="244" y="427" on="1"/>
        <pt x="226" y="437" on="0"/>
      </contour>
    </TTGlyph>
    <TTGlyph name="k" xMin="20" yMin="1" xMax="572" yMax="694">
      <contour>
        <pt x="90" y="694" on="1"/>
        <pt x="102" y="694" on="0"/>
        <pt x="123" y="690" on="0"/>
        <pt x="136" y="687" on="1"/>
        <pt x="160" y="678" on="0"/>
        <pt x="160" y="667" on="1"/>
        <pt x="160" y="389" on="1"/>
        <pt x="178" y="389" on="0"/>
        <pt x="196" y="391" on="0"/>
        <pt x="214" y="394" on="1"/>
        <pt x="266" y="406" on="1"/>
        <pt x="311" y="420" on="0"/>
        <pt x="383" y="453" on="0"/>
        <pt x="404" y="477" on="1"/>
        <pt x="422" y="498" on="0"/>
        <pt x="434" y="531" on="0"/>
        <pt x="434" y="551" on="1"/>
        <pt x="439" y="570" on="0"/>
        <pt x="466" y="591" on="0"/>
        <pt x="506" y="591" on="1"/>
        <pt x="527" y="591" on="0"/>
        <pt x="569" y="576" on="0"/>
        <pt x="572" y="567" on="1"/>
        <pt x="572" y="543" on="1"/>
        <pt x="572" y="483" on="0"/>
        <pt x="460" y="380" on="0"/>
        <pt x="352" y="348" on="1"/>
        <pt x="398" y="333" on="0"/>
        <pt x="471" y="299" on="0"/>
        <pt x="504" y="274" on="1"/>
        <pt x="534" y="251" on="0"/>
        <pt x="552" y="226" on="1"/>
        <pt x="564" y="212" on="0"/>
        <pt x="572" y="189" on="0"/>
        <pt x="572" y="175" on="1"/>
        <pt x="572" y="23" on="1"/>
        <pt x="569" y="16" on="0"/>
        <pt x="540" y="1" on="0"/>
        <pt x="530" y="1" on="1"/>
        <pt x="482" y="1" on="1"/>
        <pt x="465" y="1" on="0"/>
        <pt x="448" y="12" on="1"/>
        <pt x="434" y="26" on="0"/>
        <pt x="434" y="32" on="1"/>
        <pt x="434" y="163" on="1"/>
        <pt x="432" y="168" on="1"/>
        <pt x="426" y="179" on="1"/>
        <pt x="420" y="192" on="1"/>
        <pt x="419" y="194" on="0"/>
        <pt x="417" y="199" on="0"/>
        <pt x="416" y="203" on="1"/>
        <pt x="405" y="222" on="0"/>
        <pt x="352" y="260" on="0"/>
        <pt x="282" y="288" on="0"/>
        <pt x="195" y="306" on="0"/>
        <pt x="160" y="306" on="1"/>
        <pt x="160" y="28" on="1"/>
        <pt x="160" y="15" on="0"/>
        <pt x="135" y="8" on="1"/>
        <pt x="113" y="1" on="0"/>
        <pt x="90" y="1" on="1"/>
        <pt x="74" y="1" on="0"/>
        <pt x="55" y="4" on="0"/>
        <pt x="44" y="6" on="1"/>
        <pt x="20" y="12" on="0"/>
        <pt x="20" y="24" on="1"/>
        <pt x="20" y="671" on="1"/>
        <pt x="20" y="684" on="0"/>
        <pt x="39" y="688" on="1"/>
        <pt x="59" y="692" on="0"/>
        <pt x="81" y="694" on="0"/>
      </contour>
    </TTGlyph>
    <TTGlyph name="l" xMin="20" yMin="1" xMax="156" yMax="690">
      <contour>
        <pt x="86" y="690" on="1"/>
        <pt x="105" y="690" on="0"/>
        <pt x="131" y="684" on="1"/>
        <pt x="156" y="678" on="0"/>
        <pt x="156" y="666" on="1"/>
        <pt x="156" y="24" on="1"/>
        <pt x="154" y="17" on="0"/>
        <pt x="140" y="8" on="0"/>
        <pt x="120" y="3" on="0"/>
        <pt x="96" y="1" on="0"/>
        <pt x="86" y="1" on="1"/>
        <pt x="66" y="1" on="0"/>
        <pt x="42" y="7" on="1"/>
        <pt x="20" y="14" on="0"/>
        <pt x="20" y="26" on="1"/>
        <pt x="20" y="664" on="1"/>
        <pt x="21" y="671" on="0"/>
        <pt x="35" y="681" on="0"/>
        <pt x="55" y="687" on="0"/>
        <pt x="77" y="690" on="0"/>
      </contour>
    </TTGlyph>
    <TTGlyph name="less" xMin="20" yMin="210" xMax="572" yMax="488">
      <contour>
        <pt x="20" y="349" on="1"/>
        <pt x="24" y="365" on="1"/>
        <pt x="31" y="374" on="0"/>
        <pt x="48" y="378" on="1"/>
        <pt x="478" y="486" on="1"/>
        <pt x="488" y="488" on="0"/>
        <pt x="506" y="488" on="1"/>
        <pt x="535" y="488" on="0"/>
        <pt x="554" y="478" on="1"/>
        <pt x="572" y="467" on="0"/>
        <pt x="572" y="453" on="1"/>
        <pt x="568" y="437" on="1"/>
        <pt x="562" y="428" on="0"/>
        <pt x="548" y="425" on="1"/>
        <pt x="248" y="349" on="1"/>
        <pt x="548" y="273" on="1"/>
        <pt x="565" y="268" on="0"/>
        <pt x="568" y="260" on="1"/>
        <pt x="572" y="255" on="0"/>
        <pt x="572" y="245" on="1"/>
        <pt x="569" y="229" on="0"/>
        <pt x="535" y="210" on="0"/>
        <pt x="504" y="210" on="1"/>
        <pt x="490" y="210" on="1"/>
        <pt x="478" y="212" on="1"/>
        <pt x="48" y="320" on="1"/>
        <pt x="29" y="326" on="0"/>
        <pt x="20" y="339" on="0"/>
      </contour>
    </TTGlyph>
    <TTGlyph name="m" xMin="20" yMin="1" xMax="784" yMax="383">
      <contour>
        <pt x="20" y="32" on="1"/>
        <pt x="20" y="89" on="1"/>
        <pt x="20" y="130" on="1"/>
        <pt x="24" y="171" on="1"/>
        <pt x="37" y="213" on="0"/>
        <pt x="60" y="250" on="1"/>
        <pt x="81" y="280" on="0"/>
        <pt x="143" y="329" on="0"/>
        <pt x="229" y="364" on="0"/>
        <pt x="339" y="383" on="0"/>
        <pt x="408" y="383" on="1"/>
        <pt x="480" y="383" on="0"/>
        <pt x="593" y="360" on="0"/>
        <pt x="680" y="319" on="0"/>
        <pt x="741" y="263" on="0"/>
        <pt x="760" y="230" on="1"/>
        <pt x="765" y="225" on="0"/>
        <pt x="768" y="214" on="1"/>
        <pt x="776" y="197" on="1"/>
        <pt x="780" y="193" on="0"/>
        <pt x="780" y="181" on="1"/>
        <pt x="781" y="179" on="0"/>
        <pt x="783" y="173" on="0"/>
        <pt x="784" y="169" on="1"/>
        <pt x="784" y="23" on="1"/>
        <pt x="781" y="16" on="0"/>
        <pt x="752" y="1" on="0"/>
        <pt x="740" y="1" on="1"/>
        <pt x="694" y="1" on="1"/>
        <pt x="676" y="1" on="0"/>
        <pt x="644" y="24" on="0"/>
        <pt x="644" y="32" on="1"/>
        <pt x="644" y="162" on="1"/>
        <pt x="643" y="163" on="0"/>
        <pt x="640" y="176" on="1"/>
        <pt x="632" y="197" on="1"/>
        <pt x="623" y="215" on="0"/>
        <pt x="596" y="249" on="0"/>
        <pt x="558" y="278" on="0"/>
        <pt x="506" y="301" on="0"/>
        <pt x="472" y="307" on="1"/>
        <pt x="472" y="23" on="1"/>
        <pt x="472" y="18" on="0"/>
        <pt x="455" y="9" on="1"/>
        <pt x="437" y="1" on="0"/>
        <pt x="428" y="1" on="1"/>
        <pt x="380" y="1" on="1"/>
        <pt x="362" y="1" on="0"/>
        <pt x="348" y="12" on="1"/>
        <pt x="332" y="24" on="0"/>
        <pt x="332" y="32" on="1"/>
        <pt x="332" y="304" on="1"/>
        <pt x="311" y="304" on="0"/>
        <pt x="296" y="298" on="1"/>
        <pt x="266" y="287" on="1"/>
        <pt x="236" y="274" on="0"/>
        <pt x="218" y="256" on="1"/>
        <pt x="188" y="230" on="0"/>
        <pt x="162" y="165" on="0"/>
        <pt x="162" y="140" on="1"/>
        <pt x="160" y="134" on="0"/>
        <pt x="160" y="116" on="1"/>
        <pt x="159" y="110" on="0"/>
        <pt x="158" y="92" on="0"/>
        <pt x="158" y="81" on="1"/>
        <pt x="158" y="45" on="1"/>
        <pt x="158" y="23" on="1"/>
        <pt x="154" y="18" on="0"/>
        <pt x="127" y="1" on="0"/>
        <pt x="114" y="1" on="1"/>
        <pt x="68" y="1" on="1"/>
        <pt x="56" y="1" on="0"/>
        <pt x="40" y="7" on="0"/>
        <pt x="34" y="12" on="1"/>
        <pt x="20" y="26" on="0"/>
      </contour>
    </TTGlyph>
    <TTGlyph name="minus" xMin="20" yMin="314" xMax="576" yMax="383">
      <contour>
        <pt x="20" y="349" on="1"/>
        <pt x="20" y="358" on="0"/>
        <pt x="32" y="370" on="1"/>
        <pt x="48" y="383" on="0"/>
        <pt x="66" y="383" on="1"/>
        <pt x="530" y="383" on="1"/>
        <pt x="551" y="383" on="0"/>
        <pt x="576" y="358" on="0"/>
        <pt x="576" y="349" on="1"/>
        <pt x="573" y="333" on="0"/>
        <pt x="536" y="314" on="0"/>
        <pt x="506" y="314" on="1"/>
        <pt x="90" y="314" on="1"/>
        <pt x="61" y="314" on="0"/>
        <pt x="40" y="324" on="1"/>
        <pt x="20" y="335" on="0"/>
      </contour>
    </TTGlyph>
    <TTGlyph name="n" xMin="20" yMin="1" xMax="572" yMax="383">
      <contour>
        <pt x="96" y="383" on="1"/>
        <pt x="240" y="383" on="0"/>
        <pt x="363" y="345" on="1"/>
        <pt x="484" y="308" on="0"/>
        <pt x="536" y="236" on="1"/>
        <pt x="560" y="201" on="1"/>
        <pt x="572" y="181" on="0"/>
        <pt x="572" y="165" on="1"/>
        <pt x="572" y="23" on="1"/>
        <pt x="569" y="16" on="0"/>
        <pt x="540" y="1" on="0"/>
        <pt x="530" y="1" on="1"/>
        <pt x="482" y="1" on="1"/>
        <pt x="465" y="1" on="0"/>
        <pt x="448" y="12" on="1"/>
        <pt x="434" y="26" on="0"/>
        <pt x="434" y="32" on="1"/>
        <pt x="434" y="158" on="1"/>
        <pt x="428" y="170" on="1"/>
        <pt x="420" y="187" on="1"/>
        <pt x="410" y="209" on="0"/>
        <pt x="384" y="230" on="1"/>
        <pt x="372" y="240" on="0"/>
        <pt x="340" y="262" on="0"/>
        <pt x="326" y="269" on="1"/>
        <pt x="296" y="288" on="0"/>
        <pt x="252" y="297" on="1"/>
        <pt x="210" y="308" on="0"/>
        <pt x="160" y="308" on="1"/>
        <pt x="160" y="28" on="1"/>
        <pt x="160" y="15" on="0"/>
        <pt x="135" y="8" on="1"/>
        <pt x="113" y="1" on="0"/>
        <pt x="90" y="1" on="1"/>
        <pt x="74" y="1" on="0"/>
        <pt x="55" y="4" on="0"/>
        <pt x="44" y="6" on="1"/>
        <pt x="20" y="12" on="0"/>
        <pt x="20" y="24" on="1"/>
        <pt x="20" y="357" on="1"/>
        <pt x="23" y="371" on="0"/>
        <pt x="50" y="377" on="1"/>
        <pt x="78" y="383" on="0"/>
      </contour>
    </TTGlyph>
    <TTGlyph name="nine" xMin="20" yMin="1" xMax="576" yMax="694">
      <contour>
        <pt x="438" y="314" on="1"/>
        <pt x="248" y="333" on="0"/>
        <pt x="134" y="392" on="1"/>
        <pt x="20" y="452" on="0"/>
        <pt x="20" y="551" on="1"/>
        <pt x="20" y="615" on="0"/>
        <pt x="165" y="694" on="0"/>
        <pt x="298" y="694" on="1"/>
        <pt x="482" y="694" on="0"/>
        <pt x="560" y="610" on="1"/>
        <pt x="576" y="594" on="0"/>
        <pt x="576" y="575" on="1"/>
        <pt x="576" y="26" on="1"/>
        <pt x="576" y="13" on="0"/>
        <pt x="528" y="1" on="0"/>
        <pt x="510" y="1" on="1"/>
        <pt x="476" y="3" on="1"/>
        <pt x="459" y="6" on="0"/>
        <pt x="450" y="13" on="1"/>
        <pt x="442" y="19" on="1"/>
        <pt x="438" y="24" on="1"/>
      </contour>
      <contour>
        <pt x="160" y="558" on="1"/>
        <pt x="160" y="504" on="0"/>
        <pt x="204" y="463" on="1"/>
        <pt x="254" y="422" on="0"/>
        <pt x="352" y="400" on="1"/>
        <pt x="392" y="392" on="1"/>
        <pt x="395" y="391" on="0"/>
        <pt x="404" y="390" on="0"/>
        <pt x="410" y="388" on="1"/>
        <pt x="436" y="388" on="1"/>
        <pt x="436" y="567" on="1"/>
        <pt x="433" y="596" on="0"/>
        <pt x="389" y="610" on="1"/>
        <pt x="344" y="624" on="0"/>
        <pt x="298" y="624" on="1"/>
        <pt x="238" y="624" on="0"/>
        <pt x="160" y="589" on="0"/>
      </contour>
    </TTGlyph>
    <TTGlyph name="numbersign" xMin="20" yMin="1" xMax="678" yMax="694">
      <contour>
        <pt x="124" y="207" on="1"/>
        <pt x="85" y="207" on="0"/>
        <pt x="52" y="213" on="1"/>
        <pt x="20" y="221" on="0"/>
        <pt x="20" y="243" on="1"/>
        <pt x="20" y="255" on="0"/>
        <pt x="36" y="269" on="0"/>
        <pt x="64" y="276" on="0"/>
        <pt x="101" y="279" on="0"/>
        <pt x="122" y="279" on="1"/>
        <pt x="122" y="416" on="1"/>
        <pt x="101" y="416" on="0"/>
        <pt x="65" y="420" on="0"/>
        <pt x="50" y="423" on="1"/>
        <pt x="20" y="430" on="0"/>
        <pt x="20" y="452" on="1"/>
        <pt x="23" y="475" on="0"/>
        <pt x="52" y="481" on="1"/>
        <pt x="79" y="488" on="0"/>
        <pt x="110" y="489" on="0"/>
        <pt x="124" y="489" on="1"/>
        <pt x="124" y="673" on="1"/>
        <pt x="127" y="680" on="0"/>
        <pt x="159" y="694" on="0"/>
        <pt x="168" y="694" on="1"/>
        <pt x="216" y="694" on="1"/>
        <pt x="234" y="694" on="0"/>
        <pt x="248" y="683" on="1"/>
        <pt x="264" y="674" on="0"/>
        <pt x="264" y="665" on="1"/>
        <pt x="264" y="489" on="1"/>
        <pt x="438" y="489" on="1"/>
        <pt x="438" y="673" on="1"/>
        <pt x="441" y="680" on="0"/>
        <pt x="473" y="694" on="0"/>
        <pt x="482" y="694" on="1"/>
        <pt x="530" y="694" on="1"/>
        <pt x="548" y="694" on="0"/>
        <pt x="562" y="683" on="1"/>
        <pt x="578" y="674" on="0"/>
        <pt x="578" y="665" on="1"/>
        <pt x="578" y="489" on="1"/>
        <pt x="593" y="489" on="0"/>
        <pt x="636" y="483" on="0"/>
        <pt x="648" y="481" on="1"/>
        <pt x="678" y="473" on="0"/>
        <pt x="678" y="451" on="1"/>
        <pt x="676" y="439" on="0"/>
        <pt x="659" y="426" on="0"/>
        <pt x="632" y="418" on="0"/>
        <pt x="598" y="416" on="0"/>
        <pt x="580" y="416" on="1"/>
        <pt x="580" y="279" on="1"/>
        <pt x="618" y="279" on="0"/>
        <pt x="648" y="273" on="1"/>
        <pt x="678" y="265" on="0"/>
        <pt x="678" y="245" on="1"/>
        <pt x="678" y="221" on="0"/>
        <pt x="648" y="215" on="1"/>
        <pt x="623" y="208" on="0"/>
        <pt x="591" y="207" on="0"/>
        <pt x="578" y="207" on="1"/>
        <pt x="578" y="30" on="1"/>
        <pt x="575" y="20" on="0"/>
        <pt x="545" y="1" on="0"/>
        <pt x="530" y="1" on="1"/>
        <pt x="482" y="1" on="1"/>
        <pt x="471" y="2" on="0"/>
        <pt x="454" y="9" on="1"/>
        <pt x="446" y="13" on="0"/>
        <pt x="441" y="19" on="1"/>
        <pt x="439" y="21" on="0"/>
        <pt x="438" y="23" on="1"/>
        <pt x="438" y="207" on="1"/>
        <pt x="264" y="207" on="1"/>
        <pt x="264" y="30" on="1"/>
        <pt x="261" y="20" on="0"/>
        <pt x="231" y="1" on="0"/>
        <pt x="216" y="1" on="1"/>
        <pt x="168" y="1" on="1"/>
        <pt x="157" y="2" on="0"/>
        <pt x="140" y="9" on="1"/>
        <pt x="132" y="13" on="0"/>
        <pt x="127" y="19" on="1"/>
        <pt x="125" y="21" on="0"/>
        <pt x="124" y="23" on="1"/>
      </contour>
      <contour>
        <pt x="266" y="416" on="1"/>
        <pt x="266" y="279" on="1"/>
        <pt x="436" y="279" on="1"/>
        <pt x="436" y="416" on="1"/>
      </contour>
    </TTGlyph>
    <TTGlyph name="o" xMin="20" yMin="1" xMax="576" yMax="381">
      <contour>
        <pt x="20" y="145" on="1"/>
        <pt x="20" y="150" on="0"/>
        <pt x="22" y="169" on="0"/>
        <pt x="25" y="191" on="0"/>
        <pt x="28" y="212" on="0"/>
        <pt x="30" y="218" on="1"/>
        <pt x="42" y="257" on="0"/>
        <pt x="72" y="295" on="1"/>
        <pt x="105" y="332" on="0"/>
        <pt x="214" y="381" on="0"/>
        <pt x="298" y="381" on="1"/>
        <pt x="340" y="381" on="0"/>
        <pt x="412" y="367" on="0"/>
        <pt x="438" y="356" on="1"/>
        <pt x="495" y="327" on="0"/>
        <pt x="522" y="294" on="1"/>
        <pt x="555" y="257" on="0"/>
        <pt x="564" y="217" on="1"/>
        <pt x="576" y="175" on="0"/>
        <pt x="576" y="143" on="1"/>
        <pt x="576" y="101" on="0"/>
        <pt x="498" y="29" on="0"/>
        <pt x="420" y="11" on="1"/>
        <pt x="386" y="4" on="1"/>
        <pt x="352" y="1" on="1"/>
        <pt x="244" y="1" on="1"/>
        <pt x="208" y="4" on="1"/>
        <pt x="176" y="11" on="1"/>
        <pt x="95" y="28" on="0"/>
        <pt x="20" y="103" on="0"/>
      </contour>
      <contour>
        <pt x="160" y="143" on="1"/>
        <pt x="160" y="109" on="0"/>
        <pt x="194" y="90" on="1"/>
        <pt x="231" y="71" on="0"/>
        <pt x="298" y="71" on="1"/>
        <pt x="361" y="71" on="0"/>
        <pt x="436" y="109" on="0"/>
        <pt x="436" y="142" on="1"/>
        <pt x="436" y="156" on="0"/>
        <pt x="430" y="183" on="1"/>
        <pt x="424" y="202" on="0"/>
        <pt x="410" y="235" on="0"/>
        <pt x="408" y="239" on="1"/>
        <pt x="393" y="269" on="0"/>
        <pt x="340" y="312" on="0"/>
        <pt x="298" y="312" on="1"/>
        <pt x="256" y="312" on="0"/>
        <pt x="200" y="267" on="0"/>
        <pt x="186" y="240" on="1"/>
        <pt x="181" y="231" on="0"/>
        <pt x="175" y="218" on="0"/>
        <pt x="171" y="206" on="0"/>
        <pt x="168" y="193" on="0"/>
        <pt x="166" y="184" on="1"/>
      </contour>
    </TTGlyph>
    <TTGlyph name="one" xMin="20" yMin="1" xMax="156" yMax="690">
      <contour>
        <pt x="86" y="690" on="1"/>
        <pt x="105" y="690" on="0"/>
        <pt x="131" y="684" on="1"/>
        <pt x="156" y="678" on="0"/>
        <pt x="156" y="666" on="1"/>
        <pt x="156" y="24" on="1"/>
        <pt x="154" y="17" on="0"/>
        <pt x="140" y="8" on="0"/>
        <pt x="120" y="3" on="0"/>
        <pt x="96" y="1" on="0"/>
        <pt x="86" y="1" on="1"/>
        <pt x="74" y="1" on="0"/>
        <pt x="53" y="5" on="0"/>
        <pt x="42" y="8" on="1"/>
        <pt x="20" y="15" on="0"/>
        <pt x="20" y="28" on="1"/>
        <pt x="20" y="662" on="1"/>
        <pt x="23" y="678" on="0"/>
        <pt x="42" y="682" on="1"/>
        <pt x="57" y="688" on="0"/>
        <pt x="71" y="690" on="0"/>
      </contour>
    </TTGlyph>
    <TTGlyph name="p" xMin="20" yMin="-182" xMax="576" yMax="382">
      <contour>
        <pt x="66" y="382" on="1"/>
        <pt x="104" y="382" on="1"/>
        <pt x="134" y="382" on="0"/>
        <pt x="188" y="378" on="0"/>
        <pt x="216" y="375" on="1"/>
        <pt x="245" y="371" on="0"/>
        <pt x="297" y="361" on="0"/>
        <pt x="322" y="356" on="1"/>
        <pt x="450" y="328" on="0"/>
        <pt x="512" y="269" on="1"/>
        <pt x="546" y="239" on="0"/>
        <pt x="576" y="179" on="0"/>
        <pt x="576" y="144" on="1"/>
        <pt x="576" y="81" on="0"/>
        <pt x="430" y="2" on="0"/>
        <pt x="298" y="2" on="1"/>
        <pt x="258" y="2" on="1"/>
        <pt x="247" y="2" on="0"/>
        <pt x="222" y="6" on="0"/>
        <pt x="208" y="9" on="1"/>
        <pt x="181" y="15" on="0"/>
        <pt x="160" y="15" on="1"/>
        <pt x="160" y="-159" on="1"/>
        <pt x="157" y="-169" on="0"/>
        <pt x="132" y="-175" on="1"/>
        <pt x="108" y="-182" on="0"/>
        <pt x="90" y="-182" on="1"/>
        <pt x="63" y="-182" on="0"/>
        <pt x="20" y="-162" on="0"/>
        <pt x="20" y="-149" on="1"/>
        <pt x="20" y="351" on="1"/>
        <pt x="23" y="362" on="0"/>
        <pt x="49" y="379" on="0"/>
      </contour>
      <contour>
        <pt x="160" y="308" on="1"/>
        <pt x="160" y="139" on="1"/>
        <pt x="163" y="107" on="0"/>
        <pt x="242" y="72" on="0"/>
        <pt x="298" y="72" on="1"/>
        <pt x="367" y="72" on="0"/>
        <pt x="436" y="111" on="0"/>
        <pt x="436" y="144" on="1"/>
        <pt x="436" y="198" on="0"/>
        <pt x="330" y="277" on="0"/>
        <pt x="236" y="298" on="1"/>
        <pt x="200" y="304" on="1"/>
        <pt x="181" y="308" on="0"/>
      </contour>
    </TTGlyph>
    <TTGlyph name="parenleft" xMin="20" yMin="1" xMax="364" yMax="693">
      <contour>
        <pt x="292" y="693" on="1"/>
        <pt x="318" y="693" on="1"/>
        <pt x="364" y="684" on="0"/>
        <pt x="364" y="660" on="1"/>
        <pt x="361" y="639" on="0"/>
        <pt x="342" y="635" on="1"/>
        <pt x="294" y="623" on="1"/>
        <pt x="269" y="617" on="0"/>
        <pt x="252" y="603" on="1"/>
        <pt x="232" y="588" on="0"/>
        <pt x="220" y="571" on="1"/>
        <pt x="213" y="562" on="0"/>
        <pt x="200" y="544" on="0"/>
        <pt x="196" y="536" on="1"/>
        <pt x="184" y="509" on="1"/>
        <pt x="180" y="498" on="1"/>
        <pt x="176" y="494" on="0"/>
        <pt x="176" y="483" on="1"/>
        <pt x="170" y="468" on="1"/>
        <pt x="168" y="458" on="1"/>
        <pt x="166" y="454" on="0"/>
        <pt x="166" y="448" on="1"/>
        <pt x="162" y="444" on="0"/>
        <pt x="162" y="433" on="1"/>
        <pt x="160" y="419" on="1"/>
        <pt x="160" y="412" on="1"/>
        <pt x="160" y="283" on="1"/>
        <pt x="160" y="273" on="1"/>
        <pt x="164" y="268" on="0"/>
        <pt x="164" y="255" on="1"/>
        <pt x="168" y="248" on="0"/>
        <pt x="168" y="235" on="1"/>
        <pt x="172" y="230" on="0"/>
        <pt x="172" y="220" on="1"/>
        <pt x="194" y="160" on="1"/>
        <pt x="211" y="126" on="0"/>
        <pt x="238" y="103" on="1"/>
        <pt x="262" y="85" on="1"/>
        <pt x="276" y="74" on="0"/>
        <pt x="294" y="71" on="1"/>
        <pt x="342" y="58" on="1"/>
        <pt x="364" y="52" on="0"/>
        <pt x="364" y="34" on="1"/>
        <pt x="361" y="10" on="0"/>
        <pt x="318" y="1" on="1"/>
        <pt x="292" y="1" on="1"/>
        <pt x="244" y="1" on="0"/>
        <pt x="206" y="14" on="1"/>
        <pt x="164" y="31" on="0"/>
        <pt x="140" y="48" on="1"/>
        <pt x="108" y="71" on="0"/>
        <pt x="92" y="91" on="1"/>
        <pt x="80" y="103" on="0"/>
        <pt x="68" y="122" on="0"/>
        <pt x="64" y="134" on="1"/>
        <pt x="58" y="146" on="1"/>
        <pt x="50" y="162" on="1"/>
        <pt x="42" y="178" on="1"/>
        <pt x="40" y="187" on="1"/>
        <pt x="34" y="208" on="1"/>
        <pt x="26" y="237" on="1"/>
        <pt x="22" y="246" on="0"/>
        <pt x="22" y="264" on="1"/>
        <pt x="20" y="279" on="1"/>
        <pt x="20" y="415" on="1"/>
        <pt x="22" y="417" on="0"/>
        <pt x="22" y="430" on="1"/>
        <pt x="25" y="437" on="0"/>
        <pt x="26" y="450" on="0"/>
        <pt x="26" y="457" on="1"/>
        <pt x="34" y="486" on="1"/>
        <pt x="40" y="507" on="1"/>
        <pt x="42" y="509" on="0"/>
        <pt x="42" y="516" on="1"/>
        <pt x="50" y="531" on="1"/>
        <pt x="58" y="548" on="1"/>
        <pt x="64" y="560" on="1"/>
        <pt x="69" y="569" on="0"/>
        <pt x="77" y="580" on="1"/>
        <pt x="82" y="588" on="0"/>
        <pt x="90" y="600" on="0"/>
        <pt x="92" y="602" on="1"/>
        <pt x="111" y="625" on="0"/>
        <pt x="170" y="667" on="0"/>
        <pt x="206" y="679" on="1"/>
        <pt x="243" y="693" on="0"/>
      </contour>
    </TTGlyph>
    <TTGlyph name="parenright" xMin="20" yMin="1" xMax="364" yMax="693">
      <contour>
        <pt x="20" y="36" on="1"/>
        <pt x="20" y="49" on="0"/>
        <pt x="34" y="60" on="0"/>
        <pt x="44" y="62" on="1"/>
        <pt x="53" y="66" on="0"/>
        <pt x="68" y="66" on="1"/>
        <pt x="94" y="73" on="1"/>
        <pt x="144" y="94" on="0"/>
        <pt x="194" y="163" on="0"/>
        <pt x="206" y="204" on="1"/>
        <pt x="215" y="226" on="0"/>
        <pt x="222" y="261" on="0"/>
        <pt x="222" y="284" on="1"/>
        <pt x="224" y="351" on="1"/>
        <pt x="224" y="377" on="0"/>
        <pt x="218" y="441" on="0"/>
        <pt x="214" y="466" on="1"/>
        <pt x="202" y="531" on="0"/>
        <pt x="156" y="578" on="1"/>
        <pt x="130" y="601" on="1"/>
        <pt x="122" y="609" on="0"/>
        <pt x="85" y="627" on="0"/>
        <pt x="68" y="627" on="1"/>
        <pt x="44" y="631" on="1"/>
        <pt x="26" y="639" on="1"/>
        <pt x="20" y="646" on="0"/>
        <pt x="20" y="658" on="1"/>
        <pt x="22" y="665" on="0"/>
        <pt x="26" y="675" on="0"/>
        <pt x="28" y="679" on="1"/>
        <pt x="36" y="690" on="0"/>
        <pt x="64" y="693" on="1"/>
        <pt x="88" y="693" on="1"/>
        <pt x="136" y="693" on="0"/>
        <pt x="174" y="680" on="1"/>
        <pt x="217" y="664" on="0"/>
        <pt x="270" y="629" on="0"/>
        <pt x="288" y="606" on="1"/>
        <pt x="309" y="582" on="0"/>
        <pt x="318" y="564" on="1"/>
        <pt x="348" y="507" on="0"/>
        <pt x="354" y="454" on="1"/>
        <pt x="360" y="428" on="0"/>
        <pt x="364" y="373" on="0"/>
        <pt x="364" y="342" on="1"/>
        <pt x="364" y="298" on="1"/>
        <pt x="362" y="294" on="0"/>
        <pt x="362" y="283" on="1"/>
        <pt x="360" y="273" on="0"/>
        <pt x="360" y="259" on="1"/>
        <pt x="356" y="252" on="0"/>
        <pt x="356" y="235" on="1"/>
        <pt x="355" y="233" on="0"/>
        <pt x="353" y="225" on="0"/>
        <pt x="352" y="220" on="1"/>
        <pt x="348" y="210" on="1"/>
        <pt x="342" y="192" on="1"/>
        <pt x="336" y="174" on="1"/>
        <pt x="335" y="172" on="0"/>
        <pt x="333" y="166" on="0"/>
        <pt x="332" y="161" on="1"/>
        <pt x="324" y="139" on="0"/>
        <pt x="289" y="83" on="0"/>
        <pt x="230" y="34" on="0"/>
        <pt x="145" y="1" on="0"/>
        <pt x="88" y="1" on="1"/>
        <pt x="64" y="1" on="1"/>
        <pt x="33" y="7" on="0"/>
        <pt x="28" y="15" on="1"/>
        <pt x="20" y="25" on="0"/>
      </contour>
    </TTGlyph>
    <TTGlyph name="percent" xMin="20" yMin="1" xMax="1204" yMax="695">
      <contour>
        <pt x="334" y="34" on="1"/>
        <pt x="334" y="41" on="1"/>
        <pt x="338" y="48" on="1"/>
        <pt x="754" y="671" on="1"/>
        <pt x="763" y="685" on="0"/>
        <pt x="796" y="695" on="0"/>
        <pt x="824" y="695" on="1"/>
        <pt x="852" y="695" on="0"/>
        <pt x="890" y="676" on="0"/>
        <pt x="890" y="661" on="1"/>
        <pt x="890" y="654" on="1"/>
        <pt x="466" y="19" on="1"/>
        <pt x="457" y="7" on="0"/>
        <pt x="440" y="4" on="1"/>
        <pt x="400" y="1" on="1"/>
        <pt x="370" y="1" on="0"/>
        <pt x="334" y="19" on="0"/>
      </contour>
      <contour>
        <pt x="648" y="138" on="1"/>
        <pt x="648" y="201" on="0"/>
        <pt x="726" y="239" on="1"/>
        <pt x="805" y="278" on="0"/>
        <pt x="926" y="278" on="1"/>
        <pt x="1050" y="278" on="0"/>
        <pt x="1127" y="239" on="1"/>
        <pt x="1204" y="201" on="0"/>
        <pt x="1204" y="139" on="1"/>
        <pt x="1204" y="97" on="0"/>
        <pt x="1123" y="27" on="0"/>
        <pt x="1048" y="11" on="1"/>
        <pt x="1014" y="4" on="1"/>
        <pt x="980" y="1" on="1"/>
        <pt x="870" y="1" on="1"/>
        <pt x="836" y="4" on="1"/>
        <pt x="804" y="11" on="1"/>
        <pt x="729" y="29" on="0"/>
        <pt x="688" y="63" on="1"/>
        <pt x="648" y="97" on="0"/>
      </contour>
      <contour>
        <pt x="788" y="139" on="1"/>
        <pt x="791" y="107" on="0"/>
        <pt x="826" y="89" on="1"/>
        <pt x="868" y="71" on="0"/>
        <pt x="926" y="71" on="1"/>
        <pt x="989" y="71" on="0"/>
        <pt x="1064" y="106" on="0"/>
        <pt x="1064" y="139" on="1"/>
        <pt x="1061" y="172" on="0"/>
        <pt x="986" y="207" on="0"/>
        <pt x="926" y="207" on="1"/>
        <pt x="862" y="207" on="0"/>
        <pt x="788" y="170" on="0"/>
      </contour>
      <contour>
        <pt x="20" y="558" on="1"/>
        <pt x="20" y="598" on="0"/>
        <pt x="104" y="669" on="0"/>
        <pt x="176" y="685" on="1"/>
        <pt x="208" y="691" on="1"/>
        <pt x="225" y="695" on="0"/>
        <pt x="244" y="695" on="1"/>
        <pt x="354" y="695" on="1"/>
        <pt x="386" y="691" on="1"/>
        <pt x="420" y="685" on="1"/>
        <pt x="498" y="667" on="0"/>
        <pt x="578" y="599" on="0"/>
        <pt x="578" y="557" on="1"/>
        <pt x="578" y="493" on="0"/>
        <pt x="499" y="456" on="1"/>
        <pt x="420" y="418" on="0"/>
        <pt x="298" y="418" on="1"/>
        <pt x="269" y="418" on="0"/>
        <pt x="206" y="424" on="0"/>
        <pt x="184" y="428" on="1"/>
        <pt x="131" y="439" on="0"/>
        <pt x="96" y="456" on="1"/>
        <pt x="57" y="477" on="0"/>
        <pt x="40" y="500" on="1"/>
        <pt x="20" y="526" on="0"/>
      </contour>
      <contour>
        <pt x="162" y="557" on="1"/>
        <pt x="165" y="525" on="0"/>
        <pt x="200" y="507" on="1"/>
        <pt x="239" y="489" on="0"/>
        <pt x="298" y="489" on="1"/>
        <pt x="361" y="489" on="0"/>
        <pt x="436" y="527" on="0"/>
        <pt x="436" y="557" on="1"/>
        <pt x="433" y="591" on="0"/>
        <pt x="356" y="625" on="0"/>
        <pt x="298" y="625" on="1"/>
        <pt x="234" y="625" on="0"/>
        <pt x="198" y="607" on="1"/>
        <pt x="162" y="587" on="0"/>
      </contour>
    </TTGlyph>
    <TTGlyph name="period" xMin="20" yMin="0" xMax="160" yMax="70">
      <contour>
        <pt x="20" y="36" on="1"/>
        <pt x="23" y="53" on="0"/>
        <pt x="66" y="70" on="0"/>
        <pt x="92" y="70" on="1"/>
        <pt x="120" y="70" on="0"/>
        <pt x="160" y="50" on="0"/>
        <pt x="160" y="35" on="1"/>
        <pt x="157" y="19" on="0"/>
        <pt x="120" y="0" on="0"/>
        <pt x="90" y="0" on="1"/>
        <pt x="57" y="0" on="0"/>
        <pt x="40" y="11" on="1"/>
        <pt x="20" y="22" on="0"/>
      </contour>
    </TTGlyph>
    <TTGlyph name="plus" xMin="20" yMin="210" xMax="576" yMax="488">
      <contour>
        <pt x="226" y="313" on="1"/>
        <pt x="86" y="313" on="1"/>
        <pt x="57" y="313" on="0"/>
        <pt x="20" y="336" on="0"/>
        <pt x="20" y="349" on="1"/>
        <pt x="20" y="358" on="0"/>
        <pt x="46" y="383" on="0"/>
        <pt x="66" y="383" on="1"/>
        <pt x="226" y="383" on="1"/>
        <pt x="226" y="459" on="1"/>
        <pt x="226" y="471" on="0"/>
        <pt x="246" y="479" on="1"/>
        <pt x="267" y="486" on="0"/>
        <pt x="283" y="488" on="0"/>
        <pt x="298" y="488" on="1"/>
        <pt x="314" y="488" on="0"/>
        <pt x="339" y="481" on="1"/>
        <pt x="366" y="473" on="0"/>
        <pt x="366" y="465" on="1"/>
        <pt x="366" y="383" on="1"/>
        <pt x="530" y="383" on="1"/>
        <pt x="549" y="383" on="0"/>
        <pt x="576" y="357" on="0"/>
        <pt x="576" y="349" on="1"/>
        <pt x="573" y="333" on="0"/>
        <pt x="554" y="324" on="1"/>
        <pt x="534" y="313" on="0"/>
        <pt x="506" y="313" on="1"/>
        <pt x="366" y="313" on="1"/>
        <pt x="366" y="233" on="1"/>
        <pt x="363" y="223" on="0"/>
        <pt x="338" y="216" on="1"/>
        <pt x="312" y="210" on="0"/>
        <pt x="296" y="210" on="1"/>
        <pt x="283" y="210" on="0"/>
        <pt x="262" y="214" on="0"/>
        <pt x="250" y="218" on="1"/>
        <pt x="226" y="227" on="0"/>
        <pt x="226" y="239" on="1"/>
      </contour>
    </TTGlyph>
    <TTGlyph name="q" xMin="20" yMin="-182" xMax="572" yMax="382">
      <contour>
        <pt x="434" y="16" on="1"/>
        <pt x="412" y="11" on="0"/>
        <pt x="378" y="6" on="0"/>
        <pt x="364" y="5" on="1"/>
        <pt x="294" y="2" on="1"/>
        <pt x="188" y="2" on="0"/>
        <pt x="114" y="33" on="1"/>
        <pt x="38" y="64" on="0"/>
        <pt x="20" y="116" on="1"/>
        <pt x="20" y="144" on="1"/>
        <pt x="20" y="186" on="0"/>
        <pt x="58" y="251" on="0"/>
        <pt x="96" y="280" on="1"/>
        <pt x="173" y="339" on="0"/>
        <pt x="322" y="366" on="1"/>
        <pt x="364" y="374" on="0"/>
        <pt x="448" y="382" on="0"/>
        <pt x="490" y="382" on="1"/>
        <pt x="530" y="382" on="1"/>
        <pt x="556" y="373" on="1"/>
        <pt x="572" y="366" on="0"/>
        <pt x="572" y="360" on="1"/>
        <pt x="572" y="-159" on="1"/>
        <pt x="569" y="-169" on="0"/>
        <pt x="545" y="-175" on="1"/>
        <pt x="523" y="-182" on="0"/>
        <pt x="506" y="-182" on="1"/>
        <pt x="482" y="-182" on="0"/>
        <pt x="456" y="-172" on="1"/>
        <pt x="434" y="-162" on="0"/>
        <pt x="434" y="-149" on="1"/>
      </contour>
      <contour>
        <pt x="160" y="143" on="1"/>
        <pt x="163" y="108" on="0"/>
        <pt x="229" y="72" on="0"/>
        <pt x="296" y="72" on="1"/>
        <pt x="340" y="75" on="1"/>
        <pt x="378" y="82" on="0"/>
        <pt x="432" y="104" on="0"/>
        <pt x="432" y="123" on="1"/>
        <pt x="432" y="308" on="1"/>
        <pt x="394" y="304" on="1"/>
        <pt x="360" y="298" on="1"/>
        <pt x="308" y="289" on="0"/>
        <pt x="232" y="257" on="0"/>
        <pt x="183" y="216" on="0"/>
        <pt x="160" y="168" on="0"/>
      </contour>
    </TTGlyph>
</ttFont>
